<?xml version="1.0" encoding="UTF-8"?>
<svg xmlns="http://www.w3.org/2000/svg" viewBox="0 0 320 64" width="320" height="64" shape-rendering="geometricPrecision">
  
    <defs>
      <linearGradient id="dwarf-shirt" x1="0%" y1="0%" x2="100%" y2="100%">
        <stop offset="0%" stop-color="#d2a95e" />
        <stop offset="100%" stop-color="#9e7b41" />
      </linearGradient>
      <linearGradient id="dwarf-skin" x1="0%" y1="0%" x2="100%" y2="100%">
        <stop offset="0%" stop-color="#e4b07b" />
        <stop offset="100%" stop-color="#d29e69" />
      </linearGradient>
      <linearGradient id="dwarf-hair" x1="0%" y1="0%" x2="100%" y2="100%">
        <stop offset="0%" stop-color="#8d6137" />
        <stop offset="100%" stop-color="#5c3c25" />
      </linearGradient>
      <linearGradient id="dwarf-pants" x1="0%" y1="0%" x2="100%" y2="100%">
        <stop offset="0%" stop-color="#544131" />
        <stop offset="100%" stop-color="#443121" />
      </linearGradient>
      <linearGradient id="dwarf-metal" x1="0%" y1="0%" x2="100%" y2="100%">
        <stop offset="0%" stop-color="#cfd6df" />
        <stop offset="100%" stop-color="#7a8794" />
      </linearGradient>
      <filter id="dwarf-shadow" x="-50%" y="-50%" width="200%" height="200%">
        <feGaussianBlur stdDeviation="1.2" />
      </filter>
    </defs>
  
  <rect width="100%" height="100%" fill="transparent" />
  <g transform="translate(0,0)">
    <g transform="translate(64,0) scale(-1,1)">
      <ellipse cx="32" cy="55" rx="14" ry="4" fill="rgba(0,0,0,0.18)" />
      <ellipse cx="32" cy="54" rx="12" ry="3" fill="rgba(0,0,0,0.2)" opacity="0.45" />
<path d="M 40 26 C 48 31, 48 42, 40 50 C 35 43, 36 33, 40 26 Z" fill="#5a4b2c" opacity="0.95" />
<path d="M 26.65 38.5 H 28.15 Q 31.15 38.5 31.15 41.5 V 47.5 Q 31.15 50.5 28.15 50.5 H 26.65 Q 23.65 50.5 23.65 47.5 V 41.5 Q 23.65 38.5 26.65 38.5 Z" fill="url(#dwarf-pants)" stroke="#1b1614" stroke-width="1" />
<path d="M 26.15 40.5 H 28.65 Q 30.15 40.5 30.15 42 V 42 Q 30.15 43.5 28.65 43.5 H 26.15 Q 24.65 43.5 24.65 42 V 42 Q 24.65 40.5 26.15 40.5 Z" fill="#c99d50" opacity="0.12" />
<path d="M 26.4 51 H 28.4 Q 30.4 51 30.4 53 V 53 Q 30.4 55 28.4 55 H 26.4 Q 24.4 55 24.4 53 V 53 Q 24.4 51 26.4 51 Z" fill="#382619" stroke="#1b1614" stroke-width="1" />
<path d="M 33.65 40 H 35.15 Q 38.15 40 38.15 43 V 49 Q 38.15 52 35.15 52 H 33.65 Q 30.65 52 30.65 49 V 43 Q 30.65 40 33.65 40 Z" fill="url(#dwarf-pants)" stroke="#1b1614" stroke-width="1" />
<path d="M 33.15 42 H 35.65 Q 37.15 42 37.15 43.5 V 43.5 Q 37.15 45 35.65 45 H 33.15 Q 31.65 45 31.65 43.5 V 43.5 Q 31.65 42 33.15 42 Z" fill="#c99d50" opacity="0.12" />
<path d="M 33.4 51 H 35.4 Q 37.4 51 37.4 53 V 53 Q 37.4 55 35.4 55 H 33.4 Q 31.4 55 31.4 53 V 53 Q 31.4 51 33.4 51 Z" fill="#382619" stroke="#1b1614" stroke-width="1" />
<path d="M 29 29 H 35 Q 41 29 41 35 V 40 Q 41 46 35 46 H 29 Q 23 46 23 40 V 35 Q 23 29 29 29 Z" fill="url(#dwarf-shirt)" stroke="#1b1614" stroke-width="1.2" stroke-linejoin="round" />
<path d="M 27.5 33 H 36.5 Q 39 33 39 35.5 V 35.5 Q 39 38 36.5 38 H 27.5 Q 25 38 25 35.5 V 35.5 Q 25 33 27.5 33 Z" fill="#c99d50" opacity="0.75" />
<path d="M 25 25 H 39 Q 42 25 42 28 V 28 Q 42 31 39 31 H 25 Q 22 31 22 28 V 28 Q 22 25 25 25 Z" fill="#5c3c25" stroke="#1b1614" stroke-width="1" />
<path d="M 27.5 22 H 36.5 Q 40 22 40 25.5 V 25.5 Q 40 29 36.5 29 H 27.5 Q 24 29 24 25.5 V 25.5 Q 24 22 27.5 22 Z" fill="#8d6137" stroke="#1b1614" stroke-width="1" />
<ellipse cx="31" cy="12" rx="8" ry="8.5" fill="url(#dwarf-skin)" stroke="#1b1614" stroke-width="1.2" />
<path d="M 21 8 Q 31 0, 41 8 L 39 14 Q 31 11, 23 14 Z" fill="#8d6137" stroke="#1b1614" stroke-width="1" />
<ellipse cx="31" cy="5" rx="11" ry="5" fill="#cfd6df" stroke="#1b1614" stroke-width="1" />
<rect x="24" y="6" width="14" height="2" rx="1" fill="#c99d50" opacity="0.7" />
<circle cx="28.4" cy="11.2" r="0.9" fill="#17131f" />
<circle cx="33.8" cy="11.2" r="0.9" fill="#17131f" />
<path d="M 29 14.6 Q 31 16.1 33 14.6" fill="none" stroke="#1b1614" stroke-width="1" stroke-linecap="round" />
<path d="
    M 40 17.5
    Q 42 27.5 31 30.5
    Q 20 27.5 22 17.5
    Q 26 22.5 31 20.5
    Q 36 22.5 40 17.5
    Z" fill="url(#dwarf-hair)" stroke="#1b1614" stroke-width="1" />
<g transform="translate(23.8 30) rotate(-10)"><path d="M -0.25 0 H 0.25 Q 3.25 0 3.25 3 V 7 Q 3.25 10 0.25 10 H -0.25 Q -3.25 10 -3.25 7 V 3 Q -3.25 0 -0.25 0 Z" fill="url(#dwarf-skin)" stroke="#1b1614" stroke-width="1" />
<path d="M -0.25 2 H 0.25 Q 2.25 2 2.25 4 V 4 Q 2.25 6 0.25 6 H -0.25 Q -2.25 6 -2.25 4 V 4 Q -2.25 2 -0.25 2 Z" fill="#d2a95e" opacity="0.8" /></g>
<g transform="translate(39.8 30) rotate(12)"><path d="M -0.25 -2 H 0.25 Q 3.25 -2 3.25 1 V 5 Q 3.25 8 0.25 8 H -0.25 Q -3.25 8 -3.25 5 V 1 Q -3.25 -2 -0.25 -2 Z" fill="url(#dwarf-skin)" stroke="#1b1614" stroke-width="1" />
<path d="M -0.25 0 H 0.25 Q 2.25 0 2.25 2 V 2 Q 2.25 4 0.25 4 H -0.25 Q -2.25 4 -2.25 2 V 2 Q -2.25 0 -0.25 0 Z" fill="#d2a95e" opacity="0.8" /></g>
<g transform="translate(32.8 31.4) rotate(8)"><rect x="-1" y="-4" width="2" height="12" rx="1" fill="#7a8794" stroke="#1b1614" stroke-width="0.8" />
<rect x="-7" y="-6" width="12" height="5" rx="2" fill="url(#dwarf-metal)" stroke="#1b1614" stroke-width="0.8" />
<rect x="-1" y="-7" width="2" height="16" rx="1" fill="#7a8794" opacity="0.25" /></g>
    </g>
  </g>
<g transform="translate(64,0)">
    <g transform="translate(64,0) scale(-1,1)">
      <ellipse cx="32" cy="55" rx="14" ry="4" fill="rgba(0,0,0,0.18)" />
      <ellipse cx="32" cy="52" rx="12" ry="3" fill="rgba(0,0,0,0.2)" opacity="0.45" />
<path d="M 40 26 C 48 31, 48 42, 40 50 C 35 43, 36 33, 40 26 Z" fill="#5a4b2c" opacity="0.95" />
<path d="M 28.25 35.5 H 29.75 Q 32.75 35.5 32.75 38.5 V 44.5 Q 32.75 47.5 29.75 47.5 H 28.25 Q 25.25 47.5 25.25 44.5 V 38.5 Q 25.25 35.5 28.25 35.5 Z" fill="url(#dwarf-pants)" stroke="#1b1614" stroke-width="1" />
<path d="M 27.75 37.5 H 30.25 Q 31.75 37.5 31.75 39 V 39 Q 31.75 40.5 30.25 40.5 H 27.75 Q 26.25 40.5 26.25 39 V 39 Q 26.25 37.5 27.75 37.5 Z" fill="#c99d50" opacity="0.12" />
<path d="M 28 48 H 30 Q 32 48 32 50 V 50 Q 32 52 30 52 H 28 Q 26 52 26 50 V 50 Q 26 48 28 48 Z" fill="#382619" stroke="#1b1614" stroke-width="1" />
<path d="M 35.25 37 H 36.75 Q 39.75 37 39.75 40 V 46 Q 39.75 49 36.75 49 H 35.25 Q 32.25 49 32.25 46 V 40 Q 32.25 37 35.25 37 Z" fill="url(#dwarf-pants)" stroke="#1b1614" stroke-width="1" />
<path d="M 34.75 39 H 37.25 Q 38.75 39 38.75 40.5 V 40.5 Q 38.75 42 37.25 42 H 34.75 Q 33.25 42 33.25 40.5 V 40.5 Q 33.25 39 34.75 39 Z" fill="#c99d50" opacity="0.12" />
<path d="M 35 48 H 37 Q 39 48 39 50 V 50 Q 39 52 37 52 H 35 Q 33 52 33 50 V 50 Q 33 48 35 48 Z" fill="#382619" stroke="#1b1614" stroke-width="1" />
<path d="M 29 26 H 35 Q 41 26 41 32 V 37 Q 41 43 35 43 H 29 Q 23 43 23 37 V 32 Q 23 26 29 26 Z" fill="url(#dwarf-shirt)" stroke="#1b1614" stroke-width="1.2" stroke-linejoin="round" />
<path d="M 27.5 30 H 36.5 Q 39 30 39 32.5 V 32.5 Q 39 35 36.5 35 H 27.5 Q 25 35 25 32.5 V 32.5 Q 25 30 27.5 30 Z" fill="#c99d50" opacity="0.75" />
<path d="M 25 22 H 39 Q 42 22 42 25 V 25 Q 42 28 39 28 H 25 Q 22 28 22 25 V 25 Q 22 22 25 22 Z" fill="#5c3c25" stroke="#1b1614" stroke-width="1" />
<path d="M 27.5 19 H 36.5 Q 40 19 40 22.5 V 22.5 Q 40 26 36.5 26 H 27.5 Q 24 26 24 22.5 V 22.5 Q 24 19 27.5 19 Z" fill="#8d6137" stroke="#1b1614" stroke-width="1" />
<ellipse cx="31" cy="11" rx="8" ry="8.5" fill="url(#dwarf-skin)" stroke="#1b1614" stroke-width="1.2" />
<path d="M 21 7 Q 31 -1, 41 7 L 39 13 Q 31 10, 23 13 Z" fill="#8d6137" stroke="#1b1614" stroke-width="1" />
<ellipse cx="31" cy="4" rx="11" ry="5" fill="#cfd6df" stroke="#1b1614" stroke-width="1" />
<rect x="24" y="5" width="14" height="2" rx="1" fill="#c99d50" opacity="0.7" />
<circle cx="28.4" cy="10.2" r="0.9" fill="#17131f" />
<circle cx="33.8" cy="10.2" r="0.9" fill="#17131f" />
<path d="M 29 13.6 Q 31 15.1 33 13.6" fill="none" stroke="#1b1614" stroke-width="1" stroke-linecap="round" />
<path d="
    M 40 16.5
    Q 42 26.5 31 29.5
    Q 20 26.5 22 16.5
    Q 26 21.5 31 19.5
    Q 36 21.5 40 16.5
    Z" fill="url(#dwarf-hair)" stroke="#1b1614" stroke-width="1" />
<g transform="translate(23 27) rotate(-10)"><path d="M -0.25 0 H 0.25 Q 3.25 0 3.25 3 V 7 Q 3.25 10 0.25 10 H -0.25 Q -3.25 10 -3.25 7 V 3 Q -3.25 0 -0.25 0 Z" fill="url(#dwarf-skin)" stroke="#1b1614" stroke-width="1" />
<path d="M -0.25 2 H 0.25 Q 2.25 2 2.25 4 V 4 Q 2.25 6 0.25 6 H -0.25 Q -2.25 6 -2.25 4 V 4 Q -2.25 2 -0.25 2 Z" fill="#d2a95e" opacity="0.8" /></g>
<g transform="translate(41 27) rotate(12)"><path d="M -0.25 -2 H 0.25 Q 3.25 -2 3.25 1 V 5 Q 3.25 8 0.25 8 H -0.25 Q -3.25 8 -3.25 5 V 1 Q -3.25 -2 -0.25 -2 Z" fill="url(#dwarf-skin)" stroke="#1b1614" stroke-width="1" />
<path d="M -0.25 0 H 0.25 Q 2.25 0 2.25 2 V 2 Q 2.25 4 0.25 4 H -0.25 Q -2.25 4 -2.25 2 V 2 Q -2.25 0 -0.25 0 Z" fill="#d2a95e" opacity="0.8" /></g>
<g transform="translate(34 28) rotate(8)"><rect x="-1" y="-4" width="2" height="12" rx="1" fill="#7a8794" stroke="#1b1614" stroke-width="0.8" />
<rect x="-7" y="-6" width="12" height="5" rx="2" fill="url(#dwarf-metal)" stroke="#1b1614" stroke-width="0.8" />
<rect x="-1" y="-7" width="2" height="16" rx="1" fill="#7a8794" opacity="0.25" /></g>
    </g>
  </g>
<g transform="translate(128,0)">
    <g transform="translate(64,0) scale(-1,1)">
      <ellipse cx="32" cy="55" rx="14" ry="4" fill="rgba(0,0,0,0.18)" />
      <ellipse cx="32" cy="50" rx="12" ry="3" fill="rgba(0,0,0,0.2)" opacity="0.45" />
<path d="M 40 26 C 48 31, 48 42, 40 50 C 35 43, 36 33, 40 26 Z" fill="#5a4b2c" opacity="0.95" />
<path d="M 29.85 32.5 H 31.35 Q 34.35 32.5 34.35 35.5 V 41.5 Q 34.35 44.5 31.35 44.5 H 29.85 Q 26.85 44.5 26.85 41.5 V 35.5 Q 26.85 32.5 29.85 32.5 Z" fill="url(#dwarf-pants)" stroke="#1b1614" stroke-width="1" />
<path d="M 29.35 34.5 H 31.85 Q 33.35 34.5 33.35 36 V 36 Q 33.35 37.5 31.85 37.5 H 29.35 Q 27.85 37.5 27.85 36 V 36 Q 27.85 34.5 29.35 34.5 Z" fill="#c99d50" opacity="0.12" />
<path d="M 29.6 45 H 31.6 Q 33.6 45 33.6 47 V 47 Q 33.6 49 31.6 49 H 29.6 Q 27.6 49 27.6 47 V 47 Q 27.6 45 29.6 45 Z" fill="#382619" stroke="#1b1614" stroke-width="1" />
<path d="M 36.85 34 H 38.35 Q 41.35 34 41.35 37 V 43 Q 41.35 46 38.35 46 H 36.85 Q 33.85 46 33.85 43 V 37 Q 33.85 34 36.85 34 Z" fill="url(#dwarf-pants)" stroke="#1b1614" stroke-width="1" />
<path d="M 36.35 36 H 38.85 Q 40.35 36 40.35 37.5 V 37.5 Q 40.35 39 38.85 39 H 36.35 Q 34.85 39 34.85 37.5 V 37.5 Q 34.85 36 36.35 36 Z" fill="#c99d50" opacity="0.12" />
<path d="M 36.6 45 H 38.6 Q 40.6 45 40.6 47 V 47 Q 40.6 49 38.6 49 H 36.6 Q 34.6 49 34.6 47 V 47 Q 34.6 45 36.6 45 Z" fill="#382619" stroke="#1b1614" stroke-width="1" />
<path d="M 29 23 H 35 Q 41 23 41 29 V 34 Q 41 40 35 40 H 29 Q 23 40 23 34 V 29 Q 23 23 29 23 Z" fill="url(#dwarf-shirt)" stroke="#1b1614" stroke-width="1.2" stroke-linejoin="round" />
<path d="M 27.5 27 H 36.5 Q 39 27 39 29.5 V 29.5 Q 39 32 36.5 32 H 27.5 Q 25 32 25 29.5 V 29.5 Q 25 27 27.5 27 Z" fill="#c99d50" opacity="0.75" />
<path d="M 25 19 H 39 Q 42 19 42 22 V 22 Q 42 25 39 25 H 25 Q 22 25 22 22 V 22 Q 22 19 25 19 Z" fill="#5c3c25" stroke="#1b1614" stroke-width="1" />
<path d="M 27.5 16 H 36.5 Q 40 16 40 19.5 V 19.5 Q 40 23 36.5 23 H 27.5 Q 24 23 24 19.5 V 19.5 Q 24 16 27.5 16 Z" fill="#8d6137" stroke="#1b1614" stroke-width="1" />
<ellipse cx="31" cy="10" rx="8" ry="8.5" fill="url(#dwarf-skin)" stroke="#1b1614" stroke-width="1.2" />
<path d="M 21 6 Q 31 -2, 41 6 L 39 12 Q 31 9, 23 12 Z" fill="#8d6137" stroke="#1b1614" stroke-width="1" />
<ellipse cx="31" cy="3" rx="11" ry="5" fill="#cfd6df" stroke="#1b1614" stroke-width="1" />
<rect x="24" y="4" width="14" height="2" rx="1" fill="#c99d50" opacity="0.7" />
<circle cx="28.4" cy="9.2" r="0.9" fill="#17131f" />
<circle cx="33.8" cy="9.2" r="0.9" fill="#17131f" />
<path d="M 29 12.6 Q 31 14.1 33 12.6" fill="none" stroke="#1b1614" stroke-width="1" stroke-linecap="round" />
<path d="
    M 40 15.5
    Q 42 25.5 31 28.5
    Q 20 25.5 22 15.5
    Q 26 20.5 31 18.5
    Q 36 20.5 40 15.5
    Z" fill="url(#dwarf-hair)" stroke="#1b1614" stroke-width="1" />
<g transform="translate(22.2 24) rotate(-10)"><path d="M -0.25 0 H 0.25 Q 3.25 0 3.25 3 V 7 Q 3.25 10 0.25 10 H -0.25 Q -3.25 10 -3.25 7 V 3 Q -3.25 0 -0.25 0 Z" fill="url(#dwarf-skin)" stroke="#1b1614" stroke-width="1" />
<path d="M -0.25 2 H 0.25 Q 2.25 2 2.25 4 V 4 Q 2.25 6 0.25 6 H -0.25 Q -2.25 6 -2.25 4 V 4 Q -2.25 2 -0.25 2 Z" fill="#d2a95e" opacity="0.8" /></g>
<g transform="translate(42.2 24) rotate(12)"><path d="M -0.25 -2 H 0.25 Q 3.25 -2 3.25 1 V 5 Q 3.25 8 0.25 8 H -0.25 Q -3.25 8 -3.25 5 V 1 Q -3.25 -2 -0.25 -2 Z" fill="url(#dwarf-skin)" stroke="#1b1614" stroke-width="1" />
<path d="M -0.25 0 H 0.25 Q 2.25 0 2.25 2 V 2 Q 2.25 4 0.25 4 H -0.25 Q -2.25 4 -2.25 2 V 2 Q -2.25 0 -0.25 0 Z" fill="#d2a95e" opacity="0.8" /></g>
<g transform="translate(35.2 24.6) rotate(8)"><rect x="-1" y="-4" width="2" height="12" rx="1" fill="#7a8794" stroke="#1b1614" stroke-width="0.8" />
<rect x="-7" y="-6" width="12" height="5" rx="2" fill="url(#dwarf-metal)" stroke="#1b1614" stroke-width="0.8" />
<rect x="-1" y="-7" width="2" height="16" rx="1" fill="#7a8794" opacity="0.25" /></g>
    </g>
  </g>
<g transform="translate(192,0)">
    <g transform="translate(64,0) scale(-1,1)">
      <ellipse cx="32" cy="55" rx="14" ry="4" fill="rgba(0,0,0,0.18)" />
      <ellipse cx="32" cy="51" rx="12" ry="3" fill="rgba(0,0,0,0.2)" opacity="0.45" />
<path d="M 40 26 C 48 31, 48 42, 40 50 C 35 43, 36 33, 40 26 Z" fill="#5a4b2c" opacity="0.95" />
<path d="M 31.450000000000003 33.5 H 32.95 Q 35.95 33.5 35.95 36.5 V 42.5 Q 35.95 45.5 32.95 45.5 H 31.450000000000003 Q 28.450000000000003 45.5 28.450000000000003 42.5 V 36.5 Q 28.450000000000003 33.5 31.450000000000003 33.5 Z" fill="url(#dwarf-pants)" stroke="#1b1614" stroke-width="1" />
<path d="M 30.950000000000003 35.5 H 33.45 Q 34.95 35.5 34.95 37 V 37 Q 34.95 38.5 33.45 38.5 H 30.950000000000003 Q 29.450000000000003 38.5 29.450000000000003 37 V 37 Q 29.450000000000003 35.5 30.950000000000003 35.5 Z" fill="#c99d50" opacity="0.12" />
<path d="M 31.200000000000003 46 H 33.2 Q 35.2 46 35.2 48 V 48 Q 35.2 50 33.2 50 H 31.200000000000003 Q 29.200000000000003 50 29.200000000000003 48 V 48 Q 29.200000000000003 46 31.200000000000003 46 Z" fill="#382619" stroke="#1b1614" stroke-width="1" />
<path d="M 36.85 35 H 38.35 Q 41.35 35 41.35 38 V 44 Q 41.35 47 38.35 47 H 36.85 Q 33.85 47 33.85 44 V 38 Q 33.85 35 36.85 35 Z" fill="url(#dwarf-pants)" stroke="#1b1614" stroke-width="1" />
<path d="M 36.35 37 H 38.85 Q 40.35 37 40.35 38.5 V 38.5 Q 40.35 40 38.85 40 H 36.35 Q 34.85 40 34.85 38.5 V 38.5 Q 34.85 37 36.35 37 Z" fill="#c99d50" opacity="0.12" />
<path d="M 36.6 46 H 38.6 Q 40.6 46 40.6 48 V 48 Q 40.6 50 38.6 50 H 36.6 Q 34.6 50 34.6 48 V 48 Q 34.6 46 36.6 46 Z" fill="#382619" stroke="#1b1614" stroke-width="1" />
<path d="M 29 24 H 35 Q 41 24 41 30 V 35 Q 41 41 35 41 H 29 Q 23 41 23 35 V 30 Q 23 24 29 24 Z" fill="url(#dwarf-shirt)" stroke="#1b1614" stroke-width="1.2" stroke-linejoin="round" />
<path d="M 27.5 28 H 36.5 Q 39 28 39 30.5 V 30.5 Q 39 33 36.5 33 H 27.5 Q 25 33 25 30.5 V 30.5 Q 25 28 27.5 28 Z" fill="#c99d50" opacity="0.75" />
<path d="M 25 20 H 39 Q 42 20 42 23 V 23 Q 42 26 39 26 H 25 Q 22 26 22 23 V 23 Q 22 20 25 20 Z" fill="#5c3c25" stroke="#1b1614" stroke-width="1" />
<path d="M 27.5 17 H 36.5 Q 40 17 40 20.5 V 20.5 Q 40 24 36.5 24 H 27.5 Q 24 24 24 20.5 V 20.5 Q 24 17 27.5 17 Z" fill="#8d6137" stroke="#1b1614" stroke-width="1" />
<ellipse cx="31" cy="11" rx="8" ry="8.5" fill="url(#dwarf-skin)" stroke="#1b1614" stroke-width="1.2" />
<path d="M 21 7 Q 31 -1, 41 7 L 39 13 Q 31 10, 23 13 Z" fill="#8d6137" stroke="#1b1614" stroke-width="1" />
<ellipse cx="31" cy="4" rx="11" ry="5" fill="#cfd6df" stroke="#1b1614" stroke-width="1" />
<rect x="24" y="5" width="14" height="2" rx="1" fill="#c99d50" opacity="0.7" />
<circle cx="28.4" cy="10.2" r="0.9" fill="#17131f" />
<circle cx="33.8" cy="10.2" r="0.9" fill="#17131f" />
<path d="M 29 13.6 Q 31 15.1 33 13.6" fill="none" stroke="#1b1614" stroke-width="1" stroke-linecap="round" />
<path d="
    M 40 16.5
    Q 42 26.5 31 29.5
    Q 20 26.5 22 16.5
    Q 26 21.5 31 19.5
    Q 36 21.5 40 16.5
    Z" fill="url(#dwarf-hair)" stroke="#1b1614" stroke-width="1" />
<g transform="translate(23 25) rotate(-10)"><path d="M -0.25 0 H 0.25 Q 3.25 0 3.25 3 V 7 Q 3.25 10 0.25 10 H -0.25 Q -3.25 10 -3.25 7 V 3 Q -3.25 0 -0.25 0 Z" fill="url(#dwarf-skin)" stroke="#1b1614" stroke-width="1" />
<path d="M -0.25 2 H 0.25 Q 2.25 2 2.25 4 V 4 Q 2.25 6 0.25 6 H -0.25 Q -2.25 6 -2.25 4 V 4 Q -2.25 2 -0.25 2 Z" fill="#d2a95e" opacity="0.8" /></g>
<g transform="translate(41 25) rotate(12)"><path d="M -0.25 -2 H 0.25 Q 3.25 -2 3.25 1 V 5 Q 3.25 8 0.25 8 H -0.25 Q -3.25 8 -3.25 5 V 1 Q -3.25 -2 -0.25 -2 Z" fill="url(#dwarf-skin)" stroke="#1b1614" stroke-width="1" />
<path d="M -0.25 0 H 0.25 Q 2.25 0 2.25 2 V 2 Q 2.25 4 0.25 4 H -0.25 Q -2.25 4 -2.25 2 V 2 Q -2.25 0 -0.25 0 Z" fill="#d2a95e" opacity="0.8" /></g>
<g transform="translate(34 25.8) rotate(8)"><rect x="-1" y="-4" width="2" height="12" rx="1" fill="#7a8794" stroke="#1b1614" stroke-width="0.8" />
<rect x="-7" y="-6" width="12" height="5" rx="2" fill="url(#dwarf-metal)" stroke="#1b1614" stroke-width="0.8" />
<rect x="-1" y="-7" width="2" height="16" rx="1" fill="#7a8794" opacity="0.25" /></g>
    </g>
  </g>
<g transform="translate(256,0)">
    <g transform="translate(64,0) scale(-1,1)">
      <ellipse cx="32" cy="55" rx="14" ry="4" fill="rgba(0,0,0,0.18)" />
      <ellipse cx="32" cy="53" rx="12" ry="3" fill="rgba(0,0,0,0.2)" opacity="0.45" />
<path d="M 40 26 C 48 31, 48 42, 40 50 C 35 43, 36 33, 40 26 Z" fill="#5a4b2c" opacity="0.95" />
<path d="M 26.65 36.5 H 28.15 Q 31.15 36.5 31.15 39.5 V 45.5 Q 31.15 48.5 28.15 48.5 H 26.65 Q 23.65 48.5 23.65 45.5 V 39.5 Q 23.65 36.5 26.65 36.5 Z" fill="url(#dwarf-pants)" stroke="#1b1614" stroke-width="1" />
<path d="M 26.15 38.5 H 28.65 Q 30.15 38.5 30.15 40 V 40 Q 30.15 41.5 28.65 41.5 H 26.15 Q 24.65 41.5 24.65 40 V 40 Q 24.65 38.5 26.15 38.5 Z" fill="#c99d50" opacity="0.12" />
<path d="M 26.4 49 H 28.4 Q 30.4 49 30.4 51 V 51 Q 30.4 53 28.4 53 H 26.4 Q 24.4 53 24.4 51 V 51 Q 24.4 49 26.4 49 Z" fill="#382619" stroke="#1b1614" stroke-width="1" />
<path d="M 35.25 38 H 36.75 Q 39.75 38 39.75 41 V 47 Q 39.75 50 36.75 50 H 35.25 Q 32.25 50 32.25 47 V 41 Q 32.25 38 35.25 38 Z" fill="url(#dwarf-pants)" stroke="#1b1614" stroke-width="1" />
<path d="M 34.75 40 H 37.25 Q 38.75 40 38.75 41.5 V 41.5 Q 38.75 43 37.25 43 H 34.75 Q 33.25 43 33.25 41.5 V 41.5 Q 33.25 40 34.75 40 Z" fill="#c99d50" opacity="0.12" />
<path d="M 35 49 H 37 Q 39 49 39 51 V 51 Q 39 53 37 53 H 35 Q 33 53 33 51 V 51 Q 33 49 35 49 Z" fill="#382619" stroke="#1b1614" stroke-width="1" />
<path d="M 29 27 H 35 Q 41 27 41 33 V 38 Q 41 44 35 44 H 29 Q 23 44 23 38 V 33 Q 23 27 29 27 Z" fill="url(#dwarf-shirt)" stroke="#1b1614" stroke-width="1.2" stroke-linejoin="round" />
<path d="M 27.5 31 H 36.5 Q 39 31 39 33.5 V 33.5 Q 39 36 36.5 36 H 27.5 Q 25 36 25 33.5 V 33.5 Q 25 31 27.5 31 Z" fill="#c99d50" opacity="0.75" />
<path d="M 25 23 H 39 Q 42 23 42 26 V 26 Q 42 29 39 29 H 25 Q 22 29 22 26 V 26 Q 22 23 25 23 Z" fill="#5c3c25" stroke="#1b1614" stroke-width="1" />
<path d="M 27.5 20 H 36.5 Q 40 20 40 23.5 V 23.5 Q 40 27 36.5 27 H 27.5 Q 24 27 24 23.5 V 23.5 Q 24 20 27.5 20 Z" fill="#8d6137" stroke="#1b1614" stroke-width="1" />
<ellipse cx="31" cy="12" rx="8" ry="8.5" fill="url(#dwarf-skin)" stroke="#1b1614" stroke-width="1.2" />
<path d="M 21 8 Q 31 0, 41 8 L 39 14 Q 31 11, 23 14 Z" fill="#8d6137" stroke="#1b1614" stroke-width="1" />
<ellipse cx="31" cy="5" rx="11" ry="5" fill="#cfd6df" stroke="#1b1614" stroke-width="1" />
<rect x="24" y="6" width="14" height="2" rx="1" fill="#c99d50" opacity="0.7" />
<circle cx="28.4" cy="11.2" r="0.9" fill="#17131f" />
<circle cx="33.8" cy="11.2" r="0.9" fill="#17131f" />
<path d="M 29 14.6 Q 31 16.1 33 14.6" fill="none" stroke="#1b1614" stroke-width="1" stroke-linecap="round" />
<path d="
    M 40 17.5
    Q 42 27.5 31 30.5
    Q 20 27.5 22 17.5
    Q 26 22.5 31 20.5
    Q 36 22.5 40 17.5
    Z" fill="url(#dwarf-hair)" stroke="#1b1614" stroke-width="1" />
<g transform="translate(23.8 28) rotate(-10)"><path d="M -0.25 0 H 0.25 Q 3.25 0 3.25 3 V 7 Q 3.25 10 0.25 10 H -0.25 Q -3.25 10 -3.25 7 V 3 Q -3.25 0 -0.25 0 Z" fill="url(#dwarf-skin)" stroke="#1b1614" stroke-width="1" />
<path d="M -0.25 2 H 0.25 Q 2.25 2 2.25 4 V 4 Q 2.25 6 0.25 6 H -0.25 Q -2.25 6 -2.25 4 V 4 Q -2.25 2 -0.25 2 Z" fill="#d2a95e" opacity="0.8" /></g>
<g transform="translate(39.8 28) rotate(12)"><path d="M -0.25 -2 H 0.25 Q 3.25 -2 3.25 1 V 5 Q 3.25 8 0.25 8 H -0.25 Q -3.25 8 -3.25 5 V 1 Q -3.25 -2 -0.25 -2 Z" fill="url(#dwarf-skin)" stroke="#1b1614" stroke-width="1" />
<path d="M -0.25 0 H 0.25 Q 2.25 0 2.25 2 V 2 Q 2.25 4 0.25 4 H -0.25 Q -2.25 4 -2.25 2 V 2 Q -2.25 0 -0.25 0 Z" fill="#d2a95e" opacity="0.8" /></g>
<g transform="translate(32.8 29.2) rotate(8)"><rect x="-1" y="-4" width="2" height="12" rx="1" fill="#7a8794" stroke="#1b1614" stroke-width="0.8" />
<rect x="-7" y="-6" width="12" height="5" rx="2" fill="url(#dwarf-metal)" stroke="#1b1614" stroke-width="0.8" />
<rect x="-1" y="-7" width="2" height="16" rx="1" fill="#7a8794" opacity="0.25" /></g>
    </g>
  </g>
</svg>
