<?xml version="1.0" encoding="UTF-8"?>
<svg xmlns="http://www.w3.org/2000/svg" viewBox="0 0 448 64" width="448" height="64" shape-rendering="geometricPrecision">
  
    <defs>
      <linearGradient id="dwarf-shirt" x1="0%" y1="0%" x2="100%" y2="100%">
        <stop offset="0%" stop-color="#d2a95e" />
        <stop offset="100%" stop-color="#9e7b41" />
      </linearGradient>
      <linearGradient id="dwarf-skin" x1="0%" y1="0%" x2="100%" y2="100%">
        <stop offset="0%" stop-color="#e4b07b" />
        <stop offset="100%" stop-color="#d29e69" />
      </linearGradient>
      <linearGradient id="dwarf-hair" x1="0%" y1="0%" x2="100%" y2="100%">
        <stop offset="0%" stop-color="#8d6137" />
        <stop offset="100%" stop-color="#5c3c25" />
      </linearGradient>
      <linearGradient id="dwarf-pants" x1="0%" y1="0%" x2="100%" y2="100%">
        <stop offset="0%" stop-color="#544131" />
        <stop offset="100%" stop-color="#443121" />
      </linearGradient>
      <linearGradient id="dwarf-metal" x1="0%" y1="0%" x2="100%" y2="100%">
        <stop offset="0%" stop-color="#cfd6df" />
        <stop offset="100%" stop-color="#7a8794" />
      </linearGradient>
      <filter id="dwarf-shadow" x="-50%" y="-50%" width="200%" height="200%">
        <feGaussianBlur stdDeviation="1.2" />
      </filter>
    </defs>
  
  <rect width="100%" height="100%" fill="transparent" />
  <g transform="translate(0,0)">
    <g transform="translate(64,0) scale(-1,1)">
      <ellipse cx="32" cy="55" rx="14" ry="4" fill="rgba(0,0,0,0.18)" />
      <ellipse cx="32" cy="51" rx="12" ry="3" fill="rgba(0,0,0,0.2)" opacity="0.45" />
<path d="M 40 26 C 48 31, 48 42, 40 50 C 35 43, 36 33, 40 26 Z" fill="#5a4b2c" opacity="0.95" />
<path d="M 31.450000000000003 33.5 H 32.95 Q 35.95 33.5 35.95 36.5 V 42.5 Q 35.95 45.5 32.95 45.5 H 31.450000000000003 Q 28.450000000000003 45.5 28.450000000000003 42.5 V 36.5 Q 28.450000000000003 33.5 31.450000000000003 33.5 Z" fill="url(#dwarf-pants)" stroke="#1b1614" stroke-width="1" />
<path d="M 30.950000000000003 35.5 H 33.45 Q 34.95 35.5 34.95 37 V 37 Q 34.95 38.5 33.45 38.5 H 30.950000000000003 Q 29.450000000000003 38.5 29.450000000000003 37 V 37 Q 29.450000000000003 35.5 30.950000000000003 35.5 Z" fill="#c99d50" opacity="0.12" />
<path d="M 31.200000000000003 46 H 33.2 Q 35.2 46 35.2 48 V 48 Q 35.2 50 33.2 50 H 31.200000000000003 Q 29.200000000000003 50 29.200000000000003 48 V 48 Q 29.200000000000003 46 31.200000000000003 46 Z" fill="#382619" stroke="#1b1614" stroke-width="1" />
<path d="M 32.05 35 H 33.55 Q 36.55 35 36.55 38 V 44 Q 36.55 47 33.55 47 H 32.05 Q 29.049999999999997 47 29.049999999999997 44 V 38 Q 29.049999999999997 35 32.05 35 Z" fill="url(#dwarf-pants)" stroke="#1b1614" stroke-width="1" />
<path d="M 31.549999999999997 37 H 34.05 Q 35.55 37 35.55 38.5 V 38.5 Q 35.55 40 34.05 40 H 31.549999999999997 Q 30.049999999999997 40 30.049999999999997 38.5 V 38.5 Q 30.049999999999997 37 31.549999999999997 37 Z" fill="#c99d50" opacity="0.12" />
<path d="M 31.799999999999997 46 H 33.8 Q 35.8 46 35.8 48 V 48 Q 35.8 50 33.8 50 H 31.799999999999997 Q 29.799999999999997 50 29.799999999999997 48 V 48 Q 29.799999999999997 46 31.799999999999997 46 Z" fill="#382619" stroke="#1b1614" stroke-width="1" />
<path d="M 31 24 H 37 Q 43 24 43 30 V 35 Q 43 41 37 41 H 31 Q 25 41 25 35 V 30 Q 25 24 31 24 Z" fill="url(#dwarf-shirt)" stroke="#1b1614" stroke-width="1.2" stroke-linejoin="round" />
<path d="M 29.5 28 H 38.5 Q 41 28 41 30.5 V 30.5 Q 41 33 38.5 33 H 29.5 Q 27 33 27 30.5 V 30.5 Q 27 28 29.5 28 Z" fill="#c99d50" opacity="0.75" />
<path d="M 27 20 H 41 Q 44 20 44 23 V 23 Q 44 26 41 26 H 27 Q 24 26 24 23 V 23 Q 24 20 27 20 Z" fill="#5c3c25" stroke="#1b1614" stroke-width="1" />
<path d="M 29.5 17 H 38.5 Q 42 17 42 20.5 V 20.5 Q 42 24 38.5 24 H 29.5 Q 26 24 26 20.5 V 20.5 Q 26 17 29.5 17 Z" fill="#8d6137" stroke="#1b1614" stroke-width="1" />
<ellipse cx="31" cy="11" rx="8" ry="8.5" fill="url(#dwarf-skin)" stroke="#1b1614" stroke-width="1.2" />
<path d="M 21 7 Q 31 -1, 41 7 L 39 13 Q 31 10, 23 13 Z" fill="#8d6137" stroke="#1b1614" stroke-width="1" />
<ellipse cx="31" cy="4" rx="11" ry="5" fill="#cfd6df" stroke="#1b1614" stroke-width="1" />
<rect x="24" y="5" width="14" height="2" rx="1" fill="#c99d50" opacity="0.7" />
<circle cx="28.4" cy="10.2" r="0.9" fill="#17131f" />
<circle cx="33.8" cy="10.2" r="0.9" fill="#17131f" />
<path d="M 29 13.6 Q 31 15.1 33 13.6" fill="none" stroke="#1b1614" stroke-width="1" stroke-linecap="round" />
<path d="
    M 40 16.5
    Q 42 26.5 31 29.5
    Q 20 26.5 22 16.5
    Q 26 21.5 31 19.5
    Q 36 21.5 40 16.5
    Z" fill="url(#dwarf-hair)" stroke="#1b1614" stroke-width="1" />
<g transform="translate(22.2 25) rotate(-10)"><path d="M -0.25 0 H 0.25 Q 3.25 0 3.25 3 V 7 Q 3.25 10 0.25 10 H -0.25 Q -3.25 10 -3.25 7 V 3 Q -3.25 0 -0.25 0 Z" fill="url(#dwarf-skin)" stroke="#1b1614" stroke-width="1" />
<path d="M -0.25 2 H 0.25 Q 2.25 2 2.25 4 V 4 Q 2.25 6 0.25 6 H -0.25 Q -2.25 6 -2.25 4 V 4 Q -2.25 2 -0.25 2 Z" fill="#d2a95e" opacity="0.8" /></g>
<g transform="translate(42.2 25) rotate(12)"><path d="M -0.25 -2 H 0.25 Q 3.25 -2 3.25 1 V 5 Q 3.25 8 0.25 8 H -0.25 Q -3.25 8 -3.25 5 V 1 Q -3.25 -2 -0.25 -2 Z" fill="url(#dwarf-skin)" stroke="#1b1614" stroke-width="1" />
<path d="M -0.25 0 H 0.25 Q 2.25 0 2.25 2 V 2 Q 2.25 4 0.25 4 H -0.25 Q -2.25 4 -2.25 2 V 2 Q -2.25 0 -0.25 0 Z" fill="#d2a95e" opacity="0.8" /></g>
<g transform="translate(35.2 25.8) rotate(8)"><rect x="-1" y="-4" width="2" height="12" rx="1" fill="#7a8794" stroke="#1b1614" stroke-width="0.8" />
<rect x="-7" y="-6" width="12" height="5" rx="2" fill="url(#dwarf-metal)" stroke="#1b1614" stroke-width="0.8" />
<rect x="-1" y="-7" width="2" height="16" rx="1" fill="#7a8794" opacity="0.25" /></g>
    </g>
  </g>
<g transform="translate(64,0)">
    <g transform="translate(64,0) scale(-1,1)">
      <ellipse cx="32" cy="55" rx="14" ry="4" fill="rgba(0,0,0,0.18)" />
      <ellipse cx="32" cy="52" rx="12" ry="3" fill="rgba(0,0,0,0.2)" opacity="0.45" />
<path d="M 40 26 C 48 31, 48 42, 40 50 C 35 43, 36 33, 40 26 Z" fill="#5a4b2c" opacity="0.95" />
<path d="M 29.85 34.5 H 31.35 Q 34.35 34.5 34.35 37.5 V 43.5 Q 34.35 46.5 31.35 46.5 H 29.85 Q 26.85 46.5 26.85 43.5 V 37.5 Q 26.85 34.5 29.85 34.5 Z" fill="url(#dwarf-pants)" stroke="#1b1614" stroke-width="1" />
<path d="M 29.35 36.5 H 31.85 Q 33.35 36.5 33.35 38 V 38 Q 33.35 39.5 31.85 39.5 H 29.35 Q 27.85 39.5 27.85 38 V 38 Q 27.85 36.5 29.35 36.5 Z" fill="#c99d50" opacity="0.12" />
<path d="M 29.6 47 H 31.6 Q 33.6 47 33.6 49 V 49 Q 33.6 51 31.6 51 H 29.6 Q 27.6 51 27.6 49 V 49 Q 27.6 47 29.6 47 Z" fill="#382619" stroke="#1b1614" stroke-width="1" />
<path d="M 33.65 36 H 35.15 Q 38.15 36 38.15 39 V 45 Q 38.15 48 35.15 48 H 33.65 Q 30.65 48 30.65 45 V 39 Q 30.65 36 33.65 36 Z" fill="url(#dwarf-pants)" stroke="#1b1614" stroke-width="1" />
<path d="M 33.15 38 H 35.65 Q 37.15 38 37.15 39.5 V 39.5 Q 37.15 41 35.65 41 H 33.15 Q 31.65 41 31.65 39.5 V 39.5 Q 31.65 38 33.15 38 Z" fill="#c99d50" opacity="0.12" />
<path d="M 33.4 47 H 35.4 Q 37.4 47 37.4 49 V 49 Q 37.4 51 35.4 51 H 33.4 Q 31.4 51 31.4 49 V 49 Q 31.4 47 33.4 47 Z" fill="#382619" stroke="#1b1614" stroke-width="1" />
<path d="M 29 25 H 35 Q 41 25 41 31 V 36 Q 41 42 35 42 H 29 Q 23 42 23 36 V 31 Q 23 25 29 25 Z" fill="url(#dwarf-shirt)" stroke="#1b1614" stroke-width="1.2" stroke-linejoin="round" />
<path d="M 27.5 29 H 36.5 Q 39 29 39 31.5 V 31.5 Q 39 34 36.5 34 H 27.5 Q 25 34 25 31.5 V 31.5 Q 25 29 27.5 29 Z" fill="#c99d50" opacity="0.75" />
<path d="M 25 21 H 39 Q 42 21 42 24 V 24 Q 42 27 39 27 H 25 Q 22 27 22 24 V 24 Q 22 21 25 21 Z" fill="#5c3c25" stroke="#1b1614" stroke-width="1" />
<path d="M 27.5 18 H 36.5 Q 40 18 40 21.5 V 21.5 Q 40 25 36.5 25 H 27.5 Q 24 25 24 21.5 V 21.5 Q 24 18 27.5 18 Z" fill="#8d6137" stroke="#1b1614" stroke-width="1" />
<ellipse cx="31" cy="12" rx="8" ry="8.5" fill="url(#dwarf-skin)" stroke="#1b1614" stroke-width="1.2" />
<path d="M 21 8 Q 31 0, 41 8 L 39 14 Q 31 11, 23 14 Z" fill="#8d6137" stroke="#1b1614" stroke-width="1" />
<ellipse cx="31" cy="5" rx="11" ry="5" fill="#cfd6df" stroke="#1b1614" stroke-width="1" />
<rect x="24" y="6" width="14" height="2" rx="1" fill="#c99d50" opacity="0.7" />
<circle cx="28.4" cy="11.2" r="0.9" fill="#17131f" />
<circle cx="33.8" cy="11.2" r="0.9" fill="#17131f" />
<path d="M 29 14.6 Q 31 16.1 33 14.6" fill="none" stroke="#1b1614" stroke-width="1" stroke-linecap="round" />
<path d="
    M 40 17.5
    Q 42 27.5 31 30.5
    Q 20 27.5 22 17.5
    Q 26 22.5 31 20.5
    Q 36 22.5 40 17.5
    Z" fill="url(#dwarf-hair)" stroke="#1b1614" stroke-width="1" />
<g transform="translate(21.4 26) rotate(-10)"><path d="M -0.25 0 H 0.25 Q 3.25 0 3.25 3 V 7 Q 3.25 10 0.25 10 H -0.25 Q -3.25 10 -3.25 7 V 3 Q -3.25 0 -0.25 0 Z" fill="url(#dwarf-skin)" stroke="#1b1614" stroke-width="1" />
<path d="M -0.25 2 H 0.25 Q 2.25 2 2.25 4 V 4 Q 2.25 6 0.25 6 H -0.25 Q -2.25 6 -2.25 4 V 4 Q -2.25 2 -0.25 2 Z" fill="#d2a95e" opacity="0.8" /></g>
<g transform="translate(43.4 26) rotate(12)"><path d="M -0.25 -2 H 0.25 Q 3.25 -2 3.25 1 V 5 Q 3.25 8 0.25 8 H -0.25 Q -3.25 8 -3.25 5 V 1 Q -3.25 -2 -0.25 -2 Z" fill="url(#dwarf-skin)" stroke="#1b1614" stroke-width="1" />
<path d="M -0.25 0 H 0.25 Q 2.25 0 2.25 2 V 2 Q 2.25 4 0.25 4 H -0.25 Q -2.25 4 -2.25 2 V 2 Q -2.25 0 -0.25 0 Z" fill="#d2a95e" opacity="0.8" /></g>
<g transform="translate(36.4 27) rotate(8)"><rect x="-1" y="-4" width="2" height="12" rx="1" fill="#7a8794" stroke="#1b1614" stroke-width="0.8" />
<rect x="-7" y="-6" width="12" height="5" rx="2" fill="url(#dwarf-metal)" stroke="#1b1614" stroke-width="0.8" />
<rect x="-1" y="-7" width="2" height="16" rx="1" fill="#7a8794" opacity="0.25" /></g>
    </g>
  </g>
<g transform="translate(128,0)">
    <g transform="translate(64,0) scale(-1,1)">
      <ellipse cx="32" cy="55" rx="14" ry="4" fill="rgba(0,0,0,0.18)" />
      <ellipse cx="32" cy="52" rx="12" ry="3" fill="rgba(0,0,0,0.2)" opacity="0.45" />
<path d="M 40 26 C 48 31, 48 42, 40 50 C 35 43, 36 33, 40 26 Z" fill="#5a4b2c" opacity="0.95" />
<path d="M 31.450000000000003 34.5 H 32.95 Q 35.95 34.5 35.95 37.5 V 43.5 Q 35.95 46.5 32.95 46.5 H 31.450000000000003 Q 28.450000000000003 46.5 28.450000000000003 43.5 V 37.5 Q 28.450000000000003 34.5 31.450000000000003 34.5 Z" fill="url(#dwarf-pants)" stroke="#1b1614" stroke-width="1" />
<path d="M 30.950000000000003 36.5 H 33.45 Q 34.95 36.5 34.95 38 V 38 Q 34.95 39.5 33.45 39.5 H 30.950000000000003 Q 29.450000000000003 39.5 29.450000000000003 38 V 38 Q 29.450000000000003 36.5 30.950000000000003 36.5 Z" fill="#c99d50" opacity="0.12" />
<path d="M 31.200000000000003 47 H 33.2 Q 35.2 47 35.2 49 V 49 Q 35.2 51 33.2 51 H 31.200000000000003 Q 29.200000000000003 51 29.200000000000003 49 V 49 Q 29.200000000000003 47 31.200000000000003 47 Z" fill="#382619" stroke="#1b1614" stroke-width="1" />
<path d="M 35.25 36 H 36.75 Q 39.75 36 39.75 39 V 45 Q 39.75 48 36.75 48 H 35.25 Q 32.25 48 32.25 45 V 39 Q 32.25 36 35.25 36 Z" fill="url(#dwarf-pants)" stroke="#1b1614" stroke-width="1" />
<path d="M 34.75 38 H 37.25 Q 38.75 38 38.75 39.5 V 39.5 Q 38.75 41 37.25 41 H 34.75 Q 33.25 41 33.25 39.5 V 39.5 Q 33.25 38 34.75 38 Z" fill="#c99d50" opacity="0.12" />
<path d="M 35 47 H 37 Q 39 47 39 49 V 49 Q 39 51 37 51 H 35 Q 33 51 33 49 V 49 Q 33 47 35 47 Z" fill="#382619" stroke="#1b1614" stroke-width="1" />
<path d="M 27 25 H 33 Q 39 25 39 31 V 36 Q 39 42 33 42 H 27 Q 21 42 21 36 V 31 Q 21 25 27 25 Z" fill="url(#dwarf-shirt)" stroke="#1b1614" stroke-width="1.2" stroke-linejoin="round" />
<path d="M 25.5 29 H 34.5 Q 37 29 37 31.5 V 31.5 Q 37 34 34.5 34 H 25.5 Q 23 34 23 31.5 V 31.5 Q 23 29 25.5 29 Z" fill="#c99d50" opacity="0.75" />
<path d="M 23 21 H 37 Q 40 21 40 24 V 24 Q 40 27 37 27 H 23 Q 20 27 20 24 V 24 Q 20 21 23 21 Z" fill="#5c3c25" stroke="#1b1614" stroke-width="1" />
<path d="M 25.5 18 H 34.5 Q 38 18 38 21.5 V 21.5 Q 38 25 34.5 25 H 25.5 Q 22 25 22 21.5 V 21.5 Q 22 18 25.5 18 Z" fill="#8d6137" stroke="#1b1614" stroke-width="1" />
<ellipse cx="31" cy="12" rx="8" ry="8.5" fill="url(#dwarf-skin)" stroke="#1b1614" stroke-width="1.2" />
<path d="M 21 8 Q 31 0, 41 8 L 39 14 Q 31 11, 23 14 Z" fill="#8d6137" stroke="#1b1614" stroke-width="1" />
<ellipse cx="31" cy="5" rx="11" ry="5" fill="#cfd6df" stroke="#1b1614" stroke-width="1" />
<rect x="24" y="6" width="14" height="2" rx="1" fill="#c99d50" opacity="0.7" />
<circle cx="28.4" cy="11.2" r="0.9" fill="#17131f" />
<circle cx="33.8" cy="11.2" r="0.9" fill="#17131f" />
<path d="M 29 14.6 Q 31 16.1 33 14.6" fill="none" stroke="#1b1614" stroke-width="1" stroke-linecap="round" />
<path d="
    M 40 17.5
    Q 42 27.5 31 30.5
    Q 20 27.5 22 17.5
    Q 26 22.5 31 20.5
    Q 36 22.5 40 17.5
    Z" fill="url(#dwarf-hair)" stroke="#1b1614" stroke-width="1" />
<g transform="translate(22.2 26) rotate(-10)"><path d="M -0.25 0 H 0.25 Q 3.25 0 3.25 3 V 7 Q 3.25 10 0.25 10 H -0.25 Q -3.25 10 -3.25 7 V 3 Q -3.25 0 -0.25 0 Z" fill="url(#dwarf-skin)" stroke="#1b1614" stroke-width="1" />
<path d="M -0.25 2 H 0.25 Q 2.25 2 2.25 4 V 4 Q 2.25 6 0.25 6 H -0.25 Q -2.25 6 -2.25 4 V 4 Q -2.25 2 -0.25 2 Z" fill="#d2a95e" opacity="0.8" /></g>
<g transform="translate(42.2 26) rotate(12)"><path d="M -0.25 -2 H 0.25 Q 3.25 -2 3.25 1 V 5 Q 3.25 8 0.25 8 H -0.25 Q -3.25 8 -3.25 5 V 1 Q -3.25 -2 -0.25 -2 Z" fill="url(#dwarf-skin)" stroke="#1b1614" stroke-width="1" />
<path d="M -0.25 0 H 0.25 Q 2.25 0 2.25 2 V 2 Q 2.25 4 0.25 4 H -0.25 Q -2.25 4 -2.25 2 V 2 Q -2.25 0 -0.25 0 Z" fill="#d2a95e" opacity="0.8" /></g>
<g transform="translate(35.2 27) rotate(8)"><rect x="-1" y="-4" width="2" height="12" rx="1" fill="#7a8794" stroke="#1b1614" stroke-width="0.8" />
<rect x="-7" y="-6" width="12" height="5" rx="2" fill="url(#dwarf-metal)" stroke="#1b1614" stroke-width="0.8" />
<rect x="-1" y="-7" width="2" height="16" rx="1" fill="#7a8794" opacity="0.25" /></g>
    </g>
  </g>
<g transform="translate(192,0)">
    <g transform="translate(64,0) scale(-1,1)">
      <ellipse cx="32" cy="55" rx="14" ry="4" fill="rgba(0,0,0,0.18)" />
      <ellipse cx="32" cy="51" rx="12" ry="3" fill="rgba(0,0,0,0.2)" opacity="0.45" />
<path d="M 40 26 C 48 31, 48 42, 40 50 C 35 43, 36 33, 40 26 Z" fill="#5a4b2c" opacity="0.95" />
<path d="M 28.25 33.5 H 29.75 Q 32.75 33.5 32.75 36.5 V 42.5 Q 32.75 45.5 29.75 45.5 H 28.25 Q 25.25 45.5 25.25 42.5 V 36.5 Q 25.25 33.5 28.25 33.5 Z" fill="url(#dwarf-pants)" stroke="#1b1614" stroke-width="1" />
<path d="M 27.75 35.5 H 30.25 Q 31.75 35.5 31.75 37 V 37 Q 31.75 38.5 30.25 38.5 H 27.75 Q 26.25 38.5 26.25 37 V 37 Q 26.25 35.5 27.75 35.5 Z" fill="#c99d50" opacity="0.12" />
<path d="M 28 46 H 30 Q 32 46 32 48 V 48 Q 32 50 30 50 H 28 Q 26 50 26 48 V 48 Q 26 46 28 46 Z" fill="#382619" stroke="#1b1614" stroke-width="1" />
<path d="M 36.85 35 H 38.35 Q 41.35 35 41.35 38 V 44 Q 41.35 47 38.35 47 H 36.85 Q 33.85 47 33.85 44 V 38 Q 33.85 35 36.85 35 Z" fill="url(#dwarf-pants)" stroke="#1b1614" stroke-width="1" />
<path d="M 36.35 37 H 38.85 Q 40.35 37 40.35 38.5 V 38.5 Q 40.35 40 38.85 40 H 36.35 Q 34.85 40 34.85 38.5 V 38.5 Q 34.85 37 36.35 37 Z" fill="#c99d50" opacity="0.12" />
<path d="M 36.6 46 H 38.6 Q 40.6 46 40.6 48 V 48 Q 40.6 50 38.6 50 H 36.6 Q 34.6 50 34.6 48 V 48 Q 34.6 46 36.6 46 Z" fill="#382619" stroke="#1b1614" stroke-width="1" />
<path d="M 27 24 H 33 Q 39 24 39 30 V 35 Q 39 41 33 41 H 27 Q 21 41 21 35 V 30 Q 21 24 27 24 Z" fill="url(#dwarf-shirt)" stroke="#1b1614" stroke-width="1.2" stroke-linejoin="round" />
<path d="M 25.5 28 H 34.5 Q 37 28 37 30.5 V 30.5 Q 37 33 34.5 33 H 25.5 Q 23 33 23 30.5 V 30.5 Q 23 28 25.5 28 Z" fill="#c99d50" opacity="0.75" />
<path d="M 23 20 H 37 Q 40 20 40 23 V 23 Q 40 26 37 26 H 23 Q 20 26 20 23 V 23 Q 20 20 23 20 Z" fill="#5c3c25" stroke="#1b1614" stroke-width="1" />
<path d="M 25.5 17 H 34.5 Q 38 17 38 20.5 V 20.5 Q 38 24 34.5 24 H 25.5 Q 22 24 22 20.5 V 20.5 Q 22 17 25.5 17 Z" fill="#8d6137" stroke="#1b1614" stroke-width="1" />
<ellipse cx="31" cy="11" rx="8" ry="8.5" fill="url(#dwarf-skin)" stroke="#1b1614" stroke-width="1.2" />
<path d="M 21 7 Q 31 -1, 41 7 L 39 13 Q 31 10, 23 13 Z" fill="#8d6137" stroke="#1b1614" stroke-width="1" />
<ellipse cx="31" cy="4" rx="11" ry="5" fill="#cfd6df" stroke="#1b1614" stroke-width="1" />
<rect x="24" y="5" width="14" height="2" rx="1" fill="#c99d50" opacity="0.7" />
<circle cx="28.4" cy="10.2" r="0.9" fill="#17131f" />
<circle cx="33.8" cy="10.2" r="0.9" fill="#17131f" />
<path d="M 29 13.6 Q 31 15.1 33 13.6" fill="none" stroke="#1b1614" stroke-width="1" stroke-linecap="round" />
<path d="
    M 40 16.5
    Q 42 26.5 31 29.5
    Q 20 26.5 22 16.5
    Q 26 21.5 31 19.5
    Q 36 21.5 40 16.5
    Z" fill="url(#dwarf-hair)" stroke="#1b1614" stroke-width="1" />
<g transform="translate(23 25) rotate(-10)"><path d="M -0.25 0 H 0.25 Q 3.25 0 3.25 3 V 7 Q 3.25 10 0.25 10 H -0.25 Q -3.25 10 -3.25 7 V 3 Q -3.25 0 -0.25 0 Z" fill="url(#dwarf-skin)" stroke="#1b1614" stroke-width="1" />
<path d="M -0.25 2 H 0.25 Q 2.25 2 2.25 4 V 4 Q 2.25 6 0.25 6 H -0.25 Q -2.25 6 -2.25 4 V 4 Q -2.25 2 -0.25 2 Z" fill="#d2a95e" opacity="0.8" /></g>
<g transform="translate(41 25) rotate(12)"><path d="M -0.25 -2 H 0.25 Q 3.25 -2 3.25 1 V 5 Q 3.25 8 0.25 8 H -0.25 Q -3.25 8 -3.25 5 V 1 Q -3.25 -2 -0.25 -2 Z" fill="url(#dwarf-skin)" stroke="#1b1614" stroke-width="1" />
<path d="M -0.25 0 H 0.25 Q 2.25 0 2.25 2 V 2 Q 2.25 4 0.25 4 H -0.25 Q -2.25 4 -2.25 2 V 2 Q -2.25 0 -0.25 0 Z" fill="#d2a95e" opacity="0.8" /></g>
<g transform="translate(34 25.8) rotate(8)"><rect x="-1" y="-4" width="2" height="12" rx="1" fill="#7a8794" stroke="#1b1614" stroke-width="0.8" />
<rect x="-7" y="-6" width="12" height="5" rx="2" fill="url(#dwarf-metal)" stroke="#1b1614" stroke-width="0.8" />
<rect x="-1" y="-7" width="2" height="16" rx="1" fill="#7a8794" opacity="0.25" /></g>
    </g>
  </g>
<g transform="translate(256,0)">
    <g transform="translate(64,0) scale(-1,1)">
      <ellipse cx="32" cy="55" rx="14" ry="4" fill="rgba(0,0,0,0.18)" />
      <ellipse cx="32" cy="52" rx="12" ry="3" fill="rgba(0,0,0,0.2)" opacity="0.45" />
<path d="M 40 26 C 48 31, 48 42, 40 50 C 35 43, 36 33, 40 26 Z" fill="#5a4b2c" opacity="0.95" />
<path d="M 26.65 34.5 H 28.15 Q 31.15 34.5 31.15 37.5 V 43.5 Q 31.15 46.5 28.15 46.5 H 26.65 Q 23.65 46.5 23.65 43.5 V 37.5 Q 23.65 34.5 26.65 34.5 Z" fill="url(#dwarf-pants)" stroke="#1b1614" stroke-width="1" />
<path d="M 26.15 36.5 H 28.65 Q 30.15 36.5 30.15 38 V 38 Q 30.15 39.5 28.65 39.5 H 26.15 Q 24.65 39.5 24.65 38 V 38 Q 24.65 36.5 26.15 36.5 Z" fill="#c99d50" opacity="0.12" />
<path d="M 26.4 47 H 28.4 Q 30.4 47 30.4 49 V 49 Q 30.4 51 28.4 51 H 26.4 Q 24.4 51 24.4 49 V 49 Q 24.4 47 26.4 47 Z" fill="#382619" stroke="#1b1614" stroke-width="1" />
<path d="M 38.45 36 H 39.95 Q 42.95 36 42.95 39 V 45 Q 42.95 48 39.95 48 H 38.45 Q 35.45 48 35.45 45 V 39 Q 35.45 36 38.45 36 Z" fill="url(#dwarf-pants)" stroke="#1b1614" stroke-width="1" />
<path d="M 37.95 38 H 40.45 Q 41.95 38 41.95 39.5 V 39.5 Q 41.95 41 40.45 41 H 37.95 Q 36.45 41 36.45 39.5 V 39.5 Q 36.45 38 37.95 38 Z" fill="#c99d50" opacity="0.12" />
<path d="M 38.2 47 H 40.2 Q 42.2 47 42.2 49 V 49 Q 42.2 51 40.2 51 H 38.2 Q 36.2 51 36.2 49 V 49 Q 36.2 47 38.2 47 Z" fill="#382619" stroke="#1b1614" stroke-width="1" />
<path d="M 29 25 H 35 Q 41 25 41 31 V 36 Q 41 42 35 42 H 29 Q 23 42 23 36 V 31 Q 23 25 29 25 Z" fill="url(#dwarf-shirt)" stroke="#1b1614" stroke-width="1.2" stroke-linejoin="round" />
<path d="M 27.5 29 H 36.5 Q 39 29 39 31.5 V 31.5 Q 39 34 36.5 34 H 27.5 Q 25 34 25 31.5 V 31.5 Q 25 29 27.5 29 Z" fill="#c99d50" opacity="0.75" />
<path d="M 25 21 H 39 Q 42 21 42 24 V 24 Q 42 27 39 27 H 25 Q 22 27 22 24 V 24 Q 22 21 25 21 Z" fill="#5c3c25" stroke="#1b1614" stroke-width="1" />
<path d="M 27.5 18 H 36.5 Q 40 18 40 21.5 V 21.5 Q 40 25 36.5 25 H 27.5 Q 24 25 24 21.5 V 21.5 Q 24 18 27.5 18 Z" fill="#8d6137" stroke="#1b1614" stroke-width="1" />
<ellipse cx="31" cy="12" rx="8" ry="8.5" fill="url(#dwarf-skin)" stroke="#1b1614" stroke-width="1.2" />
<path d="M 21 8 Q 31 0, 41 8 L 39 14 Q 31 11, 23 14 Z" fill="#8d6137" stroke="#1b1614" stroke-width="1" />
<ellipse cx="31" cy="5" rx="11" ry="5" fill="#cfd6df" stroke="#1b1614" stroke-width="1" />
<rect x="24" y="6" width="14" height="2" rx="1" fill="#c99d50" opacity="0.7" />
<circle cx="28.4" cy="11.2" r="0.9" fill="#17131f" />
<circle cx="33.8" cy="11.2" r="0.9" fill="#17131f" />
<path d="M 29 14.6 Q 31 16.1 33 14.6" fill="none" stroke="#1b1614" stroke-width="1" stroke-linecap="round" />
<path d="
    M 40 17.5
    Q 42 27.5 31 30.5
    Q 20 27.5 22 17.5
    Q 26 22.5 31 20.5
    Q 36 22.5 40 17.5
    Z" fill="url(#dwarf-hair)" stroke="#1b1614" stroke-width="1" />
<g transform="translate(23.8 26) rotate(-10)"><path d="M -0.25 0 H 0.25 Q 3.25 0 3.25 3 V 7 Q 3.25 10 0.25 10 H -0.25 Q -3.25 10 -3.25 7 V 3 Q -3.25 0 -0.25 0 Z" fill="url(#dwarf-skin)" stroke="#1b1614" stroke-width="1" />
<path d="M -0.25 2 H 0.25 Q 2.25 2 2.25 4 V 4 Q 2.25 6 0.25 6 H -0.25 Q -2.25 6 -2.25 4 V 4 Q -2.25 2 -0.25 2 Z" fill="#d2a95e" opacity="0.8" /></g>
<g transform="translate(39.8 26) rotate(12)"><path d="M -0.25 -2 H 0.25 Q 3.25 -2 3.25 1 V 5 Q 3.25 8 0.25 8 H -0.25 Q -3.25 8 -3.25 5 V 1 Q -3.25 -2 -0.25 -2 Z" fill="url(#dwarf-skin)" stroke="#1b1614" stroke-width="1" />
<path d="M -0.25 0 H 0.25 Q 2.25 0 2.25 2 V 2 Q 2.25 4 0.25 4 H -0.25 Q -2.25 4 -2.25 2 V 2 Q -2.25 0 -0.25 0 Z" fill="#d2a95e" opacity="0.8" /></g>
<g transform="translate(32.8 27) rotate(8)"><rect x="-1" y="-4" width="2" height="12" rx="1" fill="#7a8794" stroke="#1b1614" stroke-width="0.8" />
<rect x="-7" y="-6" width="12" height="5" rx="2" fill="url(#dwarf-metal)" stroke="#1b1614" stroke-width="0.8" />
<rect x="-1" y="-7" width="2" height="16" rx="1" fill="#7a8794" opacity="0.25" /></g>
    </g>
  </g>
<g transform="translate(320,0)">
    <g transform="translate(64,0) scale(-1,1)">
      <ellipse cx="32" cy="55" rx="14" ry="4" fill="rgba(0,0,0,0.18)" />
      <ellipse cx="32" cy="53" rx="12" ry="3" fill="rgba(0,0,0,0.2)" opacity="0.45" />
<path d="M 40 26 C 48 31, 48 42, 40 50 C 35 43, 36 33, 40 26 Z" fill="#5a4b2c" opacity="0.95" />
<path d="M 25.05 35.5 H 26.55 Q 29.55 35.5 29.55 38.5 V 44.5 Q 29.55 47.5 26.55 47.5 H 25.05 Q 22.05 47.5 22.05 44.5 V 38.5 Q 22.05 35.5 25.05 35.5 Z" fill="url(#dwarf-pants)" stroke="#1b1614" stroke-width="1" />
<path d="M 24.55 37.5 H 27.05 Q 28.55 37.5 28.55 39 V 39 Q 28.55 40.5 27.05 40.5 H 24.55 Q 23.05 40.5 23.05 39 V 39 Q 23.05 37.5 24.55 37.5 Z" fill="#c99d50" opacity="0.12" />
<path d="M 24.8 48 H 26.8 Q 28.8 48 28.8 50 V 50 Q 28.8 52 26.8 52 H 24.8 Q 22.8 52 22.8 50 V 50 Q 22.8 48 24.8 48 Z" fill="#382619" stroke="#1b1614" stroke-width="1" />
<path d="M 36.85 37 H 38.35 Q 41.35 37 41.35 40 V 46 Q 41.35 49 38.35 49 H 36.85 Q 33.85 49 33.85 46 V 40 Q 33.85 37 36.85 37 Z" fill="url(#dwarf-pants)" stroke="#1b1614" stroke-width="1" />
<path d="M 36.35 39 H 38.85 Q 40.35 39 40.35 40.5 V 40.5 Q 40.35 42 38.85 42 H 36.35 Q 34.85 42 34.85 40.5 V 40.5 Q 34.85 39 36.35 39 Z" fill="#c99d50" opacity="0.12" />
<path d="M 36.6 48 H 38.6 Q 40.6 48 40.6 50 V 50 Q 40.6 52 38.6 52 H 36.6 Q 34.6 52 34.6 50 V 50 Q 34.6 48 36.6 48 Z" fill="#382619" stroke="#1b1614" stroke-width="1" />
<path d="M 31 26 H 37 Q 43 26 43 32 V 37 Q 43 43 37 43 H 31 Q 25 43 25 37 V 32 Q 25 26 31 26 Z" fill="url(#dwarf-shirt)" stroke="#1b1614" stroke-width="1.2" stroke-linejoin="round" />
<path d="M 29.5 30 H 38.5 Q 41 30 41 32.5 V 32.5 Q 41 35 38.5 35 H 29.5 Q 27 35 27 32.5 V 32.5 Q 27 30 29.5 30 Z" fill="#c99d50" opacity="0.75" />
<path d="M 27 22 H 41 Q 44 22 44 25 V 25 Q 44 28 41 28 H 27 Q 24 28 24 25 V 25 Q 24 22 27 22 Z" fill="#5c3c25" stroke="#1b1614" stroke-width="1" />
<path d="M 29.5 19 H 38.5 Q 42 19 42 22.5 V 22.5 Q 42 26 38.5 26 H 29.5 Q 26 26 26 22.5 V 22.5 Q 26 19 29.5 19 Z" fill="#8d6137" stroke="#1b1614" stroke-width="1" />
<ellipse cx="31" cy="13" rx="8" ry="8.5" fill="url(#dwarf-skin)" stroke="#1b1614" stroke-width="1.2" />
<path d="M 21 9 Q 31 1, 41 9 L 39 15 Q 31 12, 23 15 Z" fill="#8d6137" stroke="#1b1614" stroke-width="1" />
<ellipse cx="31" cy="6" rx="11" ry="5" fill="#cfd6df" stroke="#1b1614" stroke-width="1" />
<rect x="24" y="7" width="14" height="2" rx="1" fill="#c99d50" opacity="0.7" />
<circle cx="28.4" cy="12.2" r="0.9" fill="#17131f" />
<circle cx="33.8" cy="12.2" r="0.9" fill="#17131f" />
<path d="M 29 15.6 Q 31 17.1 33 15.6" fill="none" stroke="#1b1614" stroke-width="1" stroke-linecap="round" />
<path d="
    M 40 18.5
    Q 42 28.5 31 31.5
    Q 20 28.5 22 18.5
    Q 26 23.5 31 21.5
    Q 36 23.5 40 18.5
    Z" fill="url(#dwarf-hair)" stroke="#1b1614" stroke-width="1" />
<g transform="translate(23 27) rotate(-10)"><path d="M -0.25 0 H 0.25 Q 3.25 0 3.25 3 V 7 Q 3.25 10 0.25 10 H -0.25 Q -3.25 10 -3.25 7 V 3 Q -3.25 0 -0.25 0 Z" fill="url(#dwarf-skin)" stroke="#1b1614" stroke-width="1" />
<path d="M -0.25 2 H 0.25 Q 2.25 2 2.25 4 V 4 Q 2.25 6 0.25 6 H -0.25 Q -2.25 6 -2.25 4 V 4 Q -2.25 2 -0.25 2 Z" fill="#d2a95e" opacity="0.8" /></g>
<g transform="translate(41 27) rotate(12)"><path d="M -0.25 -2 H 0.25 Q 3.25 -2 3.25 1 V 5 Q 3.25 8 0.25 8 H -0.25 Q -3.25 8 -3.25 5 V 1 Q -3.25 -2 -0.25 -2 Z" fill="url(#dwarf-skin)" stroke="#1b1614" stroke-width="1" />
<path d="M -0.25 0 H 0.25 Q 2.25 0 2.25 2 V 2 Q 2.25 4 0.25 4 H -0.25 Q -2.25 4 -2.25 2 V 2 Q -2.25 0 -0.25 0 Z" fill="#d2a95e" opacity="0.8" /></g>
<g transform="translate(34 28.2) rotate(8)"><rect x="-1" y="-4" width="2" height="12" rx="1" fill="#7a8794" stroke="#1b1614" stroke-width="0.8" />
<rect x="-7" y="-6" width="12" height="5" rx="2" fill="url(#dwarf-metal)" stroke="#1b1614" stroke-width="0.8" />
<rect x="-1" y="-7" width="2" height="16" rx="1" fill="#7a8794" opacity="0.25" /></g>
    </g>
  </g>
<g transform="translate(384,0)">
    <g transform="translate(64,0) scale(-1,1)">
      <ellipse cx="32" cy="55" rx="14" ry="4" fill="rgba(0,0,0,0.18)" />
      <ellipse cx="32" cy="52" rx="12" ry="3" fill="rgba(0,0,0,0.2)" opacity="0.45" />
<path d="M 40 26 C 48 31, 48 42, 40 50 C 35 43, 36 33, 40 26 Z" fill="#5a4b2c" opacity="0.95" />
<path d="M 29.85 34.5 H 31.35 Q 34.35 34.5 34.35 37.5 V 43.5 Q 34.35 46.5 31.35 46.5 H 29.85 Q 26.85 46.5 26.85 43.5 V 37.5 Q 26.85 34.5 29.85 34.5 Z" fill="url(#dwarf-pants)" stroke="#1b1614" stroke-width="1" />
<path d="M 29.35 36.5 H 31.85 Q 33.35 36.5 33.35 38 V 38 Q 33.35 39.5 31.85 39.5 H 29.35 Q 27.85 39.5 27.85 38 V 38 Q 27.85 36.5 29.35 36.5 Z" fill="#c99d50" opacity="0.12" />
<path d="M 29.6 47 H 31.6 Q 33.6 47 33.6 49 V 49 Q 33.6 51 31.6 51 H 29.6 Q 27.6 51 27.6 49 V 49 Q 27.6 47 29.6 47 Z" fill="#382619" stroke="#1b1614" stroke-width="1" />
<path d="M 33.65 36 H 35.15 Q 38.15 36 38.15 39 V 45 Q 38.15 48 35.15 48 H 33.65 Q 30.65 48 30.65 45 V 39 Q 30.65 36 33.65 36 Z" fill="url(#dwarf-pants)" stroke="#1b1614" stroke-width="1" />
<path d="M 33.15 38 H 35.65 Q 37.15 38 37.15 39.5 V 39.5 Q 37.15 41 35.65 41 H 33.15 Q 31.65 41 31.65 39.5 V 39.5 Q 31.65 38 33.15 38 Z" fill="#c99d50" opacity="0.12" />
<path d="M 33.4 47 H 35.4 Q 37.4 47 37.4 49 V 49 Q 37.4 51 35.4 51 H 33.4 Q 31.4 51 31.4 49 V 49 Q 31.4 47 33.4 47 Z" fill="#382619" stroke="#1b1614" stroke-width="1" />
<path d="M 29 25 H 35 Q 41 25 41 31 V 36 Q 41 42 35 42 H 29 Q 23 42 23 36 V 31 Q 23 25 29 25 Z" fill="url(#dwarf-shirt)" stroke="#1b1614" stroke-width="1.2" stroke-linejoin="round" />
<path d="M 27.5 29 H 36.5 Q 39 29 39 31.5 V 31.5 Q 39 34 36.5 34 H 27.5 Q 25 34 25 31.5 V 31.5 Q 25 29 27.5 29 Z" fill="#c99d50" opacity="0.75" />
<path d="M 25 21 H 39 Q 42 21 42 24 V 24 Q 42 27 39 27 H 25 Q 22 27 22 24 V 24 Q 22 21 25 21 Z" fill="#5c3c25" stroke="#1b1614" stroke-width="1" />
<path d="M 27.5 18 H 36.5 Q 40 18 40 21.5 V 21.5 Q 40 25 36.5 25 H 27.5 Q 24 25 24 21.5 V 21.5 Q 24 18 27.5 18 Z" fill="#8d6137" stroke="#1b1614" stroke-width="1" />
<ellipse cx="31" cy="12" rx="8" ry="8.5" fill="url(#dwarf-skin)" stroke="#1b1614" stroke-width="1.2" />
<path d="M 21 8 Q 31 0, 41 8 L 39 14 Q 31 11, 23 14 Z" fill="#8d6137" stroke="#1b1614" stroke-width="1" />
<ellipse cx="31" cy="5" rx="11" ry="5" fill="#cfd6df" stroke="#1b1614" stroke-width="1" />
<rect x="24" y="6" width="14" height="2" rx="1" fill="#c99d50" opacity="0.7" />
<circle cx="28.4" cy="11.2" r="0.9" fill="#17131f" />
<circle cx="33.8" cy="11.2" r="0.9" fill="#17131f" />
<path d="M 29 14.6 Q 31 16.1 33 14.6" fill="none" stroke="#1b1614" stroke-width="1" stroke-linecap="round" />
<path d="
    M 40 17.5
    Q 42 27.5 31 30.5
    Q 20 27.5 22 17.5
    Q 26 22.5 31 20.5
    Q 36 22.5 40 17.5
    Z" fill="url(#dwarf-hair)" stroke="#1b1614" stroke-width="1" />
<g transform="translate(22.2 26) rotate(-10)"><path d="M -0.25 0 H 0.25 Q 3.25 0 3.25 3 V 7 Q 3.25 10 0.25 10 H -0.25 Q -3.25 10 -3.25 7 V 3 Q -3.25 0 -0.25 0 Z" fill="url(#dwarf-skin)" stroke="#1b1614" stroke-width="1" />
<path d="M -0.25 2 H 0.25 Q 2.25 2 2.25 4 V 4 Q 2.25 6 0.25 6 H -0.25 Q -2.25 6 -2.25 4 V 4 Q -2.25 2 -0.25 2 Z" fill="#d2a95e" opacity="0.8" /></g>
<g transform="translate(42.2 26) rotate(12)"><path d="M -0.25 -2 H 0.25 Q 3.25 -2 3.25 1 V 5 Q 3.25 8 0.25 8 H -0.25 Q -3.25 8 -3.25 5 V 1 Q -3.25 -2 -0.25 -2 Z" fill="url(#dwarf-skin)" stroke="#1b1614" stroke-width="1" />
<path d="M -0.25 0 H 0.25 Q 2.25 0 2.25 2 V 2 Q 2.25 4 0.25 4 H -0.25 Q -2.25 4 -2.25 2 V 2 Q -2.25 0 -0.25 0 Z" fill="#d2a95e" opacity="0.8" /></g>
<g transform="translate(35.2 27) rotate(8)"><rect x="-1" y="-4" width="2" height="12" rx="1" fill="#7a8794" stroke="#1b1614" stroke-width="0.8" />
<rect x="-7" y="-6" width="12" height="5" rx="2" fill="url(#dwarf-metal)" stroke="#1b1614" stroke-width="0.8" />
<rect x="-1" y="-7" width="2" height="16" rx="1" fill="#7a8794" opacity="0.25" /></g>
    </g>
  </g>
</svg>
