<?xml version="1.0" encoding="UTF-8"?>
<svg xmlns="http://www.w3.org/2000/svg" viewBox="0 0 320 64" width="320" height="64" shape-rendering="geometricPrecision">
  
    <defs>
      <linearGradient id="seraph-shirt" x1="0%" y1="0%" x2="100%" y2="100%">
        <stop offset="0%" stop-color="#eee0ff" />
        <stop offset="100%" stop-color="#b9a8eb" />
      </linearGradient>
      <linearGradient id="seraph-skin" x1="0%" y1="0%" x2="100%" y2="100%">
        <stop offset="0%" stop-color="#f1dfff" />
        <stop offset="100%" stop-color="#dfcded" />
      </linearGradient>
      <linearGradient id="seraph-hair" x1="0%" y1="0%" x2="100%" y2="100%">
        <stop offset="0%" stop-color="#c9c1ff" />
        <stop offset="100%" stop-color="#8379c7" />
      </linearGradient>
      <linearGradient id="seraph-pants" x1="0%" y1="0%" x2="100%" y2="100%">
        <stop offset="0%" stop-color="#5f5880" />
        <stop offset="100%" stop-color="#4f4870" />
      </linearGradient>
      <linearGradient id="seraph-metal" x1="0%" y1="0%" x2="100%" y2="100%">
        <stop offset="0%" stop-color="#fff9dc" />
        <stop offset="100%" stop-color="#b9ad63" />
      </linearGradient>
      <filter id="seraph-shadow" x="-50%" y="-50%" width="200%" height="200%">
        <feGaussianBlur stdDeviation="1.2" />
      </filter>
    </defs>
  
  <rect width="100%" height="100%" fill="transparent" />
  <g transform="translate(0,0)">
    <g transform="translate(64,0) scale(-1,1)">
      <ellipse cx="32" cy="55" rx="12" ry="4" fill="rgba(0,0,0,0.18)" />
      <ellipse cx="32" cy="54" rx="12" ry="3" fill="rgba(0,0,0,0.2)" opacity="0.45" />
<ellipse cx="32" cy="10" rx="7" ry="2" fill="#f1d46b" opacity="0.9" />
<path d="M 40 26 C 48 31, 48 42, 40 50 C 35 43, 36 33, 40 26 Z" fill="#8a96e0" opacity="0.95" />
<path d="M 27.299999999999997 38.5 H 27.499999999999996 Q 30.499999999999996 38.5 30.499999999999996 41.5 V 46.5 Q 30.499999999999996 49.5 27.499999999999996 49.5 H 27.299999999999997 Q 24.299999999999997 49.5 24.299999999999997 46.5 V 41.5 Q 24.299999999999997 38.5 27.299999999999997 38.5 Z" fill="url(#seraph-pants)" stroke="#1a172a" stroke-width="1" />
<path d="M 26.799999999999997 40.5 H 27.999999999999996 Q 29.499999999999996 40.5 29.499999999999996 42 V 42 Q 29.499999999999996 43.5 27.999999999999996 43.5 H 26.799999999999997 Q 25.299999999999997 43.5 25.299999999999997 42 V 42 Q 25.299999999999997 40.5 26.799999999999997 40.5 Z" fill="#f1d46b" opacity="0.12" />
<path d="M 26.9 50 H 27.9 Q 29.9 50 29.9 52 V 52 Q 29.9 54 27.9 54 H 26.9 Q 24.9 54 24.9 52 V 52 Q 24.9 50 26.9 50 Z" fill="#3c3555" stroke="#1a172a" stroke-width="1" />
<path d="M 34.3 40 H 34.5 Q 37.5 40 37.5 43 V 48 Q 37.5 51 34.5 51 H 34.3 Q 31.299999999999997 51 31.299999999999997 48 V 43 Q 31.299999999999997 40 34.3 40 Z" fill="url(#seraph-pants)" stroke="#1a172a" stroke-width="1" />
<path d="M 33.8 42 H 35 Q 36.5 42 36.5 43.5 V 43.5 Q 36.5 45 35 45 H 33.8 Q 32.3 45 32.3 43.5 V 43.5 Q 32.3 42 33.8 42 Z" fill="#f1d46b" opacity="0.12" />
<path d="M 33.9 50 H 34.9 Q 36.9 50 36.9 52 V 52 Q 36.9 54 34.9 54 H 33.9 Q 31.9 54 31.9 52 V 52 Q 31.9 50 33.9 50 Z" fill="#3c3555" stroke="#1a172a" stroke-width="1" />
<path d="M 30 29 H 34 Q 40 29 40 35 V 41 Q 40 47 34 47 H 30 Q 24 47 24 41 V 35 Q 24 29 30 29 Z" fill="url(#seraph-shirt)" stroke="#1a172a" stroke-width="1.2" stroke-linejoin="round" />
<path d="M 28.5 33 H 35.5 Q 38 33 38 35.5 V 35.5 Q 38 38 35.5 38 H 28.5 Q 26 38 26 35.5 V 35.5 Q 26 33 28.5 33 Z" fill="#f1d46b" opacity="0.75" />
<ellipse cx="31" cy="12" rx="7.3" ry="7.7" fill="url(#seraph-skin)" stroke="#1a172a" stroke-width="1.2" />
<path d="M 24 8 Q 31 3 38 8 Q 37 15 31 16 Q 25 15 24 8 Z" fill="url(#seraph-hair)" stroke="#1a172a" stroke-width="1" />
<path d="M 25 2 Q 31 -2 37 2" fill="none" stroke="#f1d46b" stroke-width="2.2" stroke-linecap="round" />
<circle cx="28.4" cy="11.2" r="0.9" fill="#17131f" />
<circle cx="33.8" cy="11.2" r="0.9" fill="#17131f" />
<path d="M 29 14.6 Q 31 16.1 33 14.6" fill="none" stroke="#1a172a" stroke-width="1" stroke-linecap="round" />
<path d="M 26 16 Q 31 19 36 16 L 35 19 Q 31 21 27 19 Z" fill="#f1d46b" opacity="0.08" />
<g transform="translate(23.8 30) rotate(-10)"><path d="M 0 0 H 0 Q 2.75 0 2.75 2.75 V 7.25 Q 2.75 10 0 10 H 0 Q -2.75 10 -2.75 7.25 V 2.75 Q -2.75 0 0 0 Z" fill="url(#seraph-skin)" stroke="#1a172a" stroke-width="1" />
<path d="M 0 2 H 0 Q 1.75 2 1.75 3.75 V 4.25 Q 1.75 6 0 6 H 0 Q -1.75 6 -1.75 4.25 V 3.75 Q -1.75 2 0 2 Z" fill="#eee0ff" opacity="0.8" /></g>
<g transform="translate(39.8 30) rotate(12)"><path d="M 0 -2 H 0 Q 2.75 -2 2.75 0.75 V 5.25 Q 2.75 8 0 8 H 0 Q -2.75 8 -2.75 5.25 V 0.75 Q -2.75 -2 0 -2 Z" fill="url(#seraph-skin)" stroke="#1a172a" stroke-width="1" />
<path d="M 0 0 H 0 Q 1.75 0 1.75 1.75 V 2.25 Q 1.75 4 0 4 H 0 Q -1.75 4 -1.75 2.25 V 1.75 Q -1.75 0 0 0 Z" fill="#eee0ff" opacity="0.8" /></g>
<g transform="translate(32.8 31.4) rotate(6)"><rect x="-1" y="-7" width="2" height="18" rx="1" fill="#b9ad63" stroke="#1a172a" stroke-width="0.8" />
<circle cx="0" cy="-8" r="4.3" fill="#f1d46b" stroke="#1a172a" stroke-width="0.8" />
<circle cx="0" cy="-8" r="1.8" fill="#fff9dc" /></g>
    </g>
  </g>
<g transform="translate(64,0)">
    <g transform="translate(64,0) scale(-1,1)">
      <ellipse cx="32" cy="55" rx="12" ry="4" fill="rgba(0,0,0,0.18)" />
      <ellipse cx="32" cy="52" rx="12" ry="3" fill="rgba(0,0,0,0.2)" opacity="0.45" />
<ellipse cx="32" cy="9" rx="7" ry="2" fill="#f1d46b" opacity="0.9" />
<path d="M 40 26 C 48 31, 48 42, 40 50 C 35 43, 36 33, 40 26 Z" fill="#8a96e0" opacity="0.95" />
<path d="M 28.9 35.5 H 29.1 Q 32.1 35.5 32.1 38.5 V 43.5 Q 32.1 46.5 29.1 46.5 H 28.9 Q 25.9 46.5 25.9 43.5 V 38.5 Q 25.9 35.5 28.9 35.5 Z" fill="url(#seraph-pants)" stroke="#1a172a" stroke-width="1" />
<path d="M 28.4 37.5 H 29.599999999999998 Q 31.099999999999998 37.5 31.099999999999998 39 V 39 Q 31.099999999999998 40.5 29.599999999999998 40.5 H 28.4 Q 26.9 40.5 26.9 39 V 39 Q 26.9 37.5 28.4 37.5 Z" fill="#f1d46b" opacity="0.12" />
<path d="M 28.5 47 H 29.5 Q 31.5 47 31.5 49 V 49 Q 31.5 51 29.5 51 H 28.5 Q 26.5 51 26.5 49 V 49 Q 26.5 47 28.5 47 Z" fill="#3c3555" stroke="#1a172a" stroke-width="1" />
<path d="M 35.9 37 H 36.1 Q 39.1 37 39.1 40 V 45 Q 39.1 48 36.1 48 H 35.9 Q 32.9 48 32.9 45 V 40 Q 32.9 37 35.9 37 Z" fill="url(#seraph-pants)" stroke="#1a172a" stroke-width="1" />
<path d="M 35.4 39 H 36.6 Q 38.1 39 38.1 40.5 V 40.5 Q 38.1 42 36.6 42 H 35.4 Q 33.9 42 33.9 40.5 V 40.5 Q 33.9 39 35.4 39 Z" fill="#f1d46b" opacity="0.12" />
<path d="M 35.5 47 H 36.5 Q 38.5 47 38.5 49 V 49 Q 38.5 51 36.5 51 H 35.5 Q 33.5 51 33.5 49 V 49 Q 33.5 47 35.5 47 Z" fill="#3c3555" stroke="#1a172a" stroke-width="1" />
<path d="M 30 26 H 34 Q 40 26 40 32 V 38 Q 40 44 34 44 H 30 Q 24 44 24 38 V 32 Q 24 26 30 26 Z" fill="url(#seraph-shirt)" stroke="#1a172a" stroke-width="1.2" stroke-linejoin="round" />
<path d="M 28.5 30 H 35.5 Q 38 30 38 32.5 V 32.5 Q 38 35 35.5 35 H 28.5 Q 26 35 26 32.5 V 32.5 Q 26 30 28.5 30 Z" fill="#f1d46b" opacity="0.75" />
<ellipse cx="31" cy="11" rx="7.3" ry="7.7" fill="url(#seraph-skin)" stroke="#1a172a" stroke-width="1.2" />
<path d="M 24 7 Q 31 2 38 7 Q 37 14 31 15 Q 25 14 24 7 Z" fill="url(#seraph-hair)" stroke="#1a172a" stroke-width="1" />
<path d="M 25 1 Q 31 -3 37 1" fill="none" stroke="#f1d46b" stroke-width="2.2" stroke-linecap="round" />
<circle cx="28.4" cy="10.2" r="0.9" fill="#17131f" />
<circle cx="33.8" cy="10.2" r="0.9" fill="#17131f" />
<path d="M 29 13.6 Q 31 15.1 33 13.6" fill="none" stroke="#1a172a" stroke-width="1" stroke-linecap="round" />
<path d="M 26 15 Q 31 18 36 15 L 35 18 Q 31 20 27 18 Z" fill="#f1d46b" opacity="0.08" />
<g transform="translate(23 27) rotate(-10)"><path d="M 0 0 H 0 Q 2.75 0 2.75 2.75 V 7.25 Q 2.75 10 0 10 H 0 Q -2.75 10 -2.75 7.25 V 2.75 Q -2.75 0 0 0 Z" fill="url(#seraph-skin)" stroke="#1a172a" stroke-width="1" />
<path d="M 0 2 H 0 Q 1.75 2 1.75 3.75 V 4.25 Q 1.75 6 0 6 H 0 Q -1.75 6 -1.75 4.25 V 3.75 Q -1.75 2 0 2 Z" fill="#eee0ff" opacity="0.8" /></g>
<g transform="translate(41 27) rotate(12)"><path d="M 0 -2 H 0 Q 2.75 -2 2.75 0.75 V 5.25 Q 2.75 8 0 8 H 0 Q -2.75 8 -2.75 5.25 V 0.75 Q -2.75 -2 0 -2 Z" fill="url(#seraph-skin)" stroke="#1a172a" stroke-width="1" />
<path d="M 0 0 H 0 Q 1.75 0 1.75 1.75 V 2.25 Q 1.75 4 0 4 H 0 Q -1.75 4 -1.75 2.25 V 1.75 Q -1.75 0 0 0 Z" fill="#eee0ff" opacity="0.8" /></g>
<g transform="translate(34 28) rotate(6)"><rect x="-1" y="-7" width="2" height="18" rx="1" fill="#b9ad63" stroke="#1a172a" stroke-width="0.8" />
<circle cx="0" cy="-8" r="4.3" fill="#f1d46b" stroke="#1a172a" stroke-width="0.8" />
<circle cx="0" cy="-8" r="1.8" fill="#fff9dc" /></g>
    </g>
  </g>
<g transform="translate(128,0)">
    <g transform="translate(64,0) scale(-1,1)">
      <ellipse cx="32" cy="55" rx="12" ry="4" fill="rgba(0,0,0,0.18)" />
      <ellipse cx="32" cy="50" rx="12" ry="3" fill="rgba(0,0,0,0.2)" opacity="0.45" />
<ellipse cx="32" cy="8" rx="7" ry="2" fill="#f1d46b" opacity="0.9" />
<path d="M 40 26 C 48 31, 48 42, 40 50 C 35 43, 36 33, 40 26 Z" fill="#8a96e0" opacity="0.95" />
<path d="M 30.5 32.5 H 30.700000000000003 Q 33.7 32.5 33.7 35.5 V 40.5 Q 33.7 43.5 30.700000000000003 43.5 H 30.5 Q 27.5 43.5 27.5 40.5 V 35.5 Q 27.5 32.5 30.5 32.5 Z" fill="url(#seraph-pants)" stroke="#1a172a" stroke-width="1" />
<path d="M 30 34.5 H 31.200000000000003 Q 32.7 34.5 32.7 36 V 36 Q 32.7 37.5 31.200000000000003 37.5 H 30 Q 28.5 37.5 28.5 36 V 36 Q 28.5 34.5 30 34.5 Z" fill="#f1d46b" opacity="0.12" />
<path d="M 30.1 44 H 31.1 Q 33.1 44 33.1 46 V 46 Q 33.1 48 31.1 48 H 30.1 Q 28.1 48 28.1 46 V 46 Q 28.1 44 30.1 44 Z" fill="#3c3555" stroke="#1a172a" stroke-width="1" />
<path d="M 37.5 34 H 37.7 Q 40.7 34 40.7 37 V 42 Q 40.7 45 37.7 45 H 37.5 Q 34.5 45 34.5 42 V 37 Q 34.5 34 37.5 34 Z" fill="url(#seraph-pants)" stroke="#1a172a" stroke-width="1" />
<path d="M 37 36 H 38.2 Q 39.7 36 39.7 37.5 V 37.5 Q 39.7 39 38.2 39 H 37 Q 35.5 39 35.5 37.5 V 37.5 Q 35.5 36 37 36 Z" fill="#f1d46b" opacity="0.12" />
<path d="M 37.1 44 H 38.1 Q 40.1 44 40.1 46 V 46 Q 40.1 48 38.1 48 H 37.1 Q 35.1 48 35.1 46 V 46 Q 35.1 44 37.1 44 Z" fill="#3c3555" stroke="#1a172a" stroke-width="1" />
<path d="M 30 23 H 34 Q 40 23 40 29 V 35 Q 40 41 34 41 H 30 Q 24 41 24 35 V 29 Q 24 23 30 23 Z" fill="url(#seraph-shirt)" stroke="#1a172a" stroke-width="1.2" stroke-linejoin="round" />
<path d="M 28.5 27 H 35.5 Q 38 27 38 29.5 V 29.5 Q 38 32 35.5 32 H 28.5 Q 26 32 26 29.5 V 29.5 Q 26 27 28.5 27 Z" fill="#f1d46b" opacity="0.75" />
<ellipse cx="31" cy="10" rx="7.3" ry="7.7" fill="url(#seraph-skin)" stroke="#1a172a" stroke-width="1.2" />
<path d="M 24 6 Q 31 1 38 6 Q 37 13 31 14 Q 25 13 24 6 Z" fill="url(#seraph-hair)" stroke="#1a172a" stroke-width="1" />
<path d="M 25 0 Q 31 -4 37 0" fill="none" stroke="#f1d46b" stroke-width="2.2" stroke-linecap="round" />
<circle cx="28.4" cy="9.2" r="0.9" fill="#17131f" />
<circle cx="33.8" cy="9.2" r="0.9" fill="#17131f" />
<path d="M 29 12.6 Q 31 14.1 33 12.6" fill="none" stroke="#1a172a" stroke-width="1" stroke-linecap="round" />
<path d="M 26 14 Q 31 17 36 14 L 35 17 Q 31 19 27 17 Z" fill="#f1d46b" opacity="0.08" />
<g transform="translate(22.2 24) rotate(-10)"><path d="M 0 0 H 0 Q 2.75 0 2.75 2.75 V 7.25 Q 2.75 10 0 10 H 0 Q -2.75 10 -2.75 7.25 V 2.75 Q -2.75 0 0 0 Z" fill="url(#seraph-skin)" stroke="#1a172a" stroke-width="1" />
<path d="M 0 2 H 0 Q 1.75 2 1.75 3.75 V 4.25 Q 1.75 6 0 6 H 0 Q -1.75 6 -1.75 4.25 V 3.75 Q -1.75 2 0 2 Z" fill="#eee0ff" opacity="0.8" /></g>
<g transform="translate(42.2 24) rotate(12)"><path d="M 0 -2 H 0 Q 2.75 -2 2.75 0.75 V 5.25 Q 2.75 8 0 8 H 0 Q -2.75 8 -2.75 5.25 V 0.75 Q -2.75 -2 0 -2 Z" fill="url(#seraph-skin)" stroke="#1a172a" stroke-width="1" />
<path d="M 0 0 H 0 Q 1.75 0 1.75 1.75 V 2.25 Q 1.75 4 0 4 H 0 Q -1.75 4 -1.75 2.25 V 1.75 Q -1.75 0 0 0 Z" fill="#eee0ff" opacity="0.8" /></g>
<g transform="translate(35.2 24.6) rotate(6)"><rect x="-1" y="-7" width="2" height="18" rx="1" fill="#b9ad63" stroke="#1a172a" stroke-width="0.8" />
<circle cx="0" cy="-8" r="4.3" fill="#f1d46b" stroke="#1a172a" stroke-width="0.8" />
<circle cx="0" cy="-8" r="1.8" fill="#fff9dc" /></g>
    </g>
  </g>
<g transform="translate(192,0)">
    <g transform="translate(64,0) scale(-1,1)">
      <ellipse cx="32" cy="55" rx="12" ry="4" fill="rgba(0,0,0,0.18)" />
      <ellipse cx="32" cy="51" rx="12" ry="3" fill="rgba(0,0,0,0.2)" opacity="0.45" />
<ellipse cx="32" cy="9" rx="7" ry="2" fill="#f1d46b" opacity="0.9" />
<path d="M 40 26 C 48 31, 48 42, 40 50 C 35 43, 36 33, 40 26 Z" fill="#8a96e0" opacity="0.95" />
<path d="M 32.1 33.5 H 32.300000000000004 Q 35.300000000000004 33.5 35.300000000000004 36.5 V 41.5 Q 35.300000000000004 44.5 32.300000000000004 44.5 H 32.1 Q 29.1 44.5 29.1 41.5 V 36.5 Q 29.1 33.5 32.1 33.5 Z" fill="url(#seraph-pants)" stroke="#1a172a" stroke-width="1" />
<path d="M 31.6 35.5 H 32.800000000000004 Q 34.300000000000004 35.5 34.300000000000004 37 V 37 Q 34.300000000000004 38.5 32.800000000000004 38.5 H 31.6 Q 30.1 38.5 30.1 37 V 37 Q 30.1 35.5 31.6 35.5 Z" fill="#f1d46b" opacity="0.12" />
<path d="M 31.700000000000003 45 H 32.7 Q 34.7 45 34.7 47 V 47 Q 34.7 49 32.7 49 H 31.700000000000003 Q 29.700000000000003 49 29.700000000000003 47 V 47 Q 29.700000000000003 45 31.700000000000003 45 Z" fill="#3c3555" stroke="#1a172a" stroke-width="1" />
<path d="M 37.5 35 H 37.7 Q 40.7 35 40.7 38 V 43 Q 40.7 46 37.7 46 H 37.5 Q 34.5 46 34.5 43 V 38 Q 34.5 35 37.5 35 Z" fill="url(#seraph-pants)" stroke="#1a172a" stroke-width="1" />
<path d="M 37 37 H 38.2 Q 39.7 37 39.7 38.5 V 38.5 Q 39.7 40 38.2 40 H 37 Q 35.5 40 35.5 38.5 V 38.5 Q 35.5 37 37 37 Z" fill="#f1d46b" opacity="0.12" />
<path d="M 37.1 45 H 38.1 Q 40.1 45 40.1 47 V 47 Q 40.1 49 38.1 49 H 37.1 Q 35.1 49 35.1 47 V 47 Q 35.1 45 37.1 45 Z" fill="#3c3555" stroke="#1a172a" stroke-width="1" />
<path d="M 30 24 H 34 Q 40 24 40 30 V 36 Q 40 42 34 42 H 30 Q 24 42 24 36 V 30 Q 24 24 30 24 Z" fill="url(#seraph-shirt)" stroke="#1a172a" stroke-width="1.2" stroke-linejoin="round" />
<path d="M 28.5 28 H 35.5 Q 38 28 38 30.5 V 30.5 Q 38 33 35.5 33 H 28.5 Q 26 33 26 30.5 V 30.5 Q 26 28 28.5 28 Z" fill="#f1d46b" opacity="0.75" />
<ellipse cx="31" cy="11" rx="7.3" ry="7.7" fill="url(#seraph-skin)" stroke="#1a172a" stroke-width="1.2" />
<path d="M 24 7 Q 31 2 38 7 Q 37 14 31 15 Q 25 14 24 7 Z" fill="url(#seraph-hair)" stroke="#1a172a" stroke-width="1" />
<path d="M 25 1 Q 31 -3 37 1" fill="none" stroke="#f1d46b" stroke-width="2.2" stroke-linecap="round" />
<circle cx="28.4" cy="10.2" r="0.9" fill="#17131f" />
<circle cx="33.8" cy="10.2" r="0.9" fill="#17131f" />
<path d="M 29 13.6 Q 31 15.1 33 13.6" fill="none" stroke="#1a172a" stroke-width="1" stroke-linecap="round" />
<path d="M 26 15 Q 31 18 36 15 L 35 18 Q 31 20 27 18 Z" fill="#f1d46b" opacity="0.08" />
<g transform="translate(23 25) rotate(-10)"><path d="M 0 0 H 0 Q 2.75 0 2.75 2.75 V 7.25 Q 2.75 10 0 10 H 0 Q -2.75 10 -2.75 7.25 V 2.75 Q -2.75 0 0 0 Z" fill="url(#seraph-skin)" stroke="#1a172a" stroke-width="1" />
<path d="M 0 2 H 0 Q 1.75 2 1.75 3.75 V 4.25 Q 1.75 6 0 6 H 0 Q -1.75 6 -1.75 4.25 V 3.75 Q -1.75 2 0 2 Z" fill="#eee0ff" opacity="0.8" /></g>
<g transform="translate(41 25) rotate(12)"><path d="M 0 -2 H 0 Q 2.75 -2 2.75 0.75 V 5.25 Q 2.75 8 0 8 H 0 Q -2.75 8 -2.75 5.25 V 0.75 Q -2.75 -2 0 -2 Z" fill="url(#seraph-skin)" stroke="#1a172a" stroke-width="1" />
<path d="M 0 0 H 0 Q 1.75 0 1.75 1.75 V 2.25 Q 1.75 4 0 4 H 0 Q -1.75 4 -1.75 2.25 V 1.75 Q -1.75 0 0 0 Z" fill="#eee0ff" opacity="0.8" /></g>
<g transform="translate(34 25.8) rotate(6)"><rect x="-1" y="-7" width="2" height="18" rx="1" fill="#b9ad63" stroke="#1a172a" stroke-width="0.8" />
<circle cx="0" cy="-8" r="4.3" fill="#f1d46b" stroke="#1a172a" stroke-width="0.8" />
<circle cx="0" cy="-8" r="1.8" fill="#fff9dc" /></g>
    </g>
  </g>
<g transform="translate(256,0)">
    <g transform="translate(64,0) scale(-1,1)">
      <ellipse cx="32" cy="55" rx="12" ry="4" fill="rgba(0,0,0,0.18)" />
      <ellipse cx="32" cy="53" rx="12" ry="3" fill="rgba(0,0,0,0.2)" opacity="0.45" />
<ellipse cx="32" cy="10" rx="7" ry="2" fill="#f1d46b" opacity="0.9" />
<path d="M 40 26 C 48 31, 48 42, 40 50 C 35 43, 36 33, 40 26 Z" fill="#8a96e0" opacity="0.95" />
<path d="M 27.299999999999997 36.5 H 27.499999999999996 Q 30.499999999999996 36.5 30.499999999999996 39.5 V 44.5 Q 30.499999999999996 47.5 27.499999999999996 47.5 H 27.299999999999997 Q 24.299999999999997 47.5 24.299999999999997 44.5 V 39.5 Q 24.299999999999997 36.5 27.299999999999997 36.5 Z" fill="url(#seraph-pants)" stroke="#1a172a" stroke-width="1" />
<path d="M 26.799999999999997 38.5 H 27.999999999999996 Q 29.499999999999996 38.5 29.499999999999996 40 V 40 Q 29.499999999999996 41.5 27.999999999999996 41.5 H 26.799999999999997 Q 25.299999999999997 41.5 25.299999999999997 40 V 40 Q 25.299999999999997 38.5 26.799999999999997 38.5 Z" fill="#f1d46b" opacity="0.12" />
<path d="M 26.9 48 H 27.9 Q 29.9 48 29.9 50 V 50 Q 29.9 52 27.9 52 H 26.9 Q 24.9 52 24.9 50 V 50 Q 24.9 48 26.9 48 Z" fill="#3c3555" stroke="#1a172a" stroke-width="1" />
<path d="M 35.9 38 H 36.1 Q 39.1 38 39.1 41 V 46 Q 39.1 49 36.1 49 H 35.9 Q 32.9 49 32.9 46 V 41 Q 32.9 38 35.9 38 Z" fill="url(#seraph-pants)" stroke="#1a172a" stroke-width="1" />
<path d="M 35.4 40 H 36.6 Q 38.1 40 38.1 41.5 V 41.5 Q 38.1 43 36.6 43 H 35.4 Q 33.9 43 33.9 41.5 V 41.5 Q 33.9 40 35.4 40 Z" fill="#f1d46b" opacity="0.12" />
<path d="M 35.5 48 H 36.5 Q 38.5 48 38.5 50 V 50 Q 38.5 52 36.5 52 H 35.5 Q 33.5 52 33.5 50 V 50 Q 33.5 48 35.5 48 Z" fill="#3c3555" stroke="#1a172a" stroke-width="1" />
<path d="M 30 27 H 34 Q 40 27 40 33 V 39 Q 40 45 34 45 H 30 Q 24 45 24 39 V 33 Q 24 27 30 27 Z" fill="url(#seraph-shirt)" stroke="#1a172a" stroke-width="1.2" stroke-linejoin="round" />
<path d="M 28.5 31 H 35.5 Q 38 31 38 33.5 V 33.5 Q 38 36 35.5 36 H 28.5 Q 26 36 26 33.5 V 33.5 Q 26 31 28.5 31 Z" fill="#f1d46b" opacity="0.75" />
<ellipse cx="31" cy="12" rx="7.3" ry="7.7" fill="url(#seraph-skin)" stroke="#1a172a" stroke-width="1.2" />
<path d="M 24 8 Q 31 3 38 8 Q 37 15 31 16 Q 25 15 24 8 Z" fill="url(#seraph-hair)" stroke="#1a172a" stroke-width="1" />
<path d="M 25 2 Q 31 -2 37 2" fill="none" stroke="#f1d46b" stroke-width="2.2" stroke-linecap="round" />
<circle cx="28.4" cy="11.2" r="0.9" fill="#17131f" />
<circle cx="33.8" cy="11.2" r="0.9" fill="#17131f" />
<path d="M 29 14.6 Q 31 16.1 33 14.6" fill="none" stroke="#1a172a" stroke-width="1" stroke-linecap="round" />
<path d="M 26 16 Q 31 19 36 16 L 35 19 Q 31 21 27 19 Z" fill="#f1d46b" opacity="0.08" />
<g transform="translate(23.8 28) rotate(-10)"><path d="M 0 0 H 0 Q 2.75 0 2.75 2.75 V 7.25 Q 2.75 10 0 10 H 0 Q -2.75 10 -2.75 7.25 V 2.75 Q -2.75 0 0 0 Z" fill="url(#seraph-skin)" stroke="#1a172a" stroke-width="1" />
<path d="M 0 2 H 0 Q 1.75 2 1.75 3.75 V 4.25 Q 1.75 6 0 6 H 0 Q -1.75 6 -1.75 4.25 V 3.75 Q -1.75 2 0 2 Z" fill="#eee0ff" opacity="0.8" /></g>
<g transform="translate(39.8 28) rotate(12)"><path d="M 0 -2 H 0 Q 2.75 -2 2.75 0.75 V 5.25 Q 2.75 8 0 8 H 0 Q -2.75 8 -2.75 5.25 V 0.75 Q -2.75 -2 0 -2 Z" fill="url(#seraph-skin)" stroke="#1a172a" stroke-width="1" />
<path d="M 0 0 H 0 Q 1.75 0 1.75 1.75 V 2.25 Q 1.75 4 0 4 H 0 Q -1.75 4 -1.75 2.25 V 1.75 Q -1.75 0 0 0 Z" fill="#eee0ff" opacity="0.8" /></g>
<g transform="translate(32.8 29.2) rotate(6)"><rect x="-1" y="-7" width="2" height="18" rx="1" fill="#b9ad63" stroke="#1a172a" stroke-width="0.8" />
<circle cx="0" cy="-8" r="4.3" fill="#f1d46b" stroke="#1a172a" stroke-width="0.8" />
<circle cx="0" cy="-8" r="1.8" fill="#fff9dc" /></g>
    </g>
  </g>
</svg>
