<?xml version="1.0" encoding="UTF-8"?>
<svg xmlns="http://www.w3.org/2000/svg" viewBox="0 0 448 64" width="448" height="64" shape-rendering="geometricPrecision">
  
    <defs>
      <linearGradient id="seraph-shirt" x1="0%" y1="0%" x2="100%" y2="100%">
        <stop offset="0%" stop-color="#eee0ff" />
        <stop offset="100%" stop-color="#b9a8eb" />
      </linearGradient>
      <linearGradient id="seraph-skin" x1="0%" y1="0%" x2="100%" y2="100%">
        <stop offset="0%" stop-color="#f1dfff" />
        <stop offset="100%" stop-color="#dfcded" />
      </linearGradient>
      <linearGradient id="seraph-hair" x1="0%" y1="0%" x2="100%" y2="100%">
        <stop offset="0%" stop-color="#c9c1ff" />
        <stop offset="100%" stop-color="#8379c7" />
      </linearGradient>
      <linearGradient id="seraph-pants" x1="0%" y1="0%" x2="100%" y2="100%">
        <stop offset="0%" stop-color="#5f5880" />
        <stop offset="100%" stop-color="#4f4870" />
      </linearGradient>
      <linearGradient id="seraph-metal" x1="0%" y1="0%" x2="100%" y2="100%">
        <stop offset="0%" stop-color="#fff9dc" />
        <stop offset="100%" stop-color="#b9ad63" />
      </linearGradient>
      <filter id="seraph-shadow" x="-50%" y="-50%" width="200%" height="200%">
        <feGaussianBlur stdDeviation="1.2" />
      </filter>
    </defs>
  
  <rect width="100%" height="100%" fill="transparent" />
  <g transform="translate(0,0)">
    <g transform="translate(64,0) scale(-1,1)">
      <ellipse cx="32" cy="55" rx="12" ry="4" fill="rgba(0,0,0,0.18)" />
      <ellipse cx="32" cy="51" rx="12" ry="3" fill="rgba(0,0,0,0.2)" opacity="0.45" />
<ellipse cx="32" cy="9" rx="7" ry="2" fill="#f1d46b" opacity="0.9" />
<path d="M 40 26 C 48 31, 48 42, 40 50 C 35 43, 36 33, 40 26 Z" fill="#8a96e0" opacity="0.95" />
<path d="M 32.1 33.5 H 32.300000000000004 Q 35.300000000000004 33.5 35.300000000000004 36.5 V 41.5 Q 35.300000000000004 44.5 32.300000000000004 44.5 H 32.1 Q 29.1 44.5 29.1 41.5 V 36.5 Q 29.1 33.5 32.1 33.5 Z" fill="url(#seraph-pants)" stroke="#1a172a" stroke-width="1" />
<path d="M 31.6 35.5 H 32.800000000000004 Q 34.300000000000004 35.5 34.300000000000004 37 V 37 Q 34.300000000000004 38.5 32.800000000000004 38.5 H 31.6 Q 30.1 38.5 30.1 37 V 37 Q 30.1 35.5 31.6 35.5 Z" fill="#f1d46b" opacity="0.12" />
<path d="M 31.700000000000003 45 H 32.7 Q 34.7 45 34.7 47 V 47 Q 34.7 49 32.7 49 H 31.700000000000003 Q 29.700000000000003 49 29.700000000000003 47 V 47 Q 29.700000000000003 45 31.700000000000003 45 Z" fill="#3c3555" stroke="#1a172a" stroke-width="1" />
<path d="M 32.699999999999996 35 H 32.9 Q 35.9 35 35.9 38 V 43 Q 35.9 46 32.9 46 H 32.699999999999996 Q 29.699999999999996 46 29.699999999999996 43 V 38 Q 29.699999999999996 35 32.699999999999996 35 Z" fill="url(#seraph-pants)" stroke="#1a172a" stroke-width="1" />
<path d="M 32.199999999999996 37 H 33.4 Q 34.9 37 34.9 38.5 V 38.5 Q 34.9 40 33.4 40 H 32.199999999999996 Q 30.699999999999996 40 30.699999999999996 38.5 V 38.5 Q 30.699999999999996 37 32.199999999999996 37 Z" fill="#f1d46b" opacity="0.12" />
<path d="M 32.3 45 H 33.3 Q 35.3 45 35.3 47 V 47 Q 35.3 49 33.3 49 H 32.3 Q 30.299999999999997 49 30.299999999999997 47 V 47 Q 30.299999999999997 45 32.3 45 Z" fill="#3c3555" stroke="#1a172a" stroke-width="1" />
<path d="M 32 24 H 36 Q 42 24 42 30 V 36 Q 42 42 36 42 H 32 Q 26 42 26 36 V 30 Q 26 24 32 24 Z" fill="url(#seraph-shirt)" stroke="#1a172a" stroke-width="1.2" stroke-linejoin="round" />
<path d="M 30.5 28 H 37.5 Q 40 28 40 30.5 V 30.5 Q 40 33 37.5 33 H 30.5 Q 28 33 28 30.5 V 30.5 Q 28 28 30.5 28 Z" fill="#f1d46b" opacity="0.75" />
<ellipse cx="31" cy="11" rx="7.3" ry="7.7" fill="url(#seraph-skin)" stroke="#1a172a" stroke-width="1.2" />
<path d="M 24 7 Q 31 2 38 7 Q 37 14 31 15 Q 25 14 24 7 Z" fill="url(#seraph-hair)" stroke="#1a172a" stroke-width="1" />
<path d="M 25 1 Q 31 -3 37 1" fill="none" stroke="#f1d46b" stroke-width="2.2" stroke-linecap="round" />
<circle cx="28.4" cy="10.2" r="0.9" fill="#17131f" />
<circle cx="33.8" cy="10.2" r="0.9" fill="#17131f" />
<path d="M 29 13.6 Q 31 15.1 33 13.6" fill="none" stroke="#1a172a" stroke-width="1" stroke-linecap="round" />
<path d="M 26 15 Q 31 18 36 15 L 35 18 Q 31 20 27 18 Z" fill="#f1d46b" opacity="0.08" />
<g transform="translate(22.2 25) rotate(-10)"><path d="M 0 0 H 0 Q 2.75 0 2.75 2.75 V 7.25 Q 2.75 10 0 10 H 0 Q -2.75 10 -2.75 7.25 V 2.75 Q -2.75 0 0 0 Z" fill="url(#seraph-skin)" stroke="#1a172a" stroke-width="1" />
<path d="M 0 2 H 0 Q 1.75 2 1.75 3.75 V 4.25 Q 1.75 6 0 6 H 0 Q -1.75 6 -1.75 4.25 V 3.75 Q -1.75 2 0 2 Z" fill="#eee0ff" opacity="0.8" /></g>
<g transform="translate(42.2 25) rotate(12)"><path d="M 0 -2 H 0 Q 2.75 -2 2.75 0.75 V 5.25 Q 2.75 8 0 8 H 0 Q -2.75 8 -2.75 5.25 V 0.75 Q -2.75 -2 0 -2 Z" fill="url(#seraph-skin)" stroke="#1a172a" stroke-width="1" />
<path d="M 0 0 H 0 Q 1.75 0 1.75 1.75 V 2.25 Q 1.75 4 0 4 H 0 Q -1.75 4 -1.75 2.25 V 1.75 Q -1.75 0 0 0 Z" fill="#eee0ff" opacity="0.8" /></g>
<g transform="translate(35.2 25.8) rotate(6)"><rect x="-1" y="-7" width="2" height="18" rx="1" fill="#b9ad63" stroke="#1a172a" stroke-width="0.8" />
<circle cx="0" cy="-8" r="4.3" fill="#f1d46b" stroke="#1a172a" stroke-width="0.8" />
<circle cx="0" cy="-8" r="1.8" fill="#fff9dc" /></g>
    </g>
  </g>
<g transform="translate(64,0)">
    <g transform="translate(64,0) scale(-1,1)">
      <ellipse cx="32" cy="55" rx="12" ry="4" fill="rgba(0,0,0,0.18)" />
      <ellipse cx="32" cy="52" rx="12" ry="3" fill="rgba(0,0,0,0.2)" opacity="0.45" />
<ellipse cx="32" cy="10" rx="7" ry="2" fill="#f1d46b" opacity="0.9" />
<path d="M 40 26 C 48 31, 48 42, 40 50 C 35 43, 36 33, 40 26 Z" fill="#8a96e0" opacity="0.95" />
<path d="M 30.5 34.5 H 30.700000000000003 Q 33.7 34.5 33.7 37.5 V 42.5 Q 33.7 45.5 30.700000000000003 45.5 H 30.5 Q 27.5 45.5 27.5 42.5 V 37.5 Q 27.5 34.5 30.5 34.5 Z" fill="url(#seraph-pants)" stroke="#1a172a" stroke-width="1" />
<path d="M 30 36.5 H 31.200000000000003 Q 32.7 36.5 32.7 38 V 38 Q 32.7 39.5 31.200000000000003 39.5 H 30 Q 28.5 39.5 28.5 38 V 38 Q 28.5 36.5 30 36.5 Z" fill="#f1d46b" opacity="0.12" />
<path d="M 30.1 46 H 31.1 Q 33.1 46 33.1 48 V 48 Q 33.1 50 31.1 50 H 30.1 Q 28.1 50 28.1 48 V 48 Q 28.1 46 30.1 46 Z" fill="#3c3555" stroke="#1a172a" stroke-width="1" />
<path d="M 34.3 36 H 34.5 Q 37.5 36 37.5 39 V 44 Q 37.5 47 34.5 47 H 34.3 Q 31.299999999999997 47 31.299999999999997 44 V 39 Q 31.299999999999997 36 34.3 36 Z" fill="url(#seraph-pants)" stroke="#1a172a" stroke-width="1" />
<path d="M 33.8 38 H 35 Q 36.5 38 36.5 39.5 V 39.5 Q 36.5 41 35 41 H 33.8 Q 32.3 41 32.3 39.5 V 39.5 Q 32.3 38 33.8 38 Z" fill="#f1d46b" opacity="0.12" />
<path d="M 33.9 46 H 34.9 Q 36.9 46 36.9 48 V 48 Q 36.9 50 34.9 50 H 33.9 Q 31.9 50 31.9 48 V 48 Q 31.9 46 33.9 46 Z" fill="#3c3555" stroke="#1a172a" stroke-width="1" />
<path d="M 30 25 H 34 Q 40 25 40 31 V 37 Q 40 43 34 43 H 30 Q 24 43 24 37 V 31 Q 24 25 30 25 Z" fill="url(#seraph-shirt)" stroke="#1a172a" stroke-width="1.2" stroke-linejoin="round" />
<path d="M 28.5 29 H 35.5 Q 38 29 38 31.5 V 31.5 Q 38 34 35.5 34 H 28.5 Q 26 34 26 31.5 V 31.5 Q 26 29 28.5 29 Z" fill="#f1d46b" opacity="0.75" />
<ellipse cx="31" cy="12" rx="7.3" ry="7.7" fill="url(#seraph-skin)" stroke="#1a172a" stroke-width="1.2" />
<path d="M 24 8 Q 31 3 38 8 Q 37 15 31 16 Q 25 15 24 8 Z" fill="url(#seraph-hair)" stroke="#1a172a" stroke-width="1" />
<path d="M 25 2 Q 31 -2 37 2" fill="none" stroke="#f1d46b" stroke-width="2.2" stroke-linecap="round" />
<circle cx="28.4" cy="11.2" r="0.9" fill="#17131f" />
<circle cx="33.8" cy="11.2" r="0.9" fill="#17131f" />
<path d="M 29 14.6 Q 31 16.1 33 14.6" fill="none" stroke="#1a172a" stroke-width="1" stroke-linecap="round" />
<path d="M 26 16 Q 31 19 36 16 L 35 19 Q 31 21 27 19 Z" fill="#f1d46b" opacity="0.08" />
<g transform="translate(21.4 26) rotate(-10)"><path d="M 0 0 H 0 Q 2.75 0 2.75 2.75 V 7.25 Q 2.75 10 0 10 H 0 Q -2.75 10 -2.75 7.25 V 2.75 Q -2.75 0 0 0 Z" fill="url(#seraph-skin)" stroke="#1a172a" stroke-width="1" />
<path d="M 0 2 H 0 Q 1.75 2 1.75 3.75 V 4.25 Q 1.75 6 0 6 H 0 Q -1.75 6 -1.75 4.25 V 3.75 Q -1.75 2 0 2 Z" fill="#eee0ff" opacity="0.8" /></g>
<g transform="translate(43.4 26) rotate(12)"><path d="M 0 -2 H 0 Q 2.75 -2 2.75 0.75 V 5.25 Q 2.75 8 0 8 H 0 Q -2.75 8 -2.75 5.25 V 0.75 Q -2.75 -2 0 -2 Z" fill="url(#seraph-skin)" stroke="#1a172a" stroke-width="1" />
<path d="M 0 0 H 0 Q 1.75 0 1.75 1.75 V 2.25 Q 1.75 4 0 4 H 0 Q -1.75 4 -1.75 2.25 V 1.75 Q -1.75 0 0 0 Z" fill="#eee0ff" opacity="0.8" /></g>
<g transform="translate(36.4 27) rotate(6)"><rect x="-1" y="-7" width="2" height="18" rx="1" fill="#b9ad63" stroke="#1a172a" stroke-width="0.8" />
<circle cx="0" cy="-8" r="4.3" fill="#f1d46b" stroke="#1a172a" stroke-width="0.8" />
<circle cx="0" cy="-8" r="1.8" fill="#fff9dc" /></g>
    </g>
  </g>
<g transform="translate(128,0)">
    <g transform="translate(64,0) scale(-1,1)">
      <ellipse cx="32" cy="55" rx="12" ry="4" fill="rgba(0,0,0,0.18)" />
      <ellipse cx="32" cy="52" rx="12" ry="3" fill="rgba(0,0,0,0.2)" opacity="0.45" />
<ellipse cx="32" cy="10" rx="7" ry="2" fill="#f1d46b" opacity="0.9" />
<path d="M 40 26 C 48 31, 48 42, 40 50 C 35 43, 36 33, 40 26 Z" fill="#8a96e0" opacity="0.95" />
<path d="M 32.1 34.5 H 32.300000000000004 Q 35.300000000000004 34.5 35.300000000000004 37.5 V 42.5 Q 35.300000000000004 45.5 32.300000000000004 45.5 H 32.1 Q 29.1 45.5 29.1 42.5 V 37.5 Q 29.1 34.5 32.1 34.5 Z" fill="url(#seraph-pants)" stroke="#1a172a" stroke-width="1" />
<path d="M 31.6 36.5 H 32.800000000000004 Q 34.300000000000004 36.5 34.300000000000004 38 V 38 Q 34.300000000000004 39.5 32.800000000000004 39.5 H 31.6 Q 30.1 39.5 30.1 38 V 38 Q 30.1 36.5 31.6 36.5 Z" fill="#f1d46b" opacity="0.12" />
<path d="M 31.700000000000003 46 H 32.7 Q 34.7 46 34.7 48 V 48 Q 34.7 50 32.7 50 H 31.700000000000003 Q 29.700000000000003 50 29.700000000000003 48 V 48 Q 29.700000000000003 46 31.700000000000003 46 Z" fill="#3c3555" stroke="#1a172a" stroke-width="1" />
<path d="M 35.9 36 H 36.1 Q 39.1 36 39.1 39 V 44 Q 39.1 47 36.1 47 H 35.9 Q 32.9 47 32.9 44 V 39 Q 32.9 36 35.9 36 Z" fill="url(#seraph-pants)" stroke="#1a172a" stroke-width="1" />
<path d="M 35.4 38 H 36.6 Q 38.1 38 38.1 39.5 V 39.5 Q 38.1 41 36.6 41 H 35.4 Q 33.9 41 33.9 39.5 V 39.5 Q 33.9 38 35.4 38 Z" fill="#f1d46b" opacity="0.12" />
<path d="M 35.5 46 H 36.5 Q 38.5 46 38.5 48 V 48 Q 38.5 50 36.5 50 H 35.5 Q 33.5 50 33.5 48 V 48 Q 33.5 46 35.5 46 Z" fill="#3c3555" stroke="#1a172a" stroke-width="1" />
<path d="M 28 25 H 32 Q 38 25 38 31 V 37 Q 38 43 32 43 H 28 Q 22 43 22 37 V 31 Q 22 25 28 25 Z" fill="url(#seraph-shirt)" stroke="#1a172a" stroke-width="1.2" stroke-linejoin="round" />
<path d="M 26.5 29 H 33.5 Q 36 29 36 31.5 V 31.5 Q 36 34 33.5 34 H 26.5 Q 24 34 24 31.5 V 31.5 Q 24 29 26.5 29 Z" fill="#f1d46b" opacity="0.75" />
<ellipse cx="31" cy="12" rx="7.3" ry="7.7" fill="url(#seraph-skin)" stroke="#1a172a" stroke-width="1.2" />
<path d="M 24 8 Q 31 3 38 8 Q 37 15 31 16 Q 25 15 24 8 Z" fill="url(#seraph-hair)" stroke="#1a172a" stroke-width="1" />
<path d="M 25 2 Q 31 -2 37 2" fill="none" stroke="#f1d46b" stroke-width="2.2" stroke-linecap="round" />
<circle cx="28.4" cy="11.2" r="0.9" fill="#17131f" />
<circle cx="33.8" cy="11.2" r="0.9" fill="#17131f" />
<path d="M 29 14.6 Q 31 16.1 33 14.6" fill="none" stroke="#1a172a" stroke-width="1" stroke-linecap="round" />
<path d="M 26 16 Q 31 19 36 16 L 35 19 Q 31 21 27 19 Z" fill="#f1d46b" opacity="0.08" />
<g transform="translate(22.2 26) rotate(-10)"><path d="M 0 0 H 0 Q 2.75 0 2.75 2.75 V 7.25 Q 2.75 10 0 10 H 0 Q -2.75 10 -2.75 7.25 V 2.75 Q -2.75 0 0 0 Z" fill="url(#seraph-skin)" stroke="#1a172a" stroke-width="1" />
<path d="M 0 2 H 0 Q 1.75 2 1.75 3.75 V 4.25 Q 1.75 6 0 6 H 0 Q -1.75 6 -1.75 4.25 V 3.75 Q -1.75 2 0 2 Z" fill="#eee0ff" opacity="0.8" /></g>
<g transform="translate(42.2 26) rotate(12)"><path d="M 0 -2 H 0 Q 2.75 -2 2.75 0.75 V 5.25 Q 2.75 8 0 8 H 0 Q -2.75 8 -2.75 5.25 V 0.75 Q -2.75 -2 0 -2 Z" fill="url(#seraph-skin)" stroke="#1a172a" stroke-width="1" />
<path d="M 0 0 H 0 Q 1.75 0 1.75 1.75 V 2.25 Q 1.75 4 0 4 H 0 Q -1.75 4 -1.75 2.25 V 1.75 Q -1.75 0 0 0 Z" fill="#eee0ff" opacity="0.8" /></g>
<g transform="translate(35.2 27) rotate(6)"><rect x="-1" y="-7" width="2" height="18" rx="1" fill="#b9ad63" stroke="#1a172a" stroke-width="0.8" />
<circle cx="0" cy="-8" r="4.3" fill="#f1d46b" stroke="#1a172a" stroke-width="0.8" />
<circle cx="0" cy="-8" r="1.8" fill="#fff9dc" /></g>
    </g>
  </g>
<g transform="translate(192,0)">
    <g transform="translate(64,0) scale(-1,1)">
      <ellipse cx="32" cy="55" rx="12" ry="4" fill="rgba(0,0,0,0.18)" />
      <ellipse cx="32" cy="51" rx="12" ry="3" fill="rgba(0,0,0,0.2)" opacity="0.45" />
<ellipse cx="32" cy="9" rx="7" ry="2" fill="#f1d46b" opacity="0.9" />
<path d="M 40 26 C 48 31, 48 42, 40 50 C 35 43, 36 33, 40 26 Z" fill="#8a96e0" opacity="0.95" />
<path d="M 28.9 33.5 H 29.1 Q 32.1 33.5 32.1 36.5 V 41.5 Q 32.1 44.5 29.1 44.5 H 28.9 Q 25.9 44.5 25.9 41.5 V 36.5 Q 25.9 33.5 28.9 33.5 Z" fill="url(#seraph-pants)" stroke="#1a172a" stroke-width="1" />
<path d="M 28.4 35.5 H 29.599999999999998 Q 31.099999999999998 35.5 31.099999999999998 37 V 37 Q 31.099999999999998 38.5 29.599999999999998 38.5 H 28.4 Q 26.9 38.5 26.9 37 V 37 Q 26.9 35.5 28.4 35.5 Z" fill="#f1d46b" opacity="0.12" />
<path d="M 28.5 45 H 29.5 Q 31.5 45 31.5 47 V 47 Q 31.5 49 29.5 49 H 28.5 Q 26.5 49 26.5 47 V 47 Q 26.5 45 28.5 45 Z" fill="#3c3555" stroke="#1a172a" stroke-width="1" />
<path d="M 37.5 35 H 37.7 Q 40.7 35 40.7 38 V 43 Q 40.7 46 37.7 46 H 37.5 Q 34.5 46 34.5 43 V 38 Q 34.5 35 37.5 35 Z" fill="url(#seraph-pants)" stroke="#1a172a" stroke-width="1" />
<path d="M 37 37 H 38.2 Q 39.7 37 39.7 38.5 V 38.5 Q 39.7 40 38.2 40 H 37 Q 35.5 40 35.5 38.5 V 38.5 Q 35.5 37 37 37 Z" fill="#f1d46b" opacity="0.12" />
<path d="M 37.1 45 H 38.1 Q 40.1 45 40.1 47 V 47 Q 40.1 49 38.1 49 H 37.1 Q 35.1 49 35.1 47 V 47 Q 35.1 45 37.1 45 Z" fill="#3c3555" stroke="#1a172a" stroke-width="1" />
<path d="M 28 24 H 32 Q 38 24 38 30 V 36 Q 38 42 32 42 H 28 Q 22 42 22 36 V 30 Q 22 24 28 24 Z" fill="url(#seraph-shirt)" stroke="#1a172a" stroke-width="1.2" stroke-linejoin="round" />
<path d="M 26.5 28 H 33.5 Q 36 28 36 30.5 V 30.5 Q 36 33 33.5 33 H 26.5 Q 24 33 24 30.5 V 30.5 Q 24 28 26.5 28 Z" fill="#f1d46b" opacity="0.75" />
<ellipse cx="31" cy="11" rx="7.3" ry="7.7" fill="url(#seraph-skin)" stroke="#1a172a" stroke-width="1.2" />
<path d="M 24 7 Q 31 2 38 7 Q 37 14 31 15 Q 25 14 24 7 Z" fill="url(#seraph-hair)" stroke="#1a172a" stroke-width="1" />
<path d="M 25 1 Q 31 -3 37 1" fill="none" stroke="#f1d46b" stroke-width="2.2" stroke-linecap="round" />
<circle cx="28.4" cy="10.2" r="0.9" fill="#17131f" />
<circle cx="33.8" cy="10.2" r="0.9" fill="#17131f" />
<path d="M 29 13.6 Q 31 15.1 33 13.6" fill="none" stroke="#1a172a" stroke-width="1" stroke-linecap="round" />
<path d="M 26 15 Q 31 18 36 15 L 35 18 Q 31 20 27 18 Z" fill="#f1d46b" opacity="0.08" />
<g transform="translate(23 25) rotate(-10)"><path d="M 0 0 H 0 Q 2.75 0 2.75 2.75 V 7.25 Q 2.75 10 0 10 H 0 Q -2.75 10 -2.75 7.25 V 2.75 Q -2.75 0 0 0 Z" fill="url(#seraph-skin)" stroke="#1a172a" stroke-width="1" />
<path d="M 0 2 H 0 Q 1.75 2 1.75 3.75 V 4.25 Q 1.75 6 0 6 H 0 Q -1.75 6 -1.75 4.25 V 3.75 Q -1.75 2 0 2 Z" fill="#eee0ff" opacity="0.8" /></g>
<g transform="translate(41 25) rotate(12)"><path d="M 0 -2 H 0 Q 2.75 -2 2.75 0.75 V 5.25 Q 2.75 8 0 8 H 0 Q -2.75 8 -2.75 5.25 V 0.75 Q -2.75 -2 0 -2 Z" fill="url(#seraph-skin)" stroke="#1a172a" stroke-width="1" />
<path d="M 0 0 H 0 Q 1.75 0 1.75 1.75 V 2.25 Q 1.75 4 0 4 H 0 Q -1.75 4 -1.75 2.25 V 1.75 Q -1.75 0 0 0 Z" fill="#eee0ff" opacity="0.8" /></g>
<g transform="translate(34 25.8) rotate(6)"><rect x="-1" y="-7" width="2" height="18" rx="1" fill="#b9ad63" stroke="#1a172a" stroke-width="0.8" />
<circle cx="0" cy="-8" r="4.3" fill="#f1d46b" stroke="#1a172a" stroke-width="0.8" />
<circle cx="0" cy="-8" r="1.8" fill="#fff9dc" /></g>
    </g>
  </g>
<g transform="translate(256,0)">
    <g transform="translate(64,0) scale(-1,1)">
      <ellipse cx="32" cy="55" rx="12" ry="4" fill="rgba(0,0,0,0.18)" />
      <ellipse cx="32" cy="52" rx="12" ry="3" fill="rgba(0,0,0,0.2)" opacity="0.45" />
<ellipse cx="32" cy="10" rx="7" ry="2" fill="#f1d46b" opacity="0.9" />
<path d="M 40 26 C 48 31, 48 42, 40 50 C 35 43, 36 33, 40 26 Z" fill="#8a96e0" opacity="0.95" />
<path d="M 27.299999999999997 34.5 H 27.499999999999996 Q 30.499999999999996 34.5 30.499999999999996 37.5 V 42.5 Q 30.499999999999996 45.5 27.499999999999996 45.5 H 27.299999999999997 Q 24.299999999999997 45.5 24.299999999999997 42.5 V 37.5 Q 24.299999999999997 34.5 27.299999999999997 34.5 Z" fill="url(#seraph-pants)" stroke="#1a172a" stroke-width="1" />
<path d="M 26.799999999999997 36.5 H 27.999999999999996 Q 29.499999999999996 36.5 29.499999999999996 38 V 38 Q 29.499999999999996 39.5 27.999999999999996 39.5 H 26.799999999999997 Q 25.299999999999997 39.5 25.299999999999997 38 V 38 Q 25.299999999999997 36.5 26.799999999999997 36.5 Z" fill="#f1d46b" opacity="0.12" />
<path d="M 26.9 46 H 27.9 Q 29.9 46 29.9 48 V 48 Q 29.9 50 27.9 50 H 26.9 Q 24.9 50 24.9 48 V 48 Q 24.9 46 26.9 46 Z" fill="#3c3555" stroke="#1a172a" stroke-width="1" />
<path d="M 39.1 36 H 39.300000000000004 Q 42.300000000000004 36 42.300000000000004 39 V 44 Q 42.300000000000004 47 39.300000000000004 47 H 39.1 Q 36.1 47 36.1 44 V 39 Q 36.1 36 39.1 36 Z" fill="url(#seraph-pants)" stroke="#1a172a" stroke-width="1" />
<path d="M 38.6 38 H 39.800000000000004 Q 41.300000000000004 38 41.300000000000004 39.5 V 39.5 Q 41.300000000000004 41 39.800000000000004 41 H 38.6 Q 37.1 41 37.1 39.5 V 39.5 Q 37.1 38 38.6 38 Z" fill="#f1d46b" opacity="0.12" />
<path d="M 38.7 46 H 39.7 Q 41.7 46 41.7 48 V 48 Q 41.7 50 39.7 50 H 38.7 Q 36.7 50 36.7 48 V 48 Q 36.7 46 38.7 46 Z" fill="#3c3555" stroke="#1a172a" stroke-width="1" />
<path d="M 30 25 H 34 Q 40 25 40 31 V 37 Q 40 43 34 43 H 30 Q 24 43 24 37 V 31 Q 24 25 30 25 Z" fill="url(#seraph-shirt)" stroke="#1a172a" stroke-width="1.2" stroke-linejoin="round" />
<path d="M 28.5 29 H 35.5 Q 38 29 38 31.5 V 31.5 Q 38 34 35.5 34 H 28.5 Q 26 34 26 31.5 V 31.5 Q 26 29 28.5 29 Z" fill="#f1d46b" opacity="0.75" />
<ellipse cx="31" cy="12" rx="7.3" ry="7.7" fill="url(#seraph-skin)" stroke="#1a172a" stroke-width="1.2" />
<path d="M 24 8 Q 31 3 38 8 Q 37 15 31 16 Q 25 15 24 8 Z" fill="url(#seraph-hair)" stroke="#1a172a" stroke-width="1" />
<path d="M 25 2 Q 31 -2 37 2" fill="none" stroke="#f1d46b" stroke-width="2.2" stroke-linecap="round" />
<circle cx="28.4" cy="11.2" r="0.9" fill="#17131f" />
<circle cx="33.8" cy="11.2" r="0.9" fill="#17131f" />
<path d="M 29 14.6 Q 31 16.1 33 14.6" fill="none" stroke="#1a172a" stroke-width="1" stroke-linecap="round" />
<path d="M 26 16 Q 31 19 36 16 L 35 19 Q 31 21 27 19 Z" fill="#f1d46b" opacity="0.08" />
<g transform="translate(23.8 26) rotate(-10)"><path d="M 0 0 H 0 Q 2.75 0 2.75 2.75 V 7.25 Q 2.75 10 0 10 H 0 Q -2.75 10 -2.75 7.25 V 2.75 Q -2.75 0 0 0 Z" fill="url(#seraph-skin)" stroke="#1a172a" stroke-width="1" />
<path d="M 0 2 H 0 Q 1.75 2 1.75 3.75 V 4.25 Q 1.75 6 0 6 H 0 Q -1.75 6 -1.75 4.25 V 3.75 Q -1.75 2 0 2 Z" fill="#eee0ff" opacity="0.8" /></g>
<g transform="translate(39.8 26) rotate(12)"><path d="M 0 -2 H 0 Q 2.75 -2 2.75 0.75 V 5.25 Q 2.75 8 0 8 H 0 Q -2.75 8 -2.75 5.25 V 0.75 Q -2.75 -2 0 -2 Z" fill="url(#seraph-skin)" stroke="#1a172a" stroke-width="1" />
<path d="M 0 0 H 0 Q 1.75 0 1.75 1.75 V 2.25 Q 1.75 4 0 4 H 0 Q -1.75 4 -1.75 2.25 V 1.75 Q -1.75 0 0 0 Z" fill="#eee0ff" opacity="0.8" /></g>
<g transform="translate(32.8 27) rotate(6)"><rect x="-1" y="-7" width="2" height="18" rx="1" fill="#b9ad63" stroke="#1a172a" stroke-width="0.8" />
<circle cx="0" cy="-8" r="4.3" fill="#f1d46b" stroke="#1a172a" stroke-width="0.8" />
<circle cx="0" cy="-8" r="1.8" fill="#fff9dc" /></g>
    </g>
  </g>
<g transform="translate(320,0)">
    <g transform="translate(64,0) scale(-1,1)">
      <ellipse cx="32" cy="55" rx="12" ry="4" fill="rgba(0,0,0,0.18)" />
      <ellipse cx="32" cy="53" rx="12" ry="3" fill="rgba(0,0,0,0.2)" opacity="0.45" />
<ellipse cx="32" cy="11" rx="7" ry="2" fill="#f1d46b" opacity="0.9" />
<path d="M 40 26 C 48 31, 48 42, 40 50 C 35 43, 36 33, 40 26 Z" fill="#8a96e0" opacity="0.95" />
<path d="M 25.7 35.5 H 25.9 Q 28.9 35.5 28.9 38.5 V 43.5 Q 28.9 46.5 25.9 46.5 H 25.7 Q 22.7 46.5 22.7 43.5 V 38.5 Q 22.7 35.5 25.7 35.5 Z" fill="url(#seraph-pants)" stroke="#1a172a" stroke-width="1" />
<path d="M 25.2 37.5 H 26.4 Q 27.9 37.5 27.9 39 V 39 Q 27.9 40.5 26.4 40.5 H 25.2 Q 23.7 40.5 23.7 39 V 39 Q 23.7 37.5 25.2 37.5 Z" fill="#f1d46b" opacity="0.12" />
<path d="M 25.3 47 H 26.3 Q 28.3 47 28.3 49 V 49 Q 28.3 51 26.3 51 H 25.3 Q 23.3 51 23.3 49 V 49 Q 23.3 47 25.3 47 Z" fill="#3c3555" stroke="#1a172a" stroke-width="1" />
<path d="M 37.5 37 H 37.7 Q 40.7 37 40.7 40 V 45 Q 40.7 48 37.7 48 H 37.5 Q 34.5 48 34.5 45 V 40 Q 34.5 37 37.5 37 Z" fill="url(#seraph-pants)" stroke="#1a172a" stroke-width="1" />
<path d="M 37 39 H 38.2 Q 39.7 39 39.7 40.5 V 40.5 Q 39.7 42 38.2 42 H 37 Q 35.5 42 35.5 40.5 V 40.5 Q 35.5 39 37 39 Z" fill="#f1d46b" opacity="0.12" />
<path d="M 37.1 47 H 38.1 Q 40.1 47 40.1 49 V 49 Q 40.1 51 38.1 51 H 37.1 Q 35.1 51 35.1 49 V 49 Q 35.1 47 37.1 47 Z" fill="#3c3555" stroke="#1a172a" stroke-width="1" />
<path d="M 32 26 H 36 Q 42 26 42 32 V 38 Q 42 44 36 44 H 32 Q 26 44 26 38 V 32 Q 26 26 32 26 Z" fill="url(#seraph-shirt)" stroke="#1a172a" stroke-width="1.2" stroke-linejoin="round" />
<path d="M 30.5 30 H 37.5 Q 40 30 40 32.5 V 32.5 Q 40 35 37.5 35 H 30.5 Q 28 35 28 32.5 V 32.5 Q 28 30 30.5 30 Z" fill="#f1d46b" opacity="0.75" />
<ellipse cx="31" cy="13" rx="7.3" ry="7.7" fill="url(#seraph-skin)" stroke="#1a172a" stroke-width="1.2" />
<path d="M 24 9 Q 31 4 38 9 Q 37 16 31 17 Q 25 16 24 9 Z" fill="url(#seraph-hair)" stroke="#1a172a" stroke-width="1" />
<path d="M 25 3 Q 31 -1 37 3" fill="none" stroke="#f1d46b" stroke-width="2.2" stroke-linecap="round" />
<circle cx="28.4" cy="12.2" r="0.9" fill="#17131f" />
<circle cx="33.8" cy="12.2" r="0.9" fill="#17131f" />
<path d="M 29 15.6 Q 31 17.1 33 15.6" fill="none" stroke="#1a172a" stroke-width="1" stroke-linecap="round" />
<path d="M 26 17 Q 31 20 36 17 L 35 20 Q 31 22 27 20 Z" fill="#f1d46b" opacity="0.08" />
<g transform="translate(23 27) rotate(-10)"><path d="M 0 0 H 0 Q 2.75 0 2.75 2.75 V 7.25 Q 2.75 10 0 10 H 0 Q -2.75 10 -2.75 7.25 V 2.75 Q -2.75 0 0 0 Z" fill="url(#seraph-skin)" stroke="#1a172a" stroke-width="1" />
<path d="M 0 2 H 0 Q 1.75 2 1.75 3.75 V 4.25 Q 1.75 6 0 6 H 0 Q -1.75 6 -1.75 4.25 V 3.75 Q -1.75 2 0 2 Z" fill="#eee0ff" opacity="0.8" /></g>
<g transform="translate(41 27) rotate(12)"><path d="M 0 -2 H 0 Q 2.75 -2 2.75 0.75 V 5.25 Q 2.75 8 0 8 H 0 Q -2.75 8 -2.75 5.25 V 0.75 Q -2.75 -2 0 -2 Z" fill="url(#seraph-skin)" stroke="#1a172a" stroke-width="1" />
<path d="M 0 0 H 0 Q 1.75 0 1.75 1.75 V 2.25 Q 1.75 4 0 4 H 0 Q -1.75 4 -1.75 2.25 V 1.75 Q -1.75 0 0 0 Z" fill="#eee0ff" opacity="0.8" /></g>
<g transform="translate(34 28.2) rotate(6)"><rect x="-1" y="-7" width="2" height="18" rx="1" fill="#b9ad63" stroke="#1a172a" stroke-width="0.8" />
<circle cx="0" cy="-8" r="4.3" fill="#f1d46b" stroke="#1a172a" stroke-width="0.8" />
<circle cx="0" cy="-8" r="1.8" fill="#fff9dc" /></g>
    </g>
  </g>
<g transform="translate(384,0)">
    <g transform="translate(64,0) scale(-1,1)">
      <ellipse cx="32" cy="55" rx="12" ry="4" fill="rgba(0,0,0,0.18)" />
      <ellipse cx="32" cy="52" rx="12" ry="3" fill="rgba(0,0,0,0.2)" opacity="0.45" />
<ellipse cx="32" cy="10" rx="7" ry="2" fill="#f1d46b" opacity="0.9" />
<path d="M 40 26 C 48 31, 48 42, 40 50 C 35 43, 36 33, 40 26 Z" fill="#8a96e0" opacity="0.95" />
<path d="M 30.5 34.5 H 30.700000000000003 Q 33.7 34.5 33.7 37.5 V 42.5 Q 33.7 45.5 30.700000000000003 45.5 H 30.5 Q 27.5 45.5 27.5 42.5 V 37.5 Q 27.5 34.5 30.5 34.5 Z" fill="url(#seraph-pants)" stroke="#1a172a" stroke-width="1" />
<path d="M 30 36.5 H 31.200000000000003 Q 32.7 36.5 32.7 38 V 38 Q 32.7 39.5 31.200000000000003 39.5 H 30 Q 28.5 39.5 28.5 38 V 38 Q 28.5 36.5 30 36.5 Z" fill="#f1d46b" opacity="0.12" />
<path d="M 30.1 46 H 31.1 Q 33.1 46 33.1 48 V 48 Q 33.1 50 31.1 50 H 30.1 Q 28.1 50 28.1 48 V 48 Q 28.1 46 30.1 46 Z" fill="#3c3555" stroke="#1a172a" stroke-width="1" />
<path d="M 34.3 36 H 34.5 Q 37.5 36 37.5 39 V 44 Q 37.5 47 34.5 47 H 34.3 Q 31.299999999999997 47 31.299999999999997 44 V 39 Q 31.299999999999997 36 34.3 36 Z" fill="url(#seraph-pants)" stroke="#1a172a" stroke-width="1" />
<path d="M 33.8 38 H 35 Q 36.5 38 36.5 39.5 V 39.5 Q 36.5 41 35 41 H 33.8 Q 32.3 41 32.3 39.5 V 39.5 Q 32.3 38 33.8 38 Z" fill="#f1d46b" opacity="0.12" />
<path d="M 33.9 46 H 34.9 Q 36.9 46 36.9 48 V 48 Q 36.9 50 34.9 50 H 33.9 Q 31.9 50 31.9 48 V 48 Q 31.9 46 33.9 46 Z" fill="#3c3555" stroke="#1a172a" stroke-width="1" />
<path d="M 30 25 H 34 Q 40 25 40 31 V 37 Q 40 43 34 43 H 30 Q 24 43 24 37 V 31 Q 24 25 30 25 Z" fill="url(#seraph-shirt)" stroke="#1a172a" stroke-width="1.2" stroke-linejoin="round" />
<path d="M 28.5 29 H 35.5 Q 38 29 38 31.5 V 31.5 Q 38 34 35.5 34 H 28.5 Q 26 34 26 31.5 V 31.5 Q 26 29 28.5 29 Z" fill="#f1d46b" opacity="0.75" />
<ellipse cx="31" cy="12" rx="7.3" ry="7.7" fill="url(#seraph-skin)" stroke="#1a172a" stroke-width="1.2" />
<path d="M 24 8 Q 31 3 38 8 Q 37 15 31 16 Q 25 15 24 8 Z" fill="url(#seraph-hair)" stroke="#1a172a" stroke-width="1" />
<path d="M 25 2 Q 31 -2 37 2" fill="none" stroke="#f1d46b" stroke-width="2.2" stroke-linecap="round" />
<circle cx="28.4" cy="11.2" r="0.9" fill="#17131f" />
<circle cx="33.8" cy="11.2" r="0.9" fill="#17131f" />
<path d="M 29 14.6 Q 31 16.1 33 14.6" fill="none" stroke="#1a172a" stroke-width="1" stroke-linecap="round" />
<path d="M 26 16 Q 31 19 36 16 L 35 19 Q 31 21 27 19 Z" fill="#f1d46b" opacity="0.08" />
<g transform="translate(22.2 26) rotate(-10)"><path d="M 0 0 H 0 Q 2.75 0 2.75 2.75 V 7.25 Q 2.75 10 0 10 H 0 Q -2.75 10 -2.75 7.25 V 2.75 Q -2.75 0 0 0 Z" fill="url(#seraph-skin)" stroke="#1a172a" stroke-width="1" />
<path d="M 0 2 H 0 Q 1.75 2 1.75 3.75 V 4.25 Q 1.75 6 0 6 H 0 Q -1.75 6 -1.75 4.25 V 3.75 Q -1.75 2 0 2 Z" fill="#eee0ff" opacity="0.8" /></g>
<g transform="translate(42.2 26) rotate(12)"><path d="M 0 -2 H 0 Q 2.75 -2 2.75 0.75 V 5.25 Q 2.75 8 0 8 H 0 Q -2.75 8 -2.75 5.25 V 0.75 Q -2.75 -2 0 -2 Z" fill="url(#seraph-skin)" stroke="#1a172a" stroke-width="1" />
<path d="M 0 0 H 0 Q 1.75 0 1.75 1.75 V 2.25 Q 1.75 4 0 4 H 0 Q -1.75 4 -1.75 2.25 V 1.75 Q -1.75 0 0 0 Z" fill="#eee0ff" opacity="0.8" /></g>
<g transform="translate(35.2 27) rotate(6)"><rect x="-1" y="-7" width="2" height="18" rx="1" fill="#b9ad63" stroke="#1a172a" stroke-width="0.8" />
<circle cx="0" cy="-8" r="4.3" fill="#f1d46b" stroke="#1a172a" stroke-width="0.8" />
<circle cx="0" cy="-8" r="1.8" fill="#fff9dc" /></g>
    </g>
  </g>
</svg>
