<?xml version="1.0" encoding="UTF-8"?>
<svg xmlns="http://www.w3.org/2000/svg" viewBox="0 0 256 64" width="256" height="64" shape-rendering="geometricPrecision">
  
    <defs>
      <linearGradient id="orc-shirt" x1="0%" y1="0%" x2="100%" y2="100%">
        <stop offset="0%" stop-color="#4f7458" />
        <stop offset="100%" stop-color="#34533b" />
      </linearGradient>
      <linearGradient id="orc-skin" x1="0%" y1="0%" x2="100%" y2="100%">
        <stop offset="0%" stop-color="#9bcf83" />
        <stop offset="100%" stop-color="#89bd71" />
      </linearGradient>
      <linearGradient id="orc-hair" x1="0%" y1="0%" x2="100%" y2="100%">
        <stop offset="0%" stop-color="#314f35" />
        <stop offset="100%" stop-color="#203323" />
      </linearGradient>
      <linearGradient id="orc-pants" x1="0%" y1="0%" x2="100%" y2="100%">
        <stop offset="0%" stop-color="#2f4330" />
        <stop offset="100%" stop-color="#1f3320" />
      </linearGradient>
      <linearGradient id="orc-metal" x1="0%" y1="0%" x2="100%" y2="100%">
        <stop offset="0%" stop-color="#edf3f0" />
        <stop offset="100%" stop-color="#8b9892" />
      </linearGradient>
      <filter id="orc-shadow" x="-50%" y="-50%" width="200%" height="200%">
        <feGaussianBlur stdDeviation="1.2" />
      </filter>
    </defs>
  
  <rect width="100%" height="100%" fill="transparent" />
  <g transform="translate(0,0)">
    <g transform="translate(64,0) scale(-1,1)">
      <ellipse cx="32" cy="55" rx="12" ry="4" fill="rgba(0,0,0,0.18)" />
      <ellipse cx="32" cy="52" rx="12" ry="3" fill="rgba(0,0,0,0.2)" opacity="0.45" />
<path d="M 40 26 C 48 31, 48 42, 40 50 C 35 43, 36 33, 40 26 Z" fill="#253d2e" opacity="0.95" />
<path d="M 28.6 34.5 H 29.4 Q 32.4 34.5 32.4 37.5 V 42.5 Q 32.4 45.5 29.4 45.5 H 28.6 Q 25.6 45.5 25.6 42.5 V 37.5 Q 25.6 34.5 28.6 34.5 Z" fill="url(#orc-pants)" stroke="#121a13" stroke-width="1" />
<path d="M 28.1 36.5 H 29.900000000000002 Q 31.400000000000002 36.5 31.400000000000002 38 V 38 Q 31.400000000000002 39.5 29.900000000000002 39.5 H 28.1 Q 26.6 39.5 26.6 38 V 38 Q 26.6 36.5 28.1 36.5 Z" fill="#d9a24d" opacity="0.12" />
<path d="M 28.5 46 H 29.5 Q 31.5 46 31.5 48 V 48 Q 31.5 50 29.5 50 H 28.5 Q 26.5 50 26.5 48 V 48 Q 26.5 46 28.5 46 Z" fill="#1b241a" stroke="#121a13" stroke-width="1" />
<path d="M 35.6 36 H 36.4 Q 39.4 36 39.4 39 V 44 Q 39.4 47 36.4 47 H 35.6 Q 32.6 47 32.6 44 V 39 Q 32.6 36 35.6 36 Z" fill="url(#orc-pants)" stroke="#121a13" stroke-width="1" />
<path d="M 35.1 38 H 36.9 Q 38.4 38 38.4 39.5 V 39.5 Q 38.4 41 36.9 41 H 35.1 Q 33.6 41 33.6 39.5 V 39.5 Q 33.6 38 35.1 38 Z" fill="#d9a24d" opacity="0.12" />
<path d="M 35.5 46 H 36.5 Q 38.5 46 38.5 48 V 48 Q 38.5 50 36.5 50 H 35.5 Q 33.5 50 33.5 48 V 48 Q 33.5 46 35.5 46 Z" fill="#1b241a" stroke="#121a13" stroke-width="1" />
<path d="M 29 25 H 35 Q 41 25 41 31 V 36 Q 41 42 35 42 H 29 Q 23 42 23 36 V 31 Q 23 25 29 25 Z" fill="url(#orc-shirt)" stroke="#121a13" stroke-width="1.2" stroke-linejoin="round" />
<path d="M 27.5 29 H 36.5 Q 39 29 39 31.5 V 31.5 Q 39 34 36.5 34 H 27.5 Q 25 34 25 31.5 V 31.5 Q 25 29 27.5 29 Z" fill="#d9a24d" opacity="0.75" />
<ellipse cx="31" cy="12" rx="8.5" ry="7.7" fill="url(#orc-skin)" stroke="#121a13" stroke-width="1.2" />
<path d="M 24 9 Q 31 2 38 9 Q 37 15 31 16 Q 25 15 24 9 Z" fill="url(#orc-hair)" stroke="#121a13" stroke-width="1" />
<path d="M 28.4 16.2 Q 27.4 20.2 29.4 22.2" fill="none" stroke="#f2e7c2" stroke-width="1.2" stroke-linecap="round" />
<path d="M 33.6 16.2 Q 32.6 20.2 34.6 22.2" fill="none" stroke="#f2e7c2" stroke-width="1.2" stroke-linecap="round" />
<circle cx="28.4" cy="11.2" r="0.9" fill="#17131f" />
<circle cx="33.8" cy="11.2" r="0.9" fill="#17131f" />
<path d="M 29 14.6 Q 31 15.6 33 14.6" fill="none" stroke="#121a13" stroke-width="1" stroke-linecap="round" />
<path d="M 26 16 Q 31 19 36 16 L 35 19 Q 31 21 27 19 Z" fill="#d9a24d" opacity="0.08" />
<g transform="translate(23 26) rotate(-10)"><path d="M 0 0 H 0 Q 2.75 0 2.75 2.75 V 9.25 Q 2.75 12 0 12 H 0 Q -2.75 12 -2.75 9.25 V 2.75 Q -2.75 0 0 0 Z" fill="url(#orc-skin)" stroke="#121a13" stroke-width="1" />
<path d="M 0 2 H 0 Q 1.75 2 1.75 3.75 V 4.25 Q 1.75 6 0 6 H 0 Q -1.75 6 -1.75 4.25 V 3.75 Q -1.75 2 0 2 Z" fill="#4f7458" opacity="0.8" /></g>
<g transform="translate(41 26) rotate(16)"><path d="M 0 -2 H 0 Q 2.75 -2 2.75 0.75 V 7.25 Q 2.75 10 0 10 H 0 Q -2.75 10 -2.75 7.25 V 0.75 Q -2.75 -2 0 -2 Z" fill="url(#orc-skin)" stroke="#121a13" stroke-width="1" />
<path d="M 0 0 H 0 Q 1.75 0 1.75 1.75 V 2.25 Q 1.75 4 0 4 H 0 Q -1.75 4 -1.75 2.25 V 1.75 Q -1.75 0 0 0 Z" fill="#4f7458" opacity="0.8" /></g>
<g transform="translate(34 27) rotate(-20)"><path d="M -1 -5 L 1 -5 L 0 12 Z" fill="#8b9892" stroke="#121a13" stroke-width="0.8" />
<path d="M -8 -3 Q -5 -9 1 -8 Q 2 -1 -2 2 Z" fill="url(#orc-metal)" stroke="#121a13" stroke-width="0.8" /></g>
    </g>
  </g>
<g transform="translate(64,0)">
    <g transform="translate(64,0) scale(-1,1)">
      <ellipse cx="32" cy="55" rx="12" ry="4" fill="rgba(0,0,0,0.18)" />
      <ellipse cx="32" cy="53" rx="12" ry="3" fill="rgba(0,0,0,0.2)" opacity="0.45" />
<path d="M 38.8 26 C 46.8 31, 46.8 42, 38.8 50 C 33.8 43, 34.8 33, 38.8 26 Z" fill="#253d2e" opacity="0.95" />
<path d="M 28.6 35.5 H 29.4 Q 32.4 35.5 32.4 38.5 V 43.5 Q 32.4 46.5 29.4 46.5 H 28.6 Q 25.6 46.5 25.6 43.5 V 38.5 Q 25.6 35.5 28.6 35.5 Z" fill="url(#orc-pants)" stroke="#121a13" stroke-width="1" />
<path d="M 28.1 37.5 H 29.900000000000002 Q 31.400000000000002 37.5 31.400000000000002 39 V 39 Q 31.400000000000002 40.5 29.900000000000002 40.5 H 28.1 Q 26.6 40.5 26.6 39 V 39 Q 26.6 37.5 28.1 37.5 Z" fill="#d9a24d" opacity="0.12" />
<path d="M 28.5 47 H 29.5 Q 31.5 47 31.5 49 V 49 Q 31.5 51 29.5 51 H 28.5 Q 26.5 51 26.5 49 V 49 Q 26.5 47 28.5 47 Z" fill="#1b241a" stroke="#121a13" stroke-width="1" />
<path d="M 35.6 37 H 36.4 Q 39.4 37 39.4 40 V 45 Q 39.4 48 36.4 48 H 35.6 Q 32.6 48 32.6 45 V 40 Q 32.6 37 35.6 37 Z" fill="url(#orc-pants)" stroke="#121a13" stroke-width="1" />
<path d="M 35.1 39 H 36.9 Q 38.4 39 38.4 40.5 V 40.5 Q 38.4 42 36.9 42 H 35.1 Q 33.6 42 33.6 40.5 V 40.5 Q 33.6 39 35.1 39 Z" fill="#d9a24d" opacity="0.12" />
<path d="M 35.5 47 H 36.5 Q 38.5 47 38.5 49 V 49 Q 38.5 51 36.5 51 H 35.5 Q 33.5 51 33.5 49 V 49 Q 33.5 47 35.5 47 Z" fill="#1b241a" stroke="#121a13" stroke-width="1" />
<path d="M 29 26 H 35 Q 41 26 41 32 V 37 Q 41 43 35 43 H 29 Q 23 43 23 37 V 32 Q 23 26 29 26 Z" fill="url(#orc-shirt)" stroke="#121a13" stroke-width="1.2" stroke-linejoin="round" />
<path d="M 27.5 30 H 36.5 Q 39 30 39 32.5 V 32.5 Q 39 35 36.5 35 H 27.5 Q 25 35 25 32.5 V 32.5 Q 25 30 27.5 30 Z" fill="#d9a24d" opacity="0.75" />
<ellipse cx="31" cy="13" rx="8.5" ry="7.7" fill="url(#orc-skin)" stroke="#121a13" stroke-width="1.2" />
<path d="M 24 10 Q 31 3 38 10 Q 37 16 31 17 Q 25 16 24 10 Z" fill="url(#orc-hair)" stroke="#121a13" stroke-width="1" />
<path d="M 28.4 17.2 Q 27.4 21.2 29.4 23.2" fill="none" stroke="#f2e7c2" stroke-width="1.2" stroke-linecap="round" />
<path d="M 33.6 17.2 Q 32.6 21.2 34.6 23.2" fill="none" stroke="#f2e7c2" stroke-width="1.2" stroke-linecap="round" />
<circle cx="28.4" cy="12.2" r="0.9" fill="#17131f" />
<circle cx="33.8" cy="12.2" r="0.9" fill="#17131f" />
<path d="M 29 15.6 Q 31 16.6 33 15.6" fill="none" stroke="#121a13" stroke-width="1" stroke-linecap="round" />
<path d="M 26 17 Q 31 20 36 17 L 35 20 Q 31 22 27 20 Z" fill="#d9a24d" opacity="0.08" />
<g transform="translate(23 27) rotate(-10)"><path d="M 0 0 H 0 Q 2.75 0 2.75 2.75 V 9.25 Q 2.75 12 0 12 H 0 Q -2.75 12 -2.75 9.25 V 2.75 Q -2.75 0 0 0 Z" fill="url(#orc-skin)" stroke="#121a13" stroke-width="1" />
<path d="M 0 2 H 0 Q 1.75 2 1.75 3.75 V 4.25 Q 1.75 6 0 6 H 0 Q -1.75 6 -1.75 4.25 V 3.75 Q -1.75 2 0 2 Z" fill="#4f7458" opacity="0.8" /></g>
<g transform="translate(41 27) rotate(16)"><path d="M 0 -2 H 0 Q 2.75 -2 2.75 0.75 V 7.25 Q 2.75 10 0 10 H 0 Q -2.75 10 -2.75 7.25 V 0.75 Q -2.75 -2 0 -2 Z" fill="url(#orc-skin)" stroke="#121a13" stroke-width="1" />
<path d="M 0 0 H 0 Q 1.75 0 1.75 1.75 V 2.25 Q 1.75 4 0 4 H 0 Q -1.75 4 -1.75 2.25 V 1.75 Q -1.75 0 0 0 Z" fill="#4f7458" opacity="0.8" /></g>
<g transform="translate(34 28.2) rotate(-20)"><path d="M -1 -5 L 1 -5 L 0 12 Z" fill="#8b9892" stroke="#121a13" stroke-width="0.8" />
<path d="M -8 -3 Q -5 -9 1 -8 Q 2 -1 -2 2 Z" fill="url(#orc-metal)" stroke="#121a13" stroke-width="0.8" /></g>
    </g>
  </g>
<g transform="translate(128,0)">
    <g transform="translate(64,0) scale(-1,1)">
      <ellipse cx="32" cy="55" rx="12" ry="4" fill="rgba(0,0,0,0.18)" />
      <ellipse cx="32" cy="52" rx="12" ry="3" fill="rgba(0,0,0,0.2)" opacity="0.45" />
<path d="M 41.2 26 C 49.2 31, 49.2 42, 41.2 50 C 36.2 43, 37.2 33, 41.2 26 Z" fill="#253d2e" opacity="0.95" />
<path d="M 28.6 34.5 H 29.4 Q 32.4 34.5 32.4 37.5 V 42.5 Q 32.4 45.5 29.4 45.5 H 28.6 Q 25.6 45.5 25.6 42.5 V 37.5 Q 25.6 34.5 28.6 34.5 Z" fill="url(#orc-pants)" stroke="#121a13" stroke-width="1" />
<path d="M 28.1 36.5 H 29.900000000000002 Q 31.400000000000002 36.5 31.400000000000002 38 V 38 Q 31.400000000000002 39.5 29.900000000000002 39.5 H 28.1 Q 26.6 39.5 26.6 38 V 38 Q 26.6 36.5 28.1 36.5 Z" fill="#d9a24d" opacity="0.12" />
<path d="M 28.5 46 H 29.5 Q 31.5 46 31.5 48 V 48 Q 31.5 50 29.5 50 H 28.5 Q 26.5 50 26.5 48 V 48 Q 26.5 46 28.5 46 Z" fill="#1b241a" stroke="#121a13" stroke-width="1" />
<path d="M 35.6 36 H 36.4 Q 39.4 36 39.4 39 V 44 Q 39.4 47 36.4 47 H 35.6 Q 32.6 47 32.6 44 V 39 Q 32.6 36 35.6 36 Z" fill="url(#orc-pants)" stroke="#121a13" stroke-width="1" />
<path d="M 35.1 38 H 36.9 Q 38.4 38 38.4 39.5 V 39.5 Q 38.4 41 36.9 41 H 35.1 Q 33.6 41 33.6 39.5 V 39.5 Q 33.6 38 35.1 38 Z" fill="#d9a24d" opacity="0.12" />
<path d="M 35.5 46 H 36.5 Q 38.5 46 38.5 48 V 48 Q 38.5 50 36.5 50 H 35.5 Q 33.5 50 33.5 48 V 48 Q 33.5 46 35.5 46 Z" fill="#1b241a" stroke="#121a13" stroke-width="1" />
<path d="M 29 25 H 35 Q 41 25 41 31 V 36 Q 41 42 35 42 H 29 Q 23 42 23 36 V 31 Q 23 25 29 25 Z" fill="url(#orc-shirt)" stroke="#121a13" stroke-width="1.2" stroke-linejoin="round" />
<path d="M 27.5 29 H 36.5 Q 39 29 39 31.5 V 31.5 Q 39 34 36.5 34 H 27.5 Q 25 34 25 31.5 V 31.5 Q 25 29 27.5 29 Z" fill="#d9a24d" opacity="0.75" />
<ellipse cx="31" cy="12" rx="8.5" ry="7.7" fill="url(#orc-skin)" stroke="#121a13" stroke-width="1.2" />
<path d="M 24 9 Q 31 2 38 9 Q 37 15 31 16 Q 25 15 24 9 Z" fill="url(#orc-hair)" stroke="#121a13" stroke-width="1" />
<path d="M 28.4 16.2 Q 27.4 20.2 29.4 22.2" fill="none" stroke="#f2e7c2" stroke-width="1.2" stroke-linecap="round" />
<path d="M 33.6 16.2 Q 32.6 20.2 34.6 22.2" fill="none" stroke="#f2e7c2" stroke-width="1.2" stroke-linecap="round" />
<circle cx="28.4" cy="11.2" r="0.9" fill="#17131f" />
<circle cx="33.8" cy="11.2" r="0.9" fill="#17131f" />
<path d="M 29 14.6 Q 31 15.6 33 14.6" fill="none" stroke="#121a13" stroke-width="1" stroke-linecap="round" />
<path d="M 26 16 Q 31 19 36 16 L 35 19 Q 31 21 27 19 Z" fill="#d9a24d" opacity="0.08" />
<g transform="translate(23 26) rotate(-10)"><path d="M 0 0 H 0 Q 2.75 0 2.75 2.75 V 9.25 Q 2.75 12 0 12 H 0 Q -2.75 12 -2.75 9.25 V 2.75 Q -2.75 0 0 0 Z" fill="url(#orc-skin)" stroke="#121a13" stroke-width="1" />
<path d="M 0 2 H 0 Q 1.75 2 1.75 3.75 V 4.25 Q 1.75 6 0 6 H 0 Q -1.75 6 -1.75 4.25 V 3.75 Q -1.75 2 0 2 Z" fill="#4f7458" opacity="0.8" /></g>
<g transform="translate(41 26) rotate(16)"><path d="M 0 -2 H 0 Q 2.75 -2 2.75 0.75 V 7.25 Q 2.75 10 0 10 H 0 Q -2.75 10 -2.75 7.25 V 0.75 Q -2.75 -2 0 -2 Z" fill="url(#orc-skin)" stroke="#121a13" stroke-width="1" />
<path d="M 0 0 H 0 Q 1.75 0 1.75 1.75 V 2.25 Q 1.75 4 0 4 H 0 Q -1.75 4 -1.75 2.25 V 1.75 Q -1.75 0 0 0 Z" fill="#4f7458" opacity="0.8" /></g>
<g transform="translate(34 27) rotate(-20)"><path d="M -1 -5 L 1 -5 L 0 12 Z" fill="#8b9892" stroke="#121a13" stroke-width="0.8" />
<path d="M -8 -3 Q -5 -9 1 -8 Q 2 -1 -2 2 Z" fill="url(#orc-metal)" stroke="#121a13" stroke-width="0.8" /></g>
    </g>
  </g>
<g transform="translate(192,0)">
    <g transform="translate(64,0) scale(-1,1)">
      <ellipse cx="32" cy="55" rx="12" ry="4" fill="rgba(0,0,0,0.18)" />
      <ellipse cx="32" cy="51" rx="12" ry="3" fill="rgba(0,0,0,0.2)" opacity="0.45" />
<path d="M 40 26 C 48 31, 48 42, 40 50 C 35 43, 36 33, 40 26 Z" fill="#253d2e" opacity="0.95" />
<path d="M 28.6 33.5 H 29.4 Q 32.4 33.5 32.4 36.5 V 41.5 Q 32.4 44.5 29.4 44.5 H 28.6 Q 25.6 44.5 25.6 41.5 V 36.5 Q 25.6 33.5 28.6 33.5 Z" fill="url(#orc-pants)" stroke="#121a13" stroke-width="1" />
<path d="M 28.1 35.5 H 29.900000000000002 Q 31.400000000000002 35.5 31.400000000000002 37 V 37 Q 31.400000000000002 38.5 29.900000000000002 38.5 H 28.1 Q 26.6 38.5 26.6 37 V 37 Q 26.6 35.5 28.1 35.5 Z" fill="#d9a24d" opacity="0.12" />
<path d="M 28.5 45 H 29.5 Q 31.5 45 31.5 47 V 47 Q 31.5 49 29.5 49 H 28.5 Q 26.5 49 26.5 47 V 47 Q 26.5 45 28.5 45 Z" fill="#1b241a" stroke="#121a13" stroke-width="1" />
<path d="M 35.6 35 H 36.4 Q 39.4 35 39.4 38 V 43 Q 39.4 46 36.4 46 H 35.6 Q 32.6 46 32.6 43 V 38 Q 32.6 35 35.6 35 Z" fill="url(#orc-pants)" stroke="#121a13" stroke-width="1" />
<path d="M 35.1 37 H 36.9 Q 38.4 37 38.4 38.5 V 38.5 Q 38.4 40 36.9 40 H 35.1 Q 33.6 40 33.6 38.5 V 38.5 Q 33.6 37 35.1 37 Z" fill="#d9a24d" opacity="0.12" />
<path d="M 35.5 45 H 36.5 Q 38.5 45 38.5 47 V 47 Q 38.5 49 36.5 49 H 35.5 Q 33.5 49 33.5 47 V 47 Q 33.5 45 35.5 45 Z" fill="#1b241a" stroke="#121a13" stroke-width="1" />
<path d="M 29 24 H 35 Q 41 24 41 30 V 35 Q 41 41 35 41 H 29 Q 23 41 23 35 V 30 Q 23 24 29 24 Z" fill="url(#orc-shirt)" stroke="#121a13" stroke-width="1.2" stroke-linejoin="round" />
<path d="M 27.5 28 H 36.5 Q 39 28 39 30.5 V 30.5 Q 39 33 36.5 33 H 27.5 Q 25 33 25 30.5 V 30.5 Q 25 28 27.5 28 Z" fill="#d9a24d" opacity="0.75" />
<ellipse cx="31" cy="11" rx="8.5" ry="7.7" fill="url(#orc-skin)" stroke="#121a13" stroke-width="1.2" />
<path d="M 24 8 Q 31 1 38 8 Q 37 14 31 15 Q 25 14 24 8 Z" fill="url(#orc-hair)" stroke="#121a13" stroke-width="1" />
<path d="M 28.4 15.2 Q 27.4 19.2 29.4 21.2" fill="none" stroke="#f2e7c2" stroke-width="1.2" stroke-linecap="round" />
<path d="M 33.6 15.2 Q 32.6 19.2 34.6 21.2" fill="none" stroke="#f2e7c2" stroke-width="1.2" stroke-linecap="round" />
<circle cx="28.4" cy="10.2" r="0.9" fill="#17131f" />
<circle cx="33.8" cy="10.2" r="0.9" fill="#17131f" />
<path d="M 29 13.6 Q 31 14.6 33 13.6" fill="none" stroke="#121a13" stroke-width="1" stroke-linecap="round" />
<path d="M 26 15 Q 31 18 36 15 L 35 18 Q 31 20 27 18 Z" fill="#d9a24d" opacity="0.08" />
<g transform="translate(23 25) rotate(-10)"><path d="M 0 0 H 0 Q 2.75 0 2.75 2.75 V 9.25 Q 2.75 12 0 12 H 0 Q -2.75 12 -2.75 9.25 V 2.75 Q -2.75 0 0 0 Z" fill="url(#orc-skin)" stroke="#121a13" stroke-width="1" />
<path d="M 0 2 H 0 Q 1.75 2 1.75 3.75 V 4.25 Q 1.75 6 0 6 H 0 Q -1.75 6 -1.75 4.25 V 3.75 Q -1.75 2 0 2 Z" fill="#4f7458" opacity="0.8" /></g>
<g transform="translate(41 25) rotate(16)"><path d="M 0 -2 H 0 Q 2.75 -2 2.75 0.75 V 7.25 Q 2.75 10 0 10 H 0 Q -2.75 10 -2.75 7.25 V 0.75 Q -2.75 -2 0 -2 Z" fill="url(#orc-skin)" stroke="#121a13" stroke-width="1" />
<path d="M 0 0 H 0 Q 1.75 0 1.75 1.75 V 2.25 Q 1.75 4 0 4 H 0 Q -1.75 4 -1.75 2.25 V 1.75 Q -1.75 0 0 0 Z" fill="#4f7458" opacity="0.8" /></g>
<g transform="translate(34 25.8) rotate(-20)"><path d="M -1 -5 L 1 -5 L 0 12 Z" fill="#8b9892" stroke="#121a13" stroke-width="0.8" />
<path d="M -8 -3 Q -5 -9 1 -8 Q 2 -1 -2 2 Z" fill="url(#orc-metal)" stroke="#121a13" stroke-width="0.8" /></g>
    </g>
  </g>
</svg>
