<?xml version="1.0" encoding="UTF-8"?>
<svg xmlns="http://www.w3.org/2000/svg" viewBox="0 0 320 64" width="320" height="64" shape-rendering="geometricPrecision">
  
    <defs>
      <linearGradient id="orc-shirt" x1="0%" y1="0%" x2="100%" y2="100%">
        <stop offset="0%" stop-color="#4f7458" />
        <stop offset="100%" stop-color="#34533b" />
      </linearGradient>
      <linearGradient id="orc-skin" x1="0%" y1="0%" x2="100%" y2="100%">
        <stop offset="0%" stop-color="#9bcf83" />
        <stop offset="100%" stop-color="#89bd71" />
      </linearGradient>
      <linearGradient id="orc-hair" x1="0%" y1="0%" x2="100%" y2="100%">
        <stop offset="0%" stop-color="#314f35" />
        <stop offset="100%" stop-color="#203323" />
      </linearGradient>
      <linearGradient id="orc-pants" x1="0%" y1="0%" x2="100%" y2="100%">
        <stop offset="0%" stop-color="#2f4330" />
        <stop offset="100%" stop-color="#1f3320" />
      </linearGradient>
      <linearGradient id="orc-metal" x1="0%" y1="0%" x2="100%" y2="100%">
        <stop offset="0%" stop-color="#edf3f0" />
        <stop offset="100%" stop-color="#8b9892" />
      </linearGradient>
      <filter id="orc-shadow" x="-50%" y="-50%" width="200%" height="200%">
        <feGaussianBlur stdDeviation="1.2" />
      </filter>
    </defs>
  
  <rect width="100%" height="100%" fill="transparent" />
  <g transform="translate(0,0)">
    <g transform="translate(64,0) scale(-1,1)">
      <ellipse cx="32" cy="55" rx="12" ry="4" fill="rgba(0,0,0,0.18)" />
      <ellipse cx="32" cy="54" rx="12" ry="3" fill="rgba(0,0,0,0.2)" opacity="0.45" />
<path d="M 40 26 C 48 31, 48 42, 40 50 C 35 43, 36 33, 40 26 Z" fill="#253d2e" opacity="0.95" />
<path d="M 27 38.5 H 27.8 Q 30.8 38.5 30.8 41.5 V 46.5 Q 30.8 49.5 27.8 49.5 H 27 Q 24 49.5 24 46.5 V 41.5 Q 24 38.5 27 38.5 Z" fill="url(#orc-pants)" stroke="#121a13" stroke-width="1" />
<path d="M 26.5 40.5 H 28.3 Q 29.8 40.5 29.8 42 V 42 Q 29.8 43.5 28.3 43.5 H 26.5 Q 25 43.5 25 42 V 42 Q 25 40.5 26.5 40.5 Z" fill="#d9a24d" opacity="0.12" />
<path d="M 26.9 50 H 27.9 Q 29.9 50 29.9 52 V 52 Q 29.9 54 27.9 54 H 26.9 Q 24.9 54 24.9 52 V 52 Q 24.9 50 26.9 50 Z" fill="#1b241a" stroke="#121a13" stroke-width="1" />
<path d="M 34 40 H 34.8 Q 37.8 40 37.8 43 V 48 Q 37.8 51 34.8 51 H 34 Q 31 51 31 48 V 43 Q 31 40 34 40 Z" fill="url(#orc-pants)" stroke="#121a13" stroke-width="1" />
<path d="M 33.5 42 H 35.3 Q 36.8 42 36.8 43.5 V 43.5 Q 36.8 45 35.3 45 H 33.5 Q 32 45 32 43.5 V 43.5 Q 32 42 33.5 42 Z" fill="#d9a24d" opacity="0.12" />
<path d="M 33.9 50 H 34.9 Q 36.9 50 36.9 52 V 52 Q 36.9 54 34.9 54 H 33.9 Q 31.9 54 31.9 52 V 52 Q 31.9 50 33.9 50 Z" fill="#1b241a" stroke="#121a13" stroke-width="1" />
<path d="M 29 29 H 35 Q 41 29 41 35 V 40 Q 41 46 35 46 H 29 Q 23 46 23 40 V 35 Q 23 29 29 29 Z" fill="url(#orc-shirt)" stroke="#121a13" stroke-width="1.2" stroke-linejoin="round" />
<path d="M 27.5 33 H 36.5 Q 39 33 39 35.5 V 35.5 Q 39 38 36.5 38 H 27.5 Q 25 38 25 35.5 V 35.5 Q 25 33 27.5 33 Z" fill="#d9a24d" opacity="0.75" />
<ellipse cx="31" cy="12" rx="8.5" ry="7.7" fill="url(#orc-skin)" stroke="#121a13" stroke-width="1.2" />
<path d="M 24 9 Q 31 2 38 9 Q 37 15 31 16 Q 25 15 24 9 Z" fill="url(#orc-hair)" stroke="#121a13" stroke-width="1" />
<path d="M 28.4 16.2 Q 27.4 20.2 29.4 22.2" fill="none" stroke="#f2e7c2" stroke-width="1.2" stroke-linecap="round" />
<path d="M 33.6 16.2 Q 32.6 20.2 34.6 22.2" fill="none" stroke="#f2e7c2" stroke-width="1.2" stroke-linecap="round" />
<circle cx="28.4" cy="11.2" r="0.9" fill="#17131f" />
<circle cx="33.8" cy="11.2" r="0.9" fill="#17131f" />
<path d="M 29 14.6 Q 31 15.6 33 14.6" fill="none" stroke="#121a13" stroke-width="1" stroke-linecap="round" />
<path d="M 26 16 Q 31 19 36 16 L 35 19 Q 31 21 27 19 Z" fill="#d9a24d" opacity="0.08" />
<g transform="translate(23.8 30) rotate(-10)"><path d="M 0 0 H 0 Q 2.75 0 2.75 2.75 V 9.25 Q 2.75 12 0 12 H 0 Q -2.75 12 -2.75 9.25 V 2.75 Q -2.75 0 0 0 Z" fill="url(#orc-skin)" stroke="#121a13" stroke-width="1" />
<path d="M 0 2 H 0 Q 1.75 2 1.75 3.75 V 4.25 Q 1.75 6 0 6 H 0 Q -1.75 6 -1.75 4.25 V 3.75 Q -1.75 2 0 2 Z" fill="#4f7458" opacity="0.8" /></g>
<g transform="translate(39.8 30) rotate(16)"><path d="M 0 -2 H 0 Q 2.75 -2 2.75 0.75 V 7.25 Q 2.75 10 0 10 H 0 Q -2.75 10 -2.75 7.25 V 0.75 Q -2.75 -2 0 -2 Z" fill="url(#orc-skin)" stroke="#121a13" stroke-width="1" />
<path d="M 0 0 H 0 Q 1.75 0 1.75 1.75 V 2.25 Q 1.75 4 0 4 H 0 Q -1.75 4 -1.75 2.25 V 1.75 Q -1.75 0 0 0 Z" fill="#4f7458" opacity="0.8" /></g>
<g transform="translate(32.8 31.4) rotate(-20)"><path d="M -1 -5 L 1 -5 L 0 12 Z" fill="#8b9892" stroke="#121a13" stroke-width="0.8" />
<path d="M -8 -3 Q -5 -9 1 -8 Q 2 -1 -2 2 Z" fill="url(#orc-metal)" stroke="#121a13" stroke-width="0.8" /></g>
    </g>
  </g>
<g transform="translate(64,0)">
    <g transform="translate(64,0) scale(-1,1)">
      <ellipse cx="32" cy="55" rx="12" ry="4" fill="rgba(0,0,0,0.18)" />
      <ellipse cx="32" cy="52" rx="12" ry="3" fill="rgba(0,0,0,0.2)" opacity="0.45" />
<path d="M 40 26 C 48 31, 48 42, 40 50 C 35 43, 36 33, 40 26 Z" fill="#253d2e" opacity="0.95" />
<path d="M 28.6 35.5 H 29.4 Q 32.4 35.5 32.4 38.5 V 43.5 Q 32.4 46.5 29.4 46.5 H 28.6 Q 25.6 46.5 25.6 43.5 V 38.5 Q 25.6 35.5 28.6 35.5 Z" fill="url(#orc-pants)" stroke="#121a13" stroke-width="1" />
<path d="M 28.1 37.5 H 29.900000000000002 Q 31.400000000000002 37.5 31.400000000000002 39 V 39 Q 31.400000000000002 40.5 29.900000000000002 40.5 H 28.1 Q 26.6 40.5 26.6 39 V 39 Q 26.6 37.5 28.1 37.5 Z" fill="#d9a24d" opacity="0.12" />
<path d="M 28.5 47 H 29.5 Q 31.5 47 31.5 49 V 49 Q 31.5 51 29.5 51 H 28.5 Q 26.5 51 26.5 49 V 49 Q 26.5 47 28.5 47 Z" fill="#1b241a" stroke="#121a13" stroke-width="1" />
<path d="M 35.6 37 H 36.4 Q 39.4 37 39.4 40 V 45 Q 39.4 48 36.4 48 H 35.6 Q 32.6 48 32.6 45 V 40 Q 32.6 37 35.6 37 Z" fill="url(#orc-pants)" stroke="#121a13" stroke-width="1" />
<path d="M 35.1 39 H 36.9 Q 38.4 39 38.4 40.5 V 40.5 Q 38.4 42 36.9 42 H 35.1 Q 33.6 42 33.6 40.5 V 40.5 Q 33.6 39 35.1 39 Z" fill="#d9a24d" opacity="0.12" />
<path d="M 35.5 47 H 36.5 Q 38.5 47 38.5 49 V 49 Q 38.5 51 36.5 51 H 35.5 Q 33.5 51 33.5 49 V 49 Q 33.5 47 35.5 47 Z" fill="#1b241a" stroke="#121a13" stroke-width="1" />
<path d="M 29 26 H 35 Q 41 26 41 32 V 37 Q 41 43 35 43 H 29 Q 23 43 23 37 V 32 Q 23 26 29 26 Z" fill="url(#orc-shirt)" stroke="#121a13" stroke-width="1.2" stroke-linejoin="round" />
<path d="M 27.5 30 H 36.5 Q 39 30 39 32.5 V 32.5 Q 39 35 36.5 35 H 27.5 Q 25 35 25 32.5 V 32.5 Q 25 30 27.5 30 Z" fill="#d9a24d" opacity="0.75" />
<ellipse cx="31" cy="11" rx="8.5" ry="7.7" fill="url(#orc-skin)" stroke="#121a13" stroke-width="1.2" />
<path d="M 24 8 Q 31 1 38 8 Q 37 14 31 15 Q 25 14 24 8 Z" fill="url(#orc-hair)" stroke="#121a13" stroke-width="1" />
<path d="M 28.4 15.2 Q 27.4 19.2 29.4 21.2" fill="none" stroke="#f2e7c2" stroke-width="1.2" stroke-linecap="round" />
<path d="M 33.6 15.2 Q 32.6 19.2 34.6 21.2" fill="none" stroke="#f2e7c2" stroke-width="1.2" stroke-linecap="round" />
<circle cx="28.4" cy="10.2" r="0.9" fill="#17131f" />
<circle cx="33.8" cy="10.2" r="0.9" fill="#17131f" />
<path d="M 29 13.6 Q 31 14.6 33 13.6" fill="none" stroke="#121a13" stroke-width="1" stroke-linecap="round" />
<path d="M 26 15 Q 31 18 36 15 L 35 18 Q 31 20 27 18 Z" fill="#d9a24d" opacity="0.08" />
<g transform="translate(23 27) rotate(-10)"><path d="M 0 0 H 0 Q 2.75 0 2.75 2.75 V 9.25 Q 2.75 12 0 12 H 0 Q -2.75 12 -2.75 9.25 V 2.75 Q -2.75 0 0 0 Z" fill="url(#orc-skin)" stroke="#121a13" stroke-width="1" />
<path d="M 0 2 H 0 Q 1.75 2 1.75 3.75 V 4.25 Q 1.75 6 0 6 H 0 Q -1.75 6 -1.75 4.25 V 3.75 Q -1.75 2 0 2 Z" fill="#4f7458" opacity="0.8" /></g>
<g transform="translate(41 27) rotate(16)"><path d="M 0 -2 H 0 Q 2.75 -2 2.75 0.75 V 7.25 Q 2.75 10 0 10 H 0 Q -2.75 10 -2.75 7.25 V 0.75 Q -2.75 -2 0 -2 Z" fill="url(#orc-skin)" stroke="#121a13" stroke-width="1" />
<path d="M 0 0 H 0 Q 1.75 0 1.75 1.75 V 2.25 Q 1.75 4 0 4 H 0 Q -1.75 4 -1.75 2.25 V 1.75 Q -1.75 0 0 0 Z" fill="#4f7458" opacity="0.8" /></g>
<g transform="translate(34 28) rotate(-20)"><path d="M -1 -5 L 1 -5 L 0 12 Z" fill="#8b9892" stroke="#121a13" stroke-width="0.8" />
<path d="M -8 -3 Q -5 -9 1 -8 Q 2 -1 -2 2 Z" fill="url(#orc-metal)" stroke="#121a13" stroke-width="0.8" /></g>
    </g>
  </g>
<g transform="translate(128,0)">
    <g transform="translate(64,0) scale(-1,1)">
      <ellipse cx="32" cy="55" rx="12" ry="4" fill="rgba(0,0,0,0.18)" />
      <ellipse cx="32" cy="50" rx="12" ry="3" fill="rgba(0,0,0,0.2)" opacity="0.45" />
<path d="M 40 26 C 48 31, 48 42, 40 50 C 35 43, 36 33, 40 26 Z" fill="#253d2e" opacity="0.95" />
<path d="M 30.200000000000003 32.5 H 31 Q 34 32.5 34 35.5 V 40.5 Q 34 43.5 31 43.5 H 30.200000000000003 Q 27.200000000000003 43.5 27.200000000000003 40.5 V 35.5 Q 27.200000000000003 32.5 30.200000000000003 32.5 Z" fill="url(#orc-pants)" stroke="#121a13" stroke-width="1" />
<path d="M 29.700000000000003 34.5 H 31.5 Q 33 34.5 33 36 V 36 Q 33 37.5 31.5 37.5 H 29.700000000000003 Q 28.200000000000003 37.5 28.200000000000003 36 V 36 Q 28.200000000000003 34.5 29.700000000000003 34.5 Z" fill="#d9a24d" opacity="0.12" />
<path d="M 30.1 44 H 31.1 Q 33.1 44 33.1 46 V 46 Q 33.1 48 31.1 48 H 30.1 Q 28.1 48 28.1 46 V 46 Q 28.1 44 30.1 44 Z" fill="#1b241a" stroke="#121a13" stroke-width="1" />
<path d="M 37.2 34 H 38 Q 41 34 41 37 V 42 Q 41 45 38 45 H 37.2 Q 34.2 45 34.2 42 V 37 Q 34.2 34 37.2 34 Z" fill="url(#orc-pants)" stroke="#121a13" stroke-width="1" />
<path d="M 36.7 36 H 38.5 Q 40 36 40 37.5 V 37.5 Q 40 39 38.5 39 H 36.7 Q 35.2 39 35.2 37.5 V 37.5 Q 35.2 36 36.7 36 Z" fill="#d9a24d" opacity="0.12" />
<path d="M 37.1 44 H 38.1 Q 40.1 44 40.1 46 V 46 Q 40.1 48 38.1 48 H 37.1 Q 35.1 48 35.1 46 V 46 Q 35.1 44 37.1 44 Z" fill="#1b241a" stroke="#121a13" stroke-width="1" />
<path d="M 29 23 H 35 Q 41 23 41 29 V 34 Q 41 40 35 40 H 29 Q 23 40 23 34 V 29 Q 23 23 29 23 Z" fill="url(#orc-shirt)" stroke="#121a13" stroke-width="1.2" stroke-linejoin="round" />
<path d="M 27.5 27 H 36.5 Q 39 27 39 29.5 V 29.5 Q 39 32 36.5 32 H 27.5 Q 25 32 25 29.5 V 29.5 Q 25 27 27.5 27 Z" fill="#d9a24d" opacity="0.75" />
<ellipse cx="31" cy="10" rx="8.5" ry="7.7" fill="url(#orc-skin)" stroke="#121a13" stroke-width="1.2" />
<path d="M 24 7 Q 31 0 38 7 Q 37 13 31 14 Q 25 13 24 7 Z" fill="url(#orc-hair)" stroke="#121a13" stroke-width="1" />
<path d="M 28.4 14.2 Q 27.4 18.2 29.4 20.2" fill="none" stroke="#f2e7c2" stroke-width="1.2" stroke-linecap="round" />
<path d="M 33.6 14.2 Q 32.6 18.2 34.6 20.2" fill="none" stroke="#f2e7c2" stroke-width="1.2" stroke-linecap="round" />
<circle cx="28.4" cy="9.2" r="0.9" fill="#17131f" />
<circle cx="33.8" cy="9.2" r="0.9" fill="#17131f" />
<path d="M 29 12.6 Q 31 13.6 33 12.6" fill="none" stroke="#121a13" stroke-width="1" stroke-linecap="round" />
<path d="M 26 14 Q 31 17 36 14 L 35 17 Q 31 19 27 17 Z" fill="#d9a24d" opacity="0.08" />
<g transform="translate(22.2 24) rotate(-10)"><path d="M 0 0 H 0 Q 2.75 0 2.75 2.75 V 9.25 Q 2.75 12 0 12 H 0 Q -2.75 12 -2.75 9.25 V 2.75 Q -2.75 0 0 0 Z" fill="url(#orc-skin)" stroke="#121a13" stroke-width="1" />
<path d="M 0 2 H 0 Q 1.75 2 1.75 3.75 V 4.25 Q 1.75 6 0 6 H 0 Q -1.75 6 -1.75 4.25 V 3.75 Q -1.75 2 0 2 Z" fill="#4f7458" opacity="0.8" /></g>
<g transform="translate(42.2 24) rotate(16)"><path d="M 0 -2 H 0 Q 2.75 -2 2.75 0.75 V 7.25 Q 2.75 10 0 10 H 0 Q -2.75 10 -2.75 7.25 V 0.75 Q -2.75 -2 0 -2 Z" fill="url(#orc-skin)" stroke="#121a13" stroke-width="1" />
<path d="M 0 0 H 0 Q 1.75 0 1.75 1.75 V 2.25 Q 1.75 4 0 4 H 0 Q -1.75 4 -1.75 2.25 V 1.75 Q -1.75 0 0 0 Z" fill="#4f7458" opacity="0.8" /></g>
<g transform="translate(35.2 24.6) rotate(-20)"><path d="M -1 -5 L 1 -5 L 0 12 Z" fill="#8b9892" stroke="#121a13" stroke-width="0.8" />
<path d="M -8 -3 Q -5 -9 1 -8 Q 2 -1 -2 2 Z" fill="url(#orc-metal)" stroke="#121a13" stroke-width="0.8" /></g>
    </g>
  </g>
<g transform="translate(192,0)">
    <g transform="translate(64,0) scale(-1,1)">
      <ellipse cx="32" cy="55" rx="12" ry="4" fill="rgba(0,0,0,0.18)" />
      <ellipse cx="32" cy="51" rx="12" ry="3" fill="rgba(0,0,0,0.2)" opacity="0.45" />
<path d="M 40 26 C 48 31, 48 42, 40 50 C 35 43, 36 33, 40 26 Z" fill="#253d2e" opacity="0.95" />
<path d="M 31.800000000000004 33.5 H 32.6 Q 35.6 33.5 35.6 36.5 V 41.5 Q 35.6 44.5 32.6 44.5 H 31.800000000000004 Q 28.800000000000004 44.5 28.800000000000004 41.5 V 36.5 Q 28.800000000000004 33.5 31.800000000000004 33.5 Z" fill="url(#orc-pants)" stroke="#121a13" stroke-width="1" />
<path d="M 31.300000000000004 35.5 H 33.1 Q 34.6 35.5 34.6 37 V 37 Q 34.6 38.5 33.1 38.5 H 31.300000000000004 Q 29.800000000000004 38.5 29.800000000000004 37 V 37 Q 29.800000000000004 35.5 31.300000000000004 35.5 Z" fill="#d9a24d" opacity="0.12" />
<path d="M 31.700000000000003 45 H 32.7 Q 34.7 45 34.7 47 V 47 Q 34.7 49 32.7 49 H 31.700000000000003 Q 29.700000000000003 49 29.700000000000003 47 V 47 Q 29.700000000000003 45 31.700000000000003 45 Z" fill="#1b241a" stroke="#121a13" stroke-width="1" />
<path d="M 37.2 35 H 38 Q 41 35 41 38 V 43 Q 41 46 38 46 H 37.2 Q 34.2 46 34.2 43 V 38 Q 34.2 35 37.2 35 Z" fill="url(#orc-pants)" stroke="#121a13" stroke-width="1" />
<path d="M 36.7 37 H 38.5 Q 40 37 40 38.5 V 38.5 Q 40 40 38.5 40 H 36.7 Q 35.2 40 35.2 38.5 V 38.5 Q 35.2 37 36.7 37 Z" fill="#d9a24d" opacity="0.12" />
<path d="M 37.1 45 H 38.1 Q 40.1 45 40.1 47 V 47 Q 40.1 49 38.1 49 H 37.1 Q 35.1 49 35.1 47 V 47 Q 35.1 45 37.1 45 Z" fill="#1b241a" stroke="#121a13" stroke-width="1" />
<path d="M 29 24 H 35 Q 41 24 41 30 V 35 Q 41 41 35 41 H 29 Q 23 41 23 35 V 30 Q 23 24 29 24 Z" fill="url(#orc-shirt)" stroke="#121a13" stroke-width="1.2" stroke-linejoin="round" />
<path d="M 27.5 28 H 36.5 Q 39 28 39 30.5 V 30.5 Q 39 33 36.5 33 H 27.5 Q 25 33 25 30.5 V 30.5 Q 25 28 27.5 28 Z" fill="#d9a24d" opacity="0.75" />
<ellipse cx="31" cy="11" rx="8.5" ry="7.7" fill="url(#orc-skin)" stroke="#121a13" stroke-width="1.2" />
<path d="M 24 8 Q 31 1 38 8 Q 37 14 31 15 Q 25 14 24 8 Z" fill="url(#orc-hair)" stroke="#121a13" stroke-width="1" />
<path d="M 28.4 15.2 Q 27.4 19.2 29.4 21.2" fill="none" stroke="#f2e7c2" stroke-width="1.2" stroke-linecap="round" />
<path d="M 33.6 15.2 Q 32.6 19.2 34.6 21.2" fill="none" stroke="#f2e7c2" stroke-width="1.2" stroke-linecap="round" />
<circle cx="28.4" cy="10.2" r="0.9" fill="#17131f" />
<circle cx="33.8" cy="10.2" r="0.9" fill="#17131f" />
<path d="M 29 13.6 Q 31 14.6 33 13.6" fill="none" stroke="#121a13" stroke-width="1" stroke-linecap="round" />
<path d="M 26 15 Q 31 18 36 15 L 35 18 Q 31 20 27 18 Z" fill="#d9a24d" opacity="0.08" />
<g transform="translate(23 25) rotate(-10)"><path d="M 0 0 H 0 Q 2.75 0 2.75 2.75 V 9.25 Q 2.75 12 0 12 H 0 Q -2.75 12 -2.75 9.25 V 2.75 Q -2.75 0 0 0 Z" fill="url(#orc-skin)" stroke="#121a13" stroke-width="1" />
<path d="M 0 2 H 0 Q 1.75 2 1.75 3.75 V 4.25 Q 1.75 6 0 6 H 0 Q -1.75 6 -1.75 4.25 V 3.75 Q -1.75 2 0 2 Z" fill="#4f7458" opacity="0.8" /></g>
<g transform="translate(41 25) rotate(16)"><path d="M 0 -2 H 0 Q 2.75 -2 2.75 0.75 V 7.25 Q 2.75 10 0 10 H 0 Q -2.75 10 -2.75 7.25 V 0.75 Q -2.75 -2 0 -2 Z" fill="url(#orc-skin)" stroke="#121a13" stroke-width="1" />
<path d="M 0 0 H 0 Q 1.75 0 1.75 1.75 V 2.25 Q 1.75 4 0 4 H 0 Q -1.75 4 -1.75 2.25 V 1.75 Q -1.75 0 0 0 Z" fill="#4f7458" opacity="0.8" /></g>
<g transform="translate(34 25.8) rotate(-20)"><path d="M -1 -5 L 1 -5 L 0 12 Z" fill="#8b9892" stroke="#121a13" stroke-width="0.8" />
<path d="M -8 -3 Q -5 -9 1 -8 Q 2 -1 -2 2 Z" fill="url(#orc-metal)" stroke="#121a13" stroke-width="0.8" /></g>
    </g>
  </g>
<g transform="translate(256,0)">
    <g transform="translate(64,0) scale(-1,1)">
      <ellipse cx="32" cy="55" rx="12" ry="4" fill="rgba(0,0,0,0.18)" />
      <ellipse cx="32" cy="53" rx="12" ry="3" fill="rgba(0,0,0,0.2)" opacity="0.45" />
<path d="M 40 26 C 48 31, 48 42, 40 50 C 35 43, 36 33, 40 26 Z" fill="#253d2e" opacity="0.95" />
<path d="M 27 36.5 H 27.8 Q 30.8 36.5 30.8 39.5 V 44.5 Q 30.8 47.5 27.8 47.5 H 27 Q 24 47.5 24 44.5 V 39.5 Q 24 36.5 27 36.5 Z" fill="url(#orc-pants)" stroke="#121a13" stroke-width="1" />
<path d="M 26.5 38.5 H 28.3 Q 29.8 38.5 29.8 40 V 40 Q 29.8 41.5 28.3 41.5 H 26.5 Q 25 41.5 25 40 V 40 Q 25 38.5 26.5 38.5 Z" fill="#d9a24d" opacity="0.12" />
<path d="M 26.9 48 H 27.9 Q 29.9 48 29.9 50 V 50 Q 29.9 52 27.9 52 H 26.9 Q 24.9 52 24.9 50 V 50 Q 24.9 48 26.9 48 Z" fill="#1b241a" stroke="#121a13" stroke-width="1" />
<path d="M 35.6 38 H 36.4 Q 39.4 38 39.4 41 V 46 Q 39.4 49 36.4 49 H 35.6 Q 32.6 49 32.6 46 V 41 Q 32.6 38 35.6 38 Z" fill="url(#orc-pants)" stroke="#121a13" stroke-width="1" />
<path d="M 35.1 40 H 36.9 Q 38.4 40 38.4 41.5 V 41.5 Q 38.4 43 36.9 43 H 35.1 Q 33.6 43 33.6 41.5 V 41.5 Q 33.6 40 35.1 40 Z" fill="#d9a24d" opacity="0.12" />
<path d="M 35.5 48 H 36.5 Q 38.5 48 38.5 50 V 50 Q 38.5 52 36.5 52 H 35.5 Q 33.5 52 33.5 50 V 50 Q 33.5 48 35.5 48 Z" fill="#1b241a" stroke="#121a13" stroke-width="1" />
<path d="M 29 27 H 35 Q 41 27 41 33 V 38 Q 41 44 35 44 H 29 Q 23 44 23 38 V 33 Q 23 27 29 27 Z" fill="url(#orc-shirt)" stroke="#121a13" stroke-width="1.2" stroke-linejoin="round" />
<path d="M 27.5 31 H 36.5 Q 39 31 39 33.5 V 33.5 Q 39 36 36.5 36 H 27.5 Q 25 36 25 33.5 V 33.5 Q 25 31 27.5 31 Z" fill="#d9a24d" opacity="0.75" />
<ellipse cx="31" cy="12" rx="8.5" ry="7.7" fill="url(#orc-skin)" stroke="#121a13" stroke-width="1.2" />
<path d="M 24 9 Q 31 2 38 9 Q 37 15 31 16 Q 25 15 24 9 Z" fill="url(#orc-hair)" stroke="#121a13" stroke-width="1" />
<path d="M 28.4 16.2 Q 27.4 20.2 29.4 22.2" fill="none" stroke="#f2e7c2" stroke-width="1.2" stroke-linecap="round" />
<path d="M 33.6 16.2 Q 32.6 20.2 34.6 22.2" fill="none" stroke="#f2e7c2" stroke-width="1.2" stroke-linecap="round" />
<circle cx="28.4" cy="11.2" r="0.9" fill="#17131f" />
<circle cx="33.8" cy="11.2" r="0.9" fill="#17131f" />
<path d="M 29 14.6 Q 31 15.6 33 14.6" fill="none" stroke="#121a13" stroke-width="1" stroke-linecap="round" />
<path d="M 26 16 Q 31 19 36 16 L 35 19 Q 31 21 27 19 Z" fill="#d9a24d" opacity="0.08" />
<g transform="translate(23.8 28) rotate(-10)"><path d="M 0 0 H 0 Q 2.75 0 2.75 2.75 V 9.25 Q 2.75 12 0 12 H 0 Q -2.75 12 -2.75 9.25 V 2.75 Q -2.75 0 0 0 Z" fill="url(#orc-skin)" stroke="#121a13" stroke-width="1" />
<path d="M 0 2 H 0 Q 1.75 2 1.75 3.75 V 4.25 Q 1.75 6 0 6 H 0 Q -1.75 6 -1.75 4.25 V 3.75 Q -1.75 2 0 2 Z" fill="#4f7458" opacity="0.8" /></g>
<g transform="translate(39.8 28) rotate(16)"><path d="M 0 -2 H 0 Q 2.75 -2 2.75 0.75 V 7.25 Q 2.75 10 0 10 H 0 Q -2.75 10 -2.75 7.25 V 0.75 Q -2.75 -2 0 -2 Z" fill="url(#orc-skin)" stroke="#121a13" stroke-width="1" />
<path d="M 0 0 H 0 Q 1.75 0 1.75 1.75 V 2.25 Q 1.75 4 0 4 H 0 Q -1.75 4 -1.75 2.25 V 1.75 Q -1.75 0 0 0 Z" fill="#4f7458" opacity="0.8" /></g>
<g transform="translate(32.8 29.2) rotate(-20)"><path d="M -1 -5 L 1 -5 L 0 12 Z" fill="#8b9892" stroke="#121a13" stroke-width="0.8" />
<path d="M -8 -3 Q -5 -9 1 -8 Q 2 -1 -2 2 Z" fill="url(#orc-metal)" stroke="#121a13" stroke-width="0.8" /></g>
    </g>
  </g>
</svg>
