<?xml version="1.0" encoding="UTF-8"?>
<svg xmlns="http://www.w3.org/2000/svg" viewBox="0 0 448 64" width="448" height="64" shape-rendering="geometricPrecision">
  
    <defs>
      <linearGradient id="orc-shirt" x1="0%" y1="0%" x2="100%" y2="100%">
        <stop offset="0%" stop-color="#4f7458" />
        <stop offset="100%" stop-color="#34533b" />
      </linearGradient>
      <linearGradient id="orc-skin" x1="0%" y1="0%" x2="100%" y2="100%">
        <stop offset="0%" stop-color="#9bcf83" />
        <stop offset="100%" stop-color="#89bd71" />
      </linearGradient>
      <linearGradient id="orc-hair" x1="0%" y1="0%" x2="100%" y2="100%">
        <stop offset="0%" stop-color="#314f35" />
        <stop offset="100%" stop-color="#203323" />
      </linearGradient>
      <linearGradient id="orc-pants" x1="0%" y1="0%" x2="100%" y2="100%">
        <stop offset="0%" stop-color="#2f4330" />
        <stop offset="100%" stop-color="#1f3320" />
      </linearGradient>
      <linearGradient id="orc-metal" x1="0%" y1="0%" x2="100%" y2="100%">
        <stop offset="0%" stop-color="#edf3f0" />
        <stop offset="100%" stop-color="#8b9892" />
      </linearGradient>
      <filter id="orc-shadow" x="-50%" y="-50%" width="200%" height="200%">
        <feGaussianBlur stdDeviation="1.2" />
      </filter>
    </defs>
  
  <rect width="100%" height="100%" fill="transparent" />
  <g transform="translate(0,0)">
    <g transform="translate(64,0) scale(-1,1)">
      <ellipse cx="32" cy="55" rx="12" ry="4" fill="rgba(0,0,0,0.18)" />
      <ellipse cx="32" cy="51" rx="12" ry="3" fill="rgba(0,0,0,0.2)" opacity="0.45" />
<path d="M 40 26 C 48 31, 48 42, 40 50 C 35 43, 36 33, 40 26 Z" fill="#253d2e" opacity="0.95" />
<path d="M 31.800000000000004 33.5 H 32.6 Q 35.6 33.5 35.6 36.5 V 41.5 Q 35.6 44.5 32.6 44.5 H 31.800000000000004 Q 28.800000000000004 44.5 28.800000000000004 41.5 V 36.5 Q 28.800000000000004 33.5 31.800000000000004 33.5 Z" fill="url(#orc-pants)" stroke="#121a13" stroke-width="1" />
<path d="M 31.300000000000004 35.5 H 33.1 Q 34.6 35.5 34.6 37 V 37 Q 34.6 38.5 33.1 38.5 H 31.300000000000004 Q 29.800000000000004 38.5 29.800000000000004 37 V 37 Q 29.800000000000004 35.5 31.300000000000004 35.5 Z" fill="#d9a24d" opacity="0.12" />
<path d="M 31.700000000000003 45 H 32.7 Q 34.7 45 34.7 47 V 47 Q 34.7 49 32.7 49 H 31.700000000000003 Q 29.700000000000003 49 29.700000000000003 47 V 47 Q 29.700000000000003 45 31.700000000000003 45 Z" fill="#1b241a" stroke="#121a13" stroke-width="1" />
<path d="M 32.4 35 H 33.199999999999996 Q 36.199999999999996 35 36.199999999999996 38 V 43 Q 36.199999999999996 46 33.199999999999996 46 H 32.4 Q 29.4 46 29.4 43 V 38 Q 29.4 35 32.4 35 Z" fill="url(#orc-pants)" stroke="#121a13" stroke-width="1" />
<path d="M 31.9 37 H 33.699999999999996 Q 35.199999999999996 37 35.199999999999996 38.5 V 38.5 Q 35.199999999999996 40 33.699999999999996 40 H 31.9 Q 30.4 40 30.4 38.5 V 38.5 Q 30.4 37 31.9 37 Z" fill="#d9a24d" opacity="0.12" />
<path d="M 32.3 45 H 33.3 Q 35.3 45 35.3 47 V 47 Q 35.3 49 33.3 49 H 32.3 Q 30.299999999999997 49 30.299999999999997 47 V 47 Q 30.299999999999997 45 32.3 45 Z" fill="#1b241a" stroke="#121a13" stroke-width="1" />
<path d="M 31 24 H 37 Q 43 24 43 30 V 35 Q 43 41 37 41 H 31 Q 25 41 25 35 V 30 Q 25 24 31 24 Z" fill="url(#orc-shirt)" stroke="#121a13" stroke-width="1.2" stroke-linejoin="round" />
<path d="M 29.5 28 H 38.5 Q 41 28 41 30.5 V 30.5 Q 41 33 38.5 33 H 29.5 Q 27 33 27 30.5 V 30.5 Q 27 28 29.5 28 Z" fill="#d9a24d" opacity="0.75" />
<ellipse cx="31" cy="11" rx="8.5" ry="7.7" fill="url(#orc-skin)" stroke="#121a13" stroke-width="1.2" />
<path d="M 24 8 Q 31 1 38 8 Q 37 14 31 15 Q 25 14 24 8 Z" fill="url(#orc-hair)" stroke="#121a13" stroke-width="1" />
<path d="M 28.4 15.2 Q 27.4 19.2 29.4 21.2" fill="none" stroke="#f2e7c2" stroke-width="1.2" stroke-linecap="round" />
<path d="M 33.6 15.2 Q 32.6 19.2 34.6 21.2" fill="none" stroke="#f2e7c2" stroke-width="1.2" stroke-linecap="round" />
<circle cx="28.4" cy="10.2" r="0.9" fill="#17131f" />
<circle cx="33.8" cy="10.2" r="0.9" fill="#17131f" />
<path d="M 29 13.6 Q 31 14.6 33 13.6" fill="none" stroke="#121a13" stroke-width="1" stroke-linecap="round" />
<path d="M 26 15 Q 31 18 36 15 L 35 18 Q 31 20 27 18 Z" fill="#d9a24d" opacity="0.08" />
<g transform="translate(22.2 25) rotate(-10)"><path d="M 0 0 H 0 Q 2.75 0 2.75 2.75 V 9.25 Q 2.75 12 0 12 H 0 Q -2.75 12 -2.75 9.25 V 2.75 Q -2.75 0 0 0 Z" fill="url(#orc-skin)" stroke="#121a13" stroke-width="1" />
<path d="M 0 2 H 0 Q 1.75 2 1.75 3.75 V 4.25 Q 1.75 6 0 6 H 0 Q -1.75 6 -1.75 4.25 V 3.75 Q -1.75 2 0 2 Z" fill="#4f7458" opacity="0.8" /></g>
<g transform="translate(42.2 25) rotate(16)"><path d="M 0 -2 H 0 Q 2.75 -2 2.75 0.75 V 7.25 Q 2.75 10 0 10 H 0 Q -2.75 10 -2.75 7.25 V 0.75 Q -2.75 -2 0 -2 Z" fill="url(#orc-skin)" stroke="#121a13" stroke-width="1" />
<path d="M 0 0 H 0 Q 1.75 0 1.75 1.75 V 2.25 Q 1.75 4 0 4 H 0 Q -1.75 4 -1.75 2.25 V 1.75 Q -1.75 0 0 0 Z" fill="#4f7458" opacity="0.8" /></g>
<g transform="translate(35.2 25.8) rotate(-20)"><path d="M -1 -5 L 1 -5 L 0 12 Z" fill="#8b9892" stroke="#121a13" stroke-width="0.8" />
<path d="M -8 -3 Q -5 -9 1 -8 Q 2 -1 -2 2 Z" fill="url(#orc-metal)" stroke="#121a13" stroke-width="0.8" /></g>
    </g>
  </g>
<g transform="translate(64,0)">
    <g transform="translate(64,0) scale(-1,1)">
      <ellipse cx="32" cy="55" rx="12" ry="4" fill="rgba(0,0,0,0.18)" />
      <ellipse cx="32" cy="52" rx="12" ry="3" fill="rgba(0,0,0,0.2)" opacity="0.45" />
<path d="M 40 26 C 48 31, 48 42, 40 50 C 35 43, 36 33, 40 26 Z" fill="#253d2e" opacity="0.95" />
<path d="M 30.200000000000003 34.5 H 31 Q 34 34.5 34 37.5 V 42.5 Q 34 45.5 31 45.5 H 30.200000000000003 Q 27.200000000000003 45.5 27.200000000000003 42.5 V 37.5 Q 27.200000000000003 34.5 30.200000000000003 34.5 Z" fill="url(#orc-pants)" stroke="#121a13" stroke-width="1" />
<path d="M 29.700000000000003 36.5 H 31.5 Q 33 36.5 33 38 V 38 Q 33 39.5 31.5 39.5 H 29.700000000000003 Q 28.200000000000003 39.5 28.200000000000003 38 V 38 Q 28.200000000000003 36.5 29.700000000000003 36.5 Z" fill="#d9a24d" opacity="0.12" />
<path d="M 30.1 46 H 31.1 Q 33.1 46 33.1 48 V 48 Q 33.1 50 31.1 50 H 30.1 Q 28.1 50 28.1 48 V 48 Q 28.1 46 30.1 46 Z" fill="#1b241a" stroke="#121a13" stroke-width="1" />
<path d="M 34 36 H 34.8 Q 37.8 36 37.8 39 V 44 Q 37.8 47 34.8 47 H 34 Q 31 47 31 44 V 39 Q 31 36 34 36 Z" fill="url(#orc-pants)" stroke="#121a13" stroke-width="1" />
<path d="M 33.5 38 H 35.3 Q 36.8 38 36.8 39.5 V 39.5 Q 36.8 41 35.3 41 H 33.5 Q 32 41 32 39.5 V 39.5 Q 32 38 33.5 38 Z" fill="#d9a24d" opacity="0.12" />
<path d="M 33.9 46 H 34.9 Q 36.9 46 36.9 48 V 48 Q 36.9 50 34.9 50 H 33.9 Q 31.9 50 31.9 48 V 48 Q 31.9 46 33.9 46 Z" fill="#1b241a" stroke="#121a13" stroke-width="1" />
<path d="M 29 25 H 35 Q 41 25 41 31 V 36 Q 41 42 35 42 H 29 Q 23 42 23 36 V 31 Q 23 25 29 25 Z" fill="url(#orc-shirt)" stroke="#121a13" stroke-width="1.2" stroke-linejoin="round" />
<path d="M 27.5 29 H 36.5 Q 39 29 39 31.5 V 31.5 Q 39 34 36.5 34 H 27.5 Q 25 34 25 31.5 V 31.5 Q 25 29 27.5 29 Z" fill="#d9a24d" opacity="0.75" />
<ellipse cx="31" cy="12" rx="8.5" ry="7.7" fill="url(#orc-skin)" stroke="#121a13" stroke-width="1.2" />
<path d="M 24 9 Q 31 2 38 9 Q 37 15 31 16 Q 25 15 24 9 Z" fill="url(#orc-hair)" stroke="#121a13" stroke-width="1" />
<path d="M 28.4 16.2 Q 27.4 20.2 29.4 22.2" fill="none" stroke="#f2e7c2" stroke-width="1.2" stroke-linecap="round" />
<path d="M 33.6 16.2 Q 32.6 20.2 34.6 22.2" fill="none" stroke="#f2e7c2" stroke-width="1.2" stroke-linecap="round" />
<circle cx="28.4" cy="11.2" r="0.9" fill="#17131f" />
<circle cx="33.8" cy="11.2" r="0.9" fill="#17131f" />
<path d="M 29 14.6 Q 31 15.6 33 14.6" fill="none" stroke="#121a13" stroke-width="1" stroke-linecap="round" />
<path d="M 26 16 Q 31 19 36 16 L 35 19 Q 31 21 27 19 Z" fill="#d9a24d" opacity="0.08" />
<g transform="translate(21.4 26) rotate(-10)"><path d="M 0 0 H 0 Q 2.75 0 2.75 2.75 V 9.25 Q 2.75 12 0 12 H 0 Q -2.75 12 -2.75 9.25 V 2.75 Q -2.75 0 0 0 Z" fill="url(#orc-skin)" stroke="#121a13" stroke-width="1" />
<path d="M 0 2 H 0 Q 1.75 2 1.75 3.75 V 4.25 Q 1.75 6 0 6 H 0 Q -1.75 6 -1.75 4.25 V 3.75 Q -1.75 2 0 2 Z" fill="#4f7458" opacity="0.8" /></g>
<g transform="translate(43.4 26) rotate(16)"><path d="M 0 -2 H 0 Q 2.75 -2 2.75 0.75 V 7.25 Q 2.75 10 0 10 H 0 Q -2.75 10 -2.75 7.25 V 0.75 Q -2.75 -2 0 -2 Z" fill="url(#orc-skin)" stroke="#121a13" stroke-width="1" />
<path d="M 0 0 H 0 Q 1.75 0 1.75 1.75 V 2.25 Q 1.75 4 0 4 H 0 Q -1.75 4 -1.75 2.25 V 1.75 Q -1.75 0 0 0 Z" fill="#4f7458" opacity="0.8" /></g>
<g transform="translate(36.4 27) rotate(-20)"><path d="M -1 -5 L 1 -5 L 0 12 Z" fill="#8b9892" stroke="#121a13" stroke-width="0.8" />
<path d="M -8 -3 Q -5 -9 1 -8 Q 2 -1 -2 2 Z" fill="url(#orc-metal)" stroke="#121a13" stroke-width="0.8" /></g>
    </g>
  </g>
<g transform="translate(128,0)">
    <g transform="translate(64,0) scale(-1,1)">
      <ellipse cx="32" cy="55" rx="12" ry="4" fill="rgba(0,0,0,0.18)" />
      <ellipse cx="32" cy="52" rx="12" ry="3" fill="rgba(0,0,0,0.2)" opacity="0.45" />
<path d="M 40 26 C 48 31, 48 42, 40 50 C 35 43, 36 33, 40 26 Z" fill="#253d2e" opacity="0.95" />
<path d="M 31.800000000000004 34.5 H 32.6 Q 35.6 34.5 35.6 37.5 V 42.5 Q 35.6 45.5 32.6 45.5 H 31.800000000000004 Q 28.800000000000004 45.5 28.800000000000004 42.5 V 37.5 Q 28.800000000000004 34.5 31.800000000000004 34.5 Z" fill="url(#orc-pants)" stroke="#121a13" stroke-width="1" />
<path d="M 31.300000000000004 36.5 H 33.1 Q 34.6 36.5 34.6 38 V 38 Q 34.6 39.5 33.1 39.5 H 31.300000000000004 Q 29.800000000000004 39.5 29.800000000000004 38 V 38 Q 29.800000000000004 36.5 31.300000000000004 36.5 Z" fill="#d9a24d" opacity="0.12" />
<path d="M 31.700000000000003 46 H 32.7 Q 34.7 46 34.7 48 V 48 Q 34.7 50 32.7 50 H 31.700000000000003 Q 29.700000000000003 50 29.700000000000003 48 V 48 Q 29.700000000000003 46 31.700000000000003 46 Z" fill="#1b241a" stroke="#121a13" stroke-width="1" />
<path d="M 35.6 36 H 36.4 Q 39.4 36 39.4 39 V 44 Q 39.4 47 36.4 47 H 35.6 Q 32.6 47 32.6 44 V 39 Q 32.6 36 35.6 36 Z" fill="url(#orc-pants)" stroke="#121a13" stroke-width="1" />
<path d="M 35.1 38 H 36.9 Q 38.4 38 38.4 39.5 V 39.5 Q 38.4 41 36.9 41 H 35.1 Q 33.6 41 33.6 39.5 V 39.5 Q 33.6 38 35.1 38 Z" fill="#d9a24d" opacity="0.12" />
<path d="M 35.5 46 H 36.5 Q 38.5 46 38.5 48 V 48 Q 38.5 50 36.5 50 H 35.5 Q 33.5 50 33.5 48 V 48 Q 33.5 46 35.5 46 Z" fill="#1b241a" stroke="#121a13" stroke-width="1" />
<path d="M 27 25 H 33 Q 39 25 39 31 V 36 Q 39 42 33 42 H 27 Q 21 42 21 36 V 31 Q 21 25 27 25 Z" fill="url(#orc-shirt)" stroke="#121a13" stroke-width="1.2" stroke-linejoin="round" />
<path d="M 25.5 29 H 34.5 Q 37 29 37 31.5 V 31.5 Q 37 34 34.5 34 H 25.5 Q 23 34 23 31.5 V 31.5 Q 23 29 25.5 29 Z" fill="#d9a24d" opacity="0.75" />
<ellipse cx="31" cy="12" rx="8.5" ry="7.7" fill="url(#orc-skin)" stroke="#121a13" stroke-width="1.2" />
<path d="M 24 9 Q 31 2 38 9 Q 37 15 31 16 Q 25 15 24 9 Z" fill="url(#orc-hair)" stroke="#121a13" stroke-width="1" />
<path d="M 28.4 16.2 Q 27.4 20.2 29.4 22.2" fill="none" stroke="#f2e7c2" stroke-width="1.2" stroke-linecap="round" />
<path d="M 33.6 16.2 Q 32.6 20.2 34.6 22.2" fill="none" stroke="#f2e7c2" stroke-width="1.2" stroke-linecap="round" />
<circle cx="28.4" cy="11.2" r="0.9" fill="#17131f" />
<circle cx="33.8" cy="11.2" r="0.9" fill="#17131f" />
<path d="M 29 14.6 Q 31 15.6 33 14.6" fill="none" stroke="#121a13" stroke-width="1" stroke-linecap="round" />
<path d="M 26 16 Q 31 19 36 16 L 35 19 Q 31 21 27 19 Z" fill="#d9a24d" opacity="0.08" />
<g transform="translate(22.2 26) rotate(-10)"><path d="M 0 0 H 0 Q 2.75 0 2.75 2.75 V 9.25 Q 2.75 12 0 12 H 0 Q -2.75 12 -2.75 9.25 V 2.75 Q -2.75 0 0 0 Z" fill="url(#orc-skin)" stroke="#121a13" stroke-width="1" />
<path d="M 0 2 H 0 Q 1.75 2 1.75 3.75 V 4.25 Q 1.75 6 0 6 H 0 Q -1.75 6 -1.75 4.25 V 3.75 Q -1.75 2 0 2 Z" fill="#4f7458" opacity="0.8" /></g>
<g transform="translate(42.2 26) rotate(16)"><path d="M 0 -2 H 0 Q 2.75 -2 2.75 0.75 V 7.25 Q 2.75 10 0 10 H 0 Q -2.75 10 -2.75 7.25 V 0.75 Q -2.75 -2 0 -2 Z" fill="url(#orc-skin)" stroke="#121a13" stroke-width="1" />
<path d="M 0 0 H 0 Q 1.75 0 1.75 1.75 V 2.25 Q 1.75 4 0 4 H 0 Q -1.75 4 -1.75 2.25 V 1.75 Q -1.75 0 0 0 Z" fill="#4f7458" opacity="0.8" /></g>
<g transform="translate(35.2 27) rotate(-20)"><path d="M -1 -5 L 1 -5 L 0 12 Z" fill="#8b9892" stroke="#121a13" stroke-width="0.8" />
<path d="M -8 -3 Q -5 -9 1 -8 Q 2 -1 -2 2 Z" fill="url(#orc-metal)" stroke="#121a13" stroke-width="0.8" /></g>
    </g>
  </g>
<g transform="translate(192,0)">
    <g transform="translate(64,0) scale(-1,1)">
      <ellipse cx="32" cy="55" rx="12" ry="4" fill="rgba(0,0,0,0.18)" />
      <ellipse cx="32" cy="51" rx="12" ry="3" fill="rgba(0,0,0,0.2)" opacity="0.45" />
<path d="M 40 26 C 48 31, 48 42, 40 50 C 35 43, 36 33, 40 26 Z" fill="#253d2e" opacity="0.95" />
<path d="M 28.6 33.5 H 29.4 Q 32.4 33.5 32.4 36.5 V 41.5 Q 32.4 44.5 29.4 44.5 H 28.6 Q 25.6 44.5 25.6 41.5 V 36.5 Q 25.6 33.5 28.6 33.5 Z" fill="url(#orc-pants)" stroke="#121a13" stroke-width="1" />
<path d="M 28.1 35.5 H 29.900000000000002 Q 31.400000000000002 35.5 31.400000000000002 37 V 37 Q 31.400000000000002 38.5 29.900000000000002 38.5 H 28.1 Q 26.6 38.5 26.6 37 V 37 Q 26.6 35.5 28.1 35.5 Z" fill="#d9a24d" opacity="0.12" />
<path d="M 28.5 45 H 29.5 Q 31.5 45 31.5 47 V 47 Q 31.5 49 29.5 49 H 28.5 Q 26.5 49 26.5 47 V 47 Q 26.5 45 28.5 45 Z" fill="#1b241a" stroke="#121a13" stroke-width="1" />
<path d="M 37.2 35 H 38 Q 41 35 41 38 V 43 Q 41 46 38 46 H 37.2 Q 34.2 46 34.2 43 V 38 Q 34.2 35 37.2 35 Z" fill="url(#orc-pants)" stroke="#121a13" stroke-width="1" />
<path d="M 36.7 37 H 38.5 Q 40 37 40 38.5 V 38.5 Q 40 40 38.5 40 H 36.7 Q 35.2 40 35.2 38.5 V 38.5 Q 35.2 37 36.7 37 Z" fill="#d9a24d" opacity="0.12" />
<path d="M 37.1 45 H 38.1 Q 40.1 45 40.1 47 V 47 Q 40.1 49 38.1 49 H 37.1 Q 35.1 49 35.1 47 V 47 Q 35.1 45 37.1 45 Z" fill="#1b241a" stroke="#121a13" stroke-width="1" />
<path d="M 27 24 H 33 Q 39 24 39 30 V 35 Q 39 41 33 41 H 27 Q 21 41 21 35 V 30 Q 21 24 27 24 Z" fill="url(#orc-shirt)" stroke="#121a13" stroke-width="1.2" stroke-linejoin="round" />
<path d="M 25.5 28 H 34.5 Q 37 28 37 30.5 V 30.5 Q 37 33 34.5 33 H 25.5 Q 23 33 23 30.5 V 30.5 Q 23 28 25.5 28 Z" fill="#d9a24d" opacity="0.75" />
<ellipse cx="31" cy="11" rx="8.5" ry="7.7" fill="url(#orc-skin)" stroke="#121a13" stroke-width="1.2" />
<path d="M 24 8 Q 31 1 38 8 Q 37 14 31 15 Q 25 14 24 8 Z" fill="url(#orc-hair)" stroke="#121a13" stroke-width="1" />
<path d="M 28.4 15.2 Q 27.4 19.2 29.4 21.2" fill="none" stroke="#f2e7c2" stroke-width="1.2" stroke-linecap="round" />
<path d="M 33.6 15.2 Q 32.6 19.2 34.6 21.2" fill="none" stroke="#f2e7c2" stroke-width="1.2" stroke-linecap="round" />
<circle cx="28.4" cy="10.2" r="0.9" fill="#17131f" />
<circle cx="33.8" cy="10.2" r="0.9" fill="#17131f" />
<path d="M 29 13.6 Q 31 14.6 33 13.6" fill="none" stroke="#121a13" stroke-width="1" stroke-linecap="round" />
<path d="M 26 15 Q 31 18 36 15 L 35 18 Q 31 20 27 18 Z" fill="#d9a24d" opacity="0.08" />
<g transform="translate(23 25) rotate(-10)"><path d="M 0 0 H 0 Q 2.75 0 2.75 2.75 V 9.25 Q 2.75 12 0 12 H 0 Q -2.75 12 -2.75 9.25 V 2.75 Q -2.75 0 0 0 Z" fill="url(#orc-skin)" stroke="#121a13" stroke-width="1" />
<path d="M 0 2 H 0 Q 1.75 2 1.75 3.75 V 4.25 Q 1.75 6 0 6 H 0 Q -1.75 6 -1.75 4.25 V 3.75 Q -1.75 2 0 2 Z" fill="#4f7458" opacity="0.8" /></g>
<g transform="translate(41 25) rotate(16)"><path d="M 0 -2 H 0 Q 2.75 -2 2.75 0.75 V 7.25 Q 2.75 10 0 10 H 0 Q -2.75 10 -2.75 7.25 V 0.75 Q -2.75 -2 0 -2 Z" fill="url(#orc-skin)" stroke="#121a13" stroke-width="1" />
<path d="M 0 0 H 0 Q 1.75 0 1.75 1.75 V 2.25 Q 1.75 4 0 4 H 0 Q -1.75 4 -1.75 2.25 V 1.75 Q -1.75 0 0 0 Z" fill="#4f7458" opacity="0.8" /></g>
<g transform="translate(34 25.8) rotate(-20)"><path d="M -1 -5 L 1 -5 L 0 12 Z" fill="#8b9892" stroke="#121a13" stroke-width="0.8" />
<path d="M -8 -3 Q -5 -9 1 -8 Q 2 -1 -2 2 Z" fill="url(#orc-metal)" stroke="#121a13" stroke-width="0.8" /></g>
    </g>
  </g>
<g transform="translate(256,0)">
    <g transform="translate(64,0) scale(-1,1)">
      <ellipse cx="32" cy="55" rx="12" ry="4" fill="rgba(0,0,0,0.18)" />
      <ellipse cx="32" cy="52" rx="12" ry="3" fill="rgba(0,0,0,0.2)" opacity="0.45" />
<path d="M 40 26 C 48 31, 48 42, 40 50 C 35 43, 36 33, 40 26 Z" fill="#253d2e" opacity="0.95" />
<path d="M 27 34.5 H 27.8 Q 30.8 34.5 30.8 37.5 V 42.5 Q 30.8 45.5 27.8 45.5 H 27 Q 24 45.5 24 42.5 V 37.5 Q 24 34.5 27 34.5 Z" fill="url(#orc-pants)" stroke="#121a13" stroke-width="1" />
<path d="M 26.5 36.5 H 28.3 Q 29.8 36.5 29.8 38 V 38 Q 29.8 39.5 28.3 39.5 H 26.5 Q 25 39.5 25 38 V 38 Q 25 36.5 26.5 36.5 Z" fill="#d9a24d" opacity="0.12" />
<path d="M 26.9 46 H 27.9 Q 29.9 46 29.9 48 V 48 Q 29.9 50 27.9 50 H 26.9 Q 24.9 50 24.9 48 V 48 Q 24.9 46 26.9 46 Z" fill="#1b241a" stroke="#121a13" stroke-width="1" />
<path d="M 38.800000000000004 36 H 39.6 Q 42.6 36 42.6 39 V 44 Q 42.6 47 39.6 47 H 38.800000000000004 Q 35.800000000000004 47 35.800000000000004 44 V 39 Q 35.800000000000004 36 38.800000000000004 36 Z" fill="url(#orc-pants)" stroke="#121a13" stroke-width="1" />
<path d="M 38.300000000000004 38 H 40.1 Q 41.6 38 41.6 39.5 V 39.5 Q 41.6 41 40.1 41 H 38.300000000000004 Q 36.800000000000004 41 36.800000000000004 39.5 V 39.5 Q 36.800000000000004 38 38.300000000000004 38 Z" fill="#d9a24d" opacity="0.12" />
<path d="M 38.7 46 H 39.7 Q 41.7 46 41.7 48 V 48 Q 41.7 50 39.7 50 H 38.7 Q 36.7 50 36.7 48 V 48 Q 36.7 46 38.7 46 Z" fill="#1b241a" stroke="#121a13" stroke-width="1" />
<path d="M 29 25 H 35 Q 41 25 41 31 V 36 Q 41 42 35 42 H 29 Q 23 42 23 36 V 31 Q 23 25 29 25 Z" fill="url(#orc-shirt)" stroke="#121a13" stroke-width="1.2" stroke-linejoin="round" />
<path d="M 27.5 29 H 36.5 Q 39 29 39 31.5 V 31.5 Q 39 34 36.5 34 H 27.5 Q 25 34 25 31.5 V 31.5 Q 25 29 27.5 29 Z" fill="#d9a24d" opacity="0.75" />
<ellipse cx="31" cy="12" rx="8.5" ry="7.7" fill="url(#orc-skin)" stroke="#121a13" stroke-width="1.2" />
<path d="M 24 9 Q 31 2 38 9 Q 37 15 31 16 Q 25 15 24 9 Z" fill="url(#orc-hair)" stroke="#121a13" stroke-width="1" />
<path d="M 28.4 16.2 Q 27.4 20.2 29.4 22.2" fill="none" stroke="#f2e7c2" stroke-width="1.2" stroke-linecap="round" />
<path d="M 33.6 16.2 Q 32.6 20.2 34.6 22.2" fill="none" stroke="#f2e7c2" stroke-width="1.2" stroke-linecap="round" />
<circle cx="28.4" cy="11.2" r="0.9" fill="#17131f" />
<circle cx="33.8" cy="11.2" r="0.9" fill="#17131f" />
<path d="M 29 14.6 Q 31 15.6 33 14.6" fill="none" stroke="#121a13" stroke-width="1" stroke-linecap="round" />
<path d="M 26 16 Q 31 19 36 16 L 35 19 Q 31 21 27 19 Z" fill="#d9a24d" opacity="0.08" />
<g transform="translate(23.8 26) rotate(-10)"><path d="M 0 0 H 0 Q 2.75 0 2.75 2.75 V 9.25 Q 2.75 12 0 12 H 0 Q -2.75 12 -2.75 9.25 V 2.75 Q -2.75 0 0 0 Z" fill="url(#orc-skin)" stroke="#121a13" stroke-width="1" />
<path d="M 0 2 H 0 Q 1.75 2 1.75 3.75 V 4.25 Q 1.75 6 0 6 H 0 Q -1.75 6 -1.75 4.25 V 3.75 Q -1.75 2 0 2 Z" fill="#4f7458" opacity="0.8" /></g>
<g transform="translate(39.8 26) rotate(16)"><path d="M 0 -2 H 0 Q 2.75 -2 2.75 0.75 V 7.25 Q 2.75 10 0 10 H 0 Q -2.75 10 -2.75 7.25 V 0.75 Q -2.75 -2 0 -2 Z" fill="url(#orc-skin)" stroke="#121a13" stroke-width="1" />
<path d="M 0 0 H 0 Q 1.75 0 1.75 1.75 V 2.25 Q 1.75 4 0 4 H 0 Q -1.75 4 -1.75 2.25 V 1.75 Q -1.75 0 0 0 Z" fill="#4f7458" opacity="0.8" /></g>
<g transform="translate(32.8 27) rotate(-20)"><path d="M -1 -5 L 1 -5 L 0 12 Z" fill="#8b9892" stroke="#121a13" stroke-width="0.8" />
<path d="M -8 -3 Q -5 -9 1 -8 Q 2 -1 -2 2 Z" fill="url(#orc-metal)" stroke="#121a13" stroke-width="0.8" /></g>
    </g>
  </g>
<g transform="translate(320,0)">
    <g transform="translate(64,0) scale(-1,1)">
      <ellipse cx="32" cy="55" rx="12" ry="4" fill="rgba(0,0,0,0.18)" />
      <ellipse cx="32" cy="53" rx="12" ry="3" fill="rgba(0,0,0,0.2)" opacity="0.45" />
<path d="M 40 26 C 48 31, 48 42, 40 50 C 35 43, 36 33, 40 26 Z" fill="#253d2e" opacity="0.95" />
<path d="M 25.400000000000002 35.5 H 26.200000000000003 Q 29.200000000000003 35.5 29.200000000000003 38.5 V 43.5 Q 29.200000000000003 46.5 26.200000000000003 46.5 H 25.400000000000002 Q 22.400000000000002 46.5 22.400000000000002 43.5 V 38.5 Q 22.400000000000002 35.5 25.400000000000002 35.5 Z" fill="url(#orc-pants)" stroke="#121a13" stroke-width="1" />
<path d="M 24.900000000000002 37.5 H 26.700000000000003 Q 28.200000000000003 37.5 28.200000000000003 39 V 39 Q 28.200000000000003 40.5 26.700000000000003 40.5 H 24.900000000000002 Q 23.400000000000002 40.5 23.400000000000002 39 V 39 Q 23.400000000000002 37.5 24.900000000000002 37.5 Z" fill="#d9a24d" opacity="0.12" />
<path d="M 25.3 47 H 26.3 Q 28.3 47 28.3 49 V 49 Q 28.3 51 26.3 51 H 25.3 Q 23.3 51 23.3 49 V 49 Q 23.3 47 25.3 47 Z" fill="#1b241a" stroke="#121a13" stroke-width="1" />
<path d="M 37.2 37 H 38 Q 41 37 41 40 V 45 Q 41 48 38 48 H 37.2 Q 34.2 48 34.2 45 V 40 Q 34.2 37 37.2 37 Z" fill="url(#orc-pants)" stroke="#121a13" stroke-width="1" />
<path d="M 36.7 39 H 38.5 Q 40 39 40 40.5 V 40.5 Q 40 42 38.5 42 H 36.7 Q 35.2 42 35.2 40.5 V 40.5 Q 35.2 39 36.7 39 Z" fill="#d9a24d" opacity="0.12" />
<path d="M 37.1 47 H 38.1 Q 40.1 47 40.1 49 V 49 Q 40.1 51 38.1 51 H 37.1 Q 35.1 51 35.1 49 V 49 Q 35.1 47 37.1 47 Z" fill="#1b241a" stroke="#121a13" stroke-width="1" />
<path d="M 31 26 H 37 Q 43 26 43 32 V 37 Q 43 43 37 43 H 31 Q 25 43 25 37 V 32 Q 25 26 31 26 Z" fill="url(#orc-shirt)" stroke="#121a13" stroke-width="1.2" stroke-linejoin="round" />
<path d="M 29.5 30 H 38.5 Q 41 30 41 32.5 V 32.5 Q 41 35 38.5 35 H 29.5 Q 27 35 27 32.5 V 32.5 Q 27 30 29.5 30 Z" fill="#d9a24d" opacity="0.75" />
<ellipse cx="31" cy="13" rx="8.5" ry="7.7" fill="url(#orc-skin)" stroke="#121a13" stroke-width="1.2" />
<path d="M 24 10 Q 31 3 38 10 Q 37 16 31 17 Q 25 16 24 10 Z" fill="url(#orc-hair)" stroke="#121a13" stroke-width="1" />
<path d="M 28.4 17.2 Q 27.4 21.2 29.4 23.2" fill="none" stroke="#f2e7c2" stroke-width="1.2" stroke-linecap="round" />
<path d="M 33.6 17.2 Q 32.6 21.2 34.6 23.2" fill="none" stroke="#f2e7c2" stroke-width="1.2" stroke-linecap="round" />
<circle cx="28.4" cy="12.2" r="0.9" fill="#17131f" />
<circle cx="33.8" cy="12.2" r="0.9" fill="#17131f" />
<path d="M 29 15.6 Q 31 16.6 33 15.6" fill="none" stroke="#121a13" stroke-width="1" stroke-linecap="round" />
<path d="M 26 17 Q 31 20 36 17 L 35 20 Q 31 22 27 20 Z" fill="#d9a24d" opacity="0.08" />
<g transform="translate(23 27) rotate(-10)"><path d="M 0 0 H 0 Q 2.75 0 2.75 2.75 V 9.25 Q 2.75 12 0 12 H 0 Q -2.75 12 -2.75 9.25 V 2.75 Q -2.75 0 0 0 Z" fill="url(#orc-skin)" stroke="#121a13" stroke-width="1" />
<path d="M 0 2 H 0 Q 1.75 2 1.75 3.75 V 4.25 Q 1.75 6 0 6 H 0 Q -1.75 6 -1.75 4.25 V 3.75 Q -1.75 2 0 2 Z" fill="#4f7458" opacity="0.8" /></g>
<g transform="translate(41 27) rotate(16)"><path d="M 0 -2 H 0 Q 2.75 -2 2.75 0.75 V 7.25 Q 2.75 10 0 10 H 0 Q -2.75 10 -2.75 7.25 V 0.75 Q -2.75 -2 0 -2 Z" fill="url(#orc-skin)" stroke="#121a13" stroke-width="1" />
<path d="M 0 0 H 0 Q 1.75 0 1.75 1.75 V 2.25 Q 1.75 4 0 4 H 0 Q -1.75 4 -1.75 2.25 V 1.75 Q -1.75 0 0 0 Z" fill="#4f7458" opacity="0.8" /></g>
<g transform="translate(34 28.2) rotate(-20)"><path d="M -1 -5 L 1 -5 L 0 12 Z" fill="#8b9892" stroke="#121a13" stroke-width="0.8" />
<path d="M -8 -3 Q -5 -9 1 -8 Q 2 -1 -2 2 Z" fill="url(#orc-metal)" stroke="#121a13" stroke-width="0.8" /></g>
    </g>
  </g>
<g transform="translate(384,0)">
    <g transform="translate(64,0) scale(-1,1)">
      <ellipse cx="32" cy="55" rx="12" ry="4" fill="rgba(0,0,0,0.18)" />
      <ellipse cx="32" cy="52" rx="12" ry="3" fill="rgba(0,0,0,0.2)" opacity="0.45" />
<path d="M 40 26 C 48 31, 48 42, 40 50 C 35 43, 36 33, 40 26 Z" fill="#253d2e" opacity="0.95" />
<path d="M 30.200000000000003 34.5 H 31 Q 34 34.5 34 37.5 V 42.5 Q 34 45.5 31 45.5 H 30.200000000000003 Q 27.200000000000003 45.5 27.200000000000003 42.5 V 37.5 Q 27.200000000000003 34.5 30.200000000000003 34.5 Z" fill="url(#orc-pants)" stroke="#121a13" stroke-width="1" />
<path d="M 29.700000000000003 36.5 H 31.5 Q 33 36.5 33 38 V 38 Q 33 39.5 31.5 39.5 H 29.700000000000003 Q 28.200000000000003 39.5 28.200000000000003 38 V 38 Q 28.200000000000003 36.5 29.700000000000003 36.5 Z" fill="#d9a24d" opacity="0.12" />
<path d="M 30.1 46 H 31.1 Q 33.1 46 33.1 48 V 48 Q 33.1 50 31.1 50 H 30.1 Q 28.1 50 28.1 48 V 48 Q 28.1 46 30.1 46 Z" fill="#1b241a" stroke="#121a13" stroke-width="1" />
<path d="M 34 36 H 34.8 Q 37.8 36 37.8 39 V 44 Q 37.8 47 34.8 47 H 34 Q 31 47 31 44 V 39 Q 31 36 34 36 Z" fill="url(#orc-pants)" stroke="#121a13" stroke-width="1" />
<path d="M 33.5 38 H 35.3 Q 36.8 38 36.8 39.5 V 39.5 Q 36.8 41 35.3 41 H 33.5 Q 32 41 32 39.5 V 39.5 Q 32 38 33.5 38 Z" fill="#d9a24d" opacity="0.12" />
<path d="M 33.9 46 H 34.9 Q 36.9 46 36.9 48 V 48 Q 36.9 50 34.9 50 H 33.9 Q 31.9 50 31.9 48 V 48 Q 31.9 46 33.9 46 Z" fill="#1b241a" stroke="#121a13" stroke-width="1" />
<path d="M 29 25 H 35 Q 41 25 41 31 V 36 Q 41 42 35 42 H 29 Q 23 42 23 36 V 31 Q 23 25 29 25 Z" fill="url(#orc-shirt)" stroke="#121a13" stroke-width="1.2" stroke-linejoin="round" />
<path d="M 27.5 29 H 36.5 Q 39 29 39 31.5 V 31.5 Q 39 34 36.5 34 H 27.5 Q 25 34 25 31.5 V 31.5 Q 25 29 27.5 29 Z" fill="#d9a24d" opacity="0.75" />
<ellipse cx="31" cy="12" rx="8.5" ry="7.7" fill="url(#orc-skin)" stroke="#121a13" stroke-width="1.2" />
<path d="M 24 9 Q 31 2 38 9 Q 37 15 31 16 Q 25 15 24 9 Z" fill="url(#orc-hair)" stroke="#121a13" stroke-width="1" />
<path d="M 28.4 16.2 Q 27.4 20.2 29.4 22.2" fill="none" stroke="#f2e7c2" stroke-width="1.2" stroke-linecap="round" />
<path d="M 33.6 16.2 Q 32.6 20.2 34.6 22.2" fill="none" stroke="#f2e7c2" stroke-width="1.2" stroke-linecap="round" />
<circle cx="28.4" cy="11.2" r="0.9" fill="#17131f" />
<circle cx="33.8" cy="11.2" r="0.9" fill="#17131f" />
<path d="M 29 14.6 Q 31 15.6 33 14.6" fill="none" stroke="#121a13" stroke-width="1" stroke-linecap="round" />
<path d="M 26 16 Q 31 19 36 16 L 35 19 Q 31 21 27 19 Z" fill="#d9a24d" opacity="0.08" />
<g transform="translate(22.2 26) rotate(-10)"><path d="M 0 0 H 0 Q 2.75 0 2.75 2.75 V 9.25 Q 2.75 12 0 12 H 0 Q -2.75 12 -2.75 9.25 V 2.75 Q -2.75 0 0 0 Z" fill="url(#orc-skin)" stroke="#121a13" stroke-width="1" />
<path d="M 0 2 H 0 Q 1.75 2 1.75 3.75 V 4.25 Q 1.75 6 0 6 H 0 Q -1.75 6 -1.75 4.25 V 3.75 Q -1.75 2 0 2 Z" fill="#4f7458" opacity="0.8" /></g>
<g transform="translate(42.2 26) rotate(16)"><path d="M 0 -2 H 0 Q 2.75 -2 2.75 0.75 V 7.25 Q 2.75 10 0 10 H 0 Q -2.75 10 -2.75 7.25 V 0.75 Q -2.75 -2 0 -2 Z" fill="url(#orc-skin)" stroke="#121a13" stroke-width="1" />
<path d="M 0 0 H 0 Q 1.75 0 1.75 1.75 V 2.25 Q 1.75 4 0 4 H 0 Q -1.75 4 -1.75 2.25 V 1.75 Q -1.75 0 0 0 Z" fill="#4f7458" opacity="0.8" /></g>
<g transform="translate(35.2 27) rotate(-20)"><path d="M -1 -5 L 1 -5 L 0 12 Z" fill="#8b9892" stroke="#121a13" stroke-width="0.8" />
<path d="M -8 -3 Q -5 -9 1 -8 Q 2 -1 -2 2 Z" fill="url(#orc-metal)" stroke="#121a13" stroke-width="0.8" /></g>
    </g>
  </g>
</svg>
