<?xml version="1.0" encoding="UTF-8"?>
<svg xmlns="http://www.w3.org/2000/svg" viewBox="0 0 384 64" width="384" height="64" shape-rendering="geometricPrecision">
  
    <defs>
      <linearGradient id="orc-shirt" x1="0%" y1="0%" x2="100%" y2="100%">
        <stop offset="0%" stop-color="#4f7458" />
        <stop offset="100%" stop-color="#34533b" />
      </linearGradient>
      <linearGradient id="orc-skin" x1="0%" y1="0%" x2="100%" y2="100%">
        <stop offset="0%" stop-color="#9bcf83" />
        <stop offset="100%" stop-color="#89bd71" />
      </linearGradient>
      <linearGradient id="orc-hair" x1="0%" y1="0%" x2="100%" y2="100%">
        <stop offset="0%" stop-color="#314f35" />
        <stop offset="100%" stop-color="#203323" />
      </linearGradient>
      <linearGradient id="orc-pants" x1="0%" y1="0%" x2="100%" y2="100%">
        <stop offset="0%" stop-color="#2f4330" />
        <stop offset="100%" stop-color="#1f3320" />
      </linearGradient>
      <linearGradient id="orc-metal" x1="0%" y1="0%" x2="100%" y2="100%">
        <stop offset="0%" stop-color="#edf3f0" />
        <stop offset="100%" stop-color="#8b9892" />
      </linearGradient>
      <filter id="orc-shadow" x="-50%" y="-50%" width="200%" height="200%">
        <feGaussianBlur stdDeviation="1.2" />
      </filter>
    </defs>
  
  <rect width="100%" height="100%" fill="transparent" />
  <g transform="translate(0,0)">
    <g>
      <ellipse cx="32" cy="55" rx="12" ry="4" fill="rgba(0,0,0,0.18)" />
      <ellipse cx="32" cy="52" rx="12" ry="3" fill="rgba(0,0,0,0.2)" opacity="0.45" />
<path d="M 24 26 C 16 31, 16 42, 24 50 C 29 43, 28 33, 24 26 Z" fill="#253d2e" opacity="0.95" />
<path d="M 28.6 34.5 H 29.4 Q 32.4 34.5 32.4 37.5 V 42.5 Q 32.4 45.5 29.4 45.5 H 28.6 Q 25.6 45.5 25.6 42.5 V 37.5 Q 25.6 34.5 28.6 34.5 Z" fill="url(#orc-pants)" stroke="#121a13" stroke-width="1" />
<path d="M 28.1 36.5 H 29.900000000000002 Q 31.400000000000002 36.5 31.400000000000002 38 V 38 Q 31.400000000000002 39.5 29.900000000000002 39.5 H 28.1 Q 26.6 39.5 26.6 38 V 38 Q 26.6 36.5 28.1 36.5 Z" fill="#d9a24d" opacity="0.12" />
<path d="M 28.5 46 H 29.5 Q 31.5 46 31.5 48 V 48 Q 31.5 50 29.5 50 H 28.5 Q 26.5 50 26.5 48 V 48 Q 26.5 46 28.5 46 Z" fill="#1b241a" stroke="#121a13" stroke-width="1" />
<path d="M 35.6 36 H 36.4 Q 39.4 36 39.4 39 V 44 Q 39.4 47 36.4 47 H 35.6 Q 32.6 47 32.6 44 V 39 Q 32.6 36 35.6 36 Z" fill="url(#orc-pants)" stroke="#121a13" stroke-width="1" />
<path d="M 35.1 38 H 36.9 Q 38.4 38 38.4 39.5 V 39.5 Q 38.4 41 36.9 41 H 35.1 Q 33.6 41 33.6 39.5 V 39.5 Q 33.6 38 35.1 38 Z" fill="#d9a24d" opacity="0.12" />
<path d="M 35.5 46 H 36.5 Q 38.5 46 38.5 48 V 48 Q 38.5 50 36.5 50 H 35.5 Q 33.5 50 33.5 48 V 48 Q 33.5 46 35.5 46 Z" fill="#1b241a" stroke="#121a13" stroke-width="1" />
<path d="M 29 25 H 35 Q 41 25 41 31 V 36 Q 41 42 35 42 H 29 Q 23 42 23 36 V 31 Q 23 25 29 25 Z" fill="url(#orc-shirt)" stroke="#121a13" stroke-width="1.2" stroke-linejoin="round" />
<path d="M 27.5 29 H 36.5 Q 39 29 39 31.5 V 31.5 Q 39 34 36.5 34 H 27.5 Q 25 34 25 31.5 V 31.5 Q 25 29 27.5 29 Z" fill="#d9a24d" opacity="0.75" />
<ellipse cx="33" cy="12" rx="8.5" ry="7.7" fill="url(#orc-skin)" stroke="#121a13" stroke-width="1.2" />
<path d="M 26 9 Q 33 2 40 9 Q 39 15 33 16 Q 27 15 26 9 Z" fill="url(#orc-hair)" stroke="#121a13" stroke-width="1" />
<path d="M 30.4 16.2 Q 29.4 20.2 31.4 22.2" fill="none" stroke="#f2e7c2" stroke-width="1.2" stroke-linecap="round" />
<path d="M 35.6 16.2 Q 34.6 20.2 36.6 22.2" fill="none" stroke="#f2e7c2" stroke-width="1.2" stroke-linecap="round" />
<circle cx="30.4" cy="11.2" r="0.9" fill="#17131f" />
<circle cx="35.8" cy="11.2" r="0.9" fill="#17131f" />
<path d="M 31 14.6 Q 33 15.6 35 14.6" fill="none" stroke="#121a13" stroke-width="1" stroke-linecap="round" />
<path d="M 28 16 Q 33 19 38 16 L 37 19 Q 33 21 29 19 Z" fill="#d9a24d" opacity="0.08" />
<g transform="translate(23 26) rotate(10)"><path d="M 0 0 H 0 Q 2.75 0 2.75 2.75 V 9.25 Q 2.75 12 0 12 H 0 Q -2.75 12 -2.75 9.25 V 2.75 Q -2.75 0 0 0 Z" fill="url(#orc-skin)" stroke="#121a13" stroke-width="1" />
<path d="M 0 2 H 0 Q 1.75 2 1.75 3.75 V 4.25 Q 1.75 6 0 6 H 0 Q -1.75 6 -1.75 4.25 V 3.75 Q -1.75 2 0 2 Z" fill="#4f7458" opacity="0.8" /></g>
<g transform="translate(41 26) rotate(-16)"><path d="M 0 -2 H 0 Q 2.75 -2 2.75 0.75 V 7.25 Q 2.75 10 0 10 H 0 Q -2.75 10 -2.75 7.25 V 0.75 Q -2.75 -2 0 -2 Z" fill="url(#orc-skin)" stroke="#121a13" stroke-width="1" />
<path d="M 0 0 H 0 Q 1.75 0 1.75 1.75 V 2.25 Q 1.75 4 0 4 H 0 Q -1.75 4 -1.75 2.25 V 1.75 Q -1.75 0 0 0 Z" fill="#4f7458" opacity="0.8" /></g>
<g transform="translate(48 27) rotate(20)"><path d="M -1 -5 L 1 -5 L 0 12 Z" fill="#8b9892" stroke="#121a13" stroke-width="0.8" />
<path d="M -8 -3 Q -5 -9 1 -8 Q 2 -1 -2 2 Z" fill="url(#orc-metal)" stroke="#121a13" stroke-width="0.8" /></g>
    </g>
  </g>
<g transform="translate(64,0)">
    <g>
      <ellipse cx="32" cy="55" rx="12" ry="4" fill="rgba(0,0,0,0.18)" />
      <ellipse cx="32" cy="52" rx="12" ry="3" fill="rgba(0,0,0,0.2)" opacity="0.45" />
<path d="M 24 26 C 16 31, 16 42, 24 50 C 29 43, 28 33, 24 26 Z" fill="#253d2e" opacity="0.95" />
<path d="M 27 34.5 H 27.8 Q 30.8 34.5 30.8 37.5 V 42.5 Q 30.8 45.5 27.8 45.5 H 27 Q 24 45.5 24 42.5 V 37.5 Q 24 34.5 27 34.5 Z" fill="url(#orc-pants)" stroke="#121a13" stroke-width="1" />
<path d="M 26.5 36.5 H 28.3 Q 29.8 36.5 29.8 38 V 38 Q 29.8 39.5 28.3 39.5 H 26.5 Q 25 39.5 25 38 V 38 Q 25 36.5 26.5 36.5 Z" fill="#d9a24d" opacity="0.12" />
<path d="M 26.9 46 H 27.9 Q 29.9 46 29.9 48 V 48 Q 29.9 50 27.9 50 H 26.9 Q 24.9 50 24.9 48 V 48 Q 24.9 46 26.9 46 Z" fill="#1b241a" stroke="#121a13" stroke-width="1" />
<path d="M 37.2 36 H 38 Q 41 36 41 39 V 44 Q 41 47 38 47 H 37.2 Q 34.2 47 34.2 44 V 39 Q 34.2 36 37.2 36 Z" fill="url(#orc-pants)" stroke="#121a13" stroke-width="1" />
<path d="M 36.7 38 H 38.5 Q 40 38 40 39.5 V 39.5 Q 40 41 38.5 41 H 36.7 Q 35.2 41 35.2 39.5 V 39.5 Q 35.2 38 36.7 38 Z" fill="#d9a24d" opacity="0.12" />
<path d="M 37.1 46 H 38.1 Q 40.1 46 40.1 48 V 48 Q 40.1 50 38.1 50 H 37.1 Q 35.1 50 35.1 48 V 48 Q 35.1 46 37.1 46 Z" fill="#1b241a" stroke="#121a13" stroke-width="1" />
<path d="M 29 25 H 35 Q 41 25 41 31 V 36 Q 41 42 35 42 H 29 Q 23 42 23 36 V 31 Q 23 25 29 25 Z" fill="url(#orc-shirt)" stroke="#121a13" stroke-width="1.2" stroke-linejoin="round" />
<path d="M 27.5 29 H 36.5 Q 39 29 39 31.5 V 31.5 Q 39 34 36.5 34 H 27.5 Q 25 34 25 31.5 V 31.5 Q 25 29 27.5 29 Z" fill="#d9a24d" opacity="0.75" />
<ellipse cx="33" cy="12" rx="8.5" ry="7.7" fill="url(#orc-skin)" stroke="#121a13" stroke-width="1.2" />
<path d="M 26 9 Q 33 2 40 9 Q 39 15 33 16 Q 27 15 26 9 Z" fill="url(#orc-hair)" stroke="#121a13" stroke-width="1" />
<path d="M 30.4 16.2 Q 29.4 20.2 31.4 22.2" fill="none" stroke="#f2e7c2" stroke-width="1.2" stroke-linecap="round" />
<path d="M 35.6 16.2 Q 34.6 20.2 36.6 22.2" fill="none" stroke="#f2e7c2" stroke-width="1.2" stroke-linecap="round" />
<circle cx="30.4" cy="11.2" r="0.9" fill="#17131f" />
<circle cx="35.8" cy="11.2" r="0.9" fill="#17131f" />
<path d="M 31 14.6 Q 33 15.6 35 14.6" fill="none" stroke="#121a13" stroke-width="1" stroke-linecap="round" />
<path d="M 28 16 Q 33 19 38 16 L 37 19 Q 33 21 29 19 Z" fill="#d9a24d" opacity="0.08" />
<g transform="translate(23.8 26) rotate(10)"><path d="M 0 0 H 0 Q 2.75 0 2.75 2.75 V 9.25 Q 2.75 12 0 12 H 0 Q -2.75 12 -2.75 9.25 V 2.75 Q -2.75 0 0 0 Z" fill="url(#orc-skin)" stroke="#121a13" stroke-width="1" />
<path d="M 0 2 H 0 Q 1.75 2 1.75 3.75 V 4.25 Q 1.75 6 0 6 H 0 Q -1.75 6 -1.75 4.25 V 3.75 Q -1.75 2 0 2 Z" fill="#4f7458" opacity="0.8" /></g>
<g transform="translate(39.8 26) rotate(-16)"><path d="M 0 -2 H 0 Q 2.75 -2 2.75 0.75 V 7.25 Q 2.75 10 0 10 H 0 Q -2.75 10 -2.75 7.25 V 0.75 Q -2.75 -2 0 -2 Z" fill="url(#orc-skin)" stroke="#121a13" stroke-width="1" />
<path d="M 0 0 H 0 Q 1.75 0 1.75 1.75 V 2.25 Q 1.75 4 0 4 H 0 Q -1.75 4 -1.75 2.25 V 1.75 Q -1.75 0 0 0 Z" fill="#4f7458" opacity="0.8" /></g>
<g transform="translate(46.8 27) rotate(20)"><path d="M -1 -5 L 1 -5 L 0 12 Z" fill="#8b9892" stroke="#121a13" stroke-width="0.8" />
<path d="M -8 -3 Q -5 -9 1 -8 Q 2 -1 -2 2 Z" fill="url(#orc-metal)" stroke="#121a13" stroke-width="0.8" /></g>
    </g>
  </g>
<g transform="translate(128,0)">
    <g>
      <ellipse cx="32" cy="55" rx="12" ry="4" fill="rgba(0,0,0,0.18)" />
      <ellipse cx="32" cy="51" rx="12" ry="3" fill="rgba(0,0,0,0.2)" opacity="0.45" />
<path d="M 24 26 C 16 31, 16 42, 24 50 C 29 43, 28 33, 24 26 Z" fill="#253d2e" opacity="0.95" />
<path d="M 27 33.5 H 27.8 Q 30.8 33.5 30.8 36.5 V 41.5 Q 30.8 44.5 27.8 44.5 H 27 Q 24 44.5 24 41.5 V 36.5 Q 24 33.5 27 33.5 Z" fill="url(#orc-pants)" stroke="#121a13" stroke-width="1" />
<path d="M 26.5 35.5 H 28.3 Q 29.8 35.5 29.8 37 V 37 Q 29.8 38.5 28.3 38.5 H 26.5 Q 25 38.5 25 37 V 37 Q 25 35.5 26.5 35.5 Z" fill="#d9a24d" opacity="0.12" />
<path d="M 26.9 45 H 27.9 Q 29.9 45 29.9 47 V 47 Q 29.9 49 27.9 49 H 26.9 Q 24.9 49 24.9 47 V 47 Q 24.9 45 26.9 45 Z" fill="#1b241a" stroke="#121a13" stroke-width="1" />
<path d="M 37.2 35 H 38 Q 41 35 41 38 V 43 Q 41 46 38 46 H 37.2 Q 34.2 46 34.2 43 V 38 Q 34.2 35 37.2 35 Z" fill="url(#orc-pants)" stroke="#121a13" stroke-width="1" />
<path d="M 36.7 37 H 38.5 Q 40 37 40 38.5 V 38.5 Q 40 40 38.5 40 H 36.7 Q 35.2 40 35.2 38.5 V 38.5 Q 35.2 37 36.7 37 Z" fill="#d9a24d" opacity="0.12" />
<path d="M 37.1 45 H 38.1 Q 40.1 45 40.1 47 V 47 Q 40.1 49 38.1 49 H 37.1 Q 35.1 49 35.1 47 V 47 Q 35.1 45 37.1 45 Z" fill="#1b241a" stroke="#121a13" stroke-width="1" />
<path d="M 29 24 H 35 Q 41 24 41 30 V 35 Q 41 41 35 41 H 29 Q 23 41 23 35 V 30 Q 23 24 29 24 Z" fill="url(#orc-shirt)" stroke="#121a13" stroke-width="1.2" stroke-linejoin="round" />
<path d="M 27.5 28 H 36.5 Q 39 28 39 30.5 V 30.5 Q 39 33 36.5 33 H 27.5 Q 25 33 25 30.5 V 30.5 Q 25 28 27.5 28 Z" fill="#d9a24d" opacity="0.75" />
<ellipse cx="33" cy="11" rx="8.5" ry="7.7" fill="url(#orc-skin)" stroke="#121a13" stroke-width="1.2" />
<path d="M 26 8 Q 33 1 40 8 Q 39 14 33 15 Q 27 14 26 8 Z" fill="url(#orc-hair)" stroke="#121a13" stroke-width="1" />
<path d="M 30.4 15.2 Q 29.4 19.2 31.4 21.2" fill="none" stroke="#f2e7c2" stroke-width="1.2" stroke-linecap="round" />
<path d="M 35.6 15.2 Q 34.6 19.2 36.6 21.2" fill="none" stroke="#f2e7c2" stroke-width="1.2" stroke-linecap="round" />
<circle cx="30.4" cy="10.2" r="0.9" fill="#17131f" />
<circle cx="35.8" cy="10.2" r="0.9" fill="#17131f" />
<path d="M 31 13.6 Q 33 14.6 35 13.6" fill="none" stroke="#121a13" stroke-width="1" stroke-linecap="round" />
<path d="M 28 15 Q 33 18 38 15 L 37 18 Q 33 20 29 18 Z" fill="#d9a24d" opacity="0.08" />
<g transform="translate(23 25) rotate(10)"><path d="M 0 0 H 0 Q 2.75 0 2.75 2.75 V 9.25 Q 2.75 12 0 12 H 0 Q -2.75 12 -2.75 9.25 V 2.75 Q -2.75 0 0 0 Z" fill="url(#orc-skin)" stroke="#121a13" stroke-width="1" />
<path d="M 0 2 H 0 Q 1.75 2 1.75 3.75 V 4.25 Q 1.75 6 0 6 H 0 Q -1.75 6 -1.75 4.25 V 3.75 Q -1.75 2 0 2 Z" fill="#4f7458" opacity="0.8" /></g>
<g transform="translate(41 25) rotate(-16)"><path d="M 0 -2 H 0 Q 2.75 -2 2.75 0.75 V 7.25 Q 2.75 10 0 10 H 0 Q -2.75 10 -2.75 7.25 V 0.75 Q -2.75 -2 0 -2 Z" fill="url(#orc-skin)" stroke="#121a13" stroke-width="1" />
<path d="M 0 0 H 0 Q 1.75 0 1.75 1.75 V 2.25 Q 1.75 4 0 4 H 0 Q -1.75 4 -1.75 2.25 V 1.75 Q -1.75 0 0 0 Z" fill="#4f7458" opacity="0.8" /></g>
<g transform="translate(48 25.8) rotate(20)"><path d="M -1 -5 L 1 -5 L 0 12 Z" fill="#8b9892" stroke="#121a13" stroke-width="0.8" />
<path d="M -8 -3 Q -5 -9 1 -8 Q 2 -1 -2 2 Z" fill="url(#orc-metal)" stroke="#121a13" stroke-width="0.8" /></g>
    </g>
  </g>
<g transform="translate(192,0)">
    <g>
      <ellipse cx="32" cy="55" rx="12" ry="4" fill="rgba(0,0,0,0.18)" />
      <ellipse cx="32" cy="52" rx="12" ry="3" fill="rgba(0,0,0,0.2)" opacity="0.45" />
<path d="M 24 26 C 16 31, 16 42, 24 50 C 29 43, 28 33, 24 26 Z" fill="#253d2e" opacity="0.95" />
<path d="M 28.6 34.5 H 29.4 Q 32.4 34.5 32.4 37.5 V 42.5 Q 32.4 45.5 29.4 45.5 H 28.6 Q 25.6 45.5 25.6 42.5 V 37.5 Q 25.6 34.5 28.6 34.5 Z" fill="url(#orc-pants)" stroke="#121a13" stroke-width="1" />
<path d="M 28.1 36.5 H 29.900000000000002 Q 31.400000000000002 36.5 31.400000000000002 38 V 38 Q 31.400000000000002 39.5 29.900000000000002 39.5 H 28.1 Q 26.6 39.5 26.6 38 V 38 Q 26.6 36.5 28.1 36.5 Z" fill="#d9a24d" opacity="0.12" />
<path d="M 28.5 46 H 29.5 Q 31.5 46 31.5 48 V 48 Q 31.5 50 29.5 50 H 28.5 Q 26.5 50 26.5 48 V 48 Q 26.5 46 28.5 46 Z" fill="#1b241a" stroke="#121a13" stroke-width="1" />
<path d="M 35.6 36 H 36.4 Q 39.4 36 39.4 39 V 44 Q 39.4 47 36.4 47 H 35.6 Q 32.6 47 32.6 44 V 39 Q 32.6 36 35.6 36 Z" fill="url(#orc-pants)" stroke="#121a13" stroke-width="1" />
<path d="M 35.1 38 H 36.9 Q 38.4 38 38.4 39.5 V 39.5 Q 38.4 41 36.9 41 H 35.1 Q 33.6 41 33.6 39.5 V 39.5 Q 33.6 38 35.1 38 Z" fill="#d9a24d" opacity="0.12" />
<path d="M 35.5 46 H 36.5 Q 38.5 46 38.5 48 V 48 Q 38.5 50 36.5 50 H 35.5 Q 33.5 50 33.5 48 V 48 Q 33.5 46 35.5 46 Z" fill="#1b241a" stroke="#121a13" stroke-width="1" />
<path d="M 29 25 H 35 Q 41 25 41 31 V 36 Q 41 42 35 42 H 29 Q 23 42 23 36 V 31 Q 23 25 29 25 Z" fill="url(#orc-shirt)" stroke="#121a13" stroke-width="1.2" stroke-linejoin="round" />
<path d="M 27.5 29 H 36.5 Q 39 29 39 31.5 V 31.5 Q 39 34 36.5 34 H 27.5 Q 25 34 25 31.5 V 31.5 Q 25 29 27.5 29 Z" fill="#d9a24d" opacity="0.75" />
<ellipse cx="33" cy="12" rx="8.5" ry="7.7" fill="url(#orc-skin)" stroke="#121a13" stroke-width="1.2" />
<path d="M 26 9 Q 33 2 40 9 Q 39 15 33 16 Q 27 15 26 9 Z" fill="url(#orc-hair)" stroke="#121a13" stroke-width="1" />
<path d="M 30.4 16.2 Q 29.4 20.2 31.4 22.2" fill="none" stroke="#f2e7c2" stroke-width="1.2" stroke-linecap="round" />
<path d="M 35.6 16.2 Q 34.6 20.2 36.6 22.2" fill="none" stroke="#f2e7c2" stroke-width="1.2" stroke-linecap="round" />
<circle cx="30.4" cy="11.2" r="0.9" fill="#17131f" />
<circle cx="35.8" cy="11.2" r="0.9" fill="#17131f" />
<path d="M 31 14.6 Q 33 15.6 35 14.6" fill="none" stroke="#121a13" stroke-width="1" stroke-linecap="round" />
<path d="M 28 16 Q 33 19 38 16 L 37 19 Q 33 21 29 19 Z" fill="#d9a24d" opacity="0.08" />
<g transform="translate(22.2 26) rotate(10)"><path d="M 0 0 H 0 Q 2.75 0 2.75 2.75 V 9.25 Q 2.75 12 0 12 H 0 Q -2.75 12 -2.75 9.25 V 2.75 Q -2.75 0 0 0 Z" fill="url(#orc-skin)" stroke="#121a13" stroke-width="1" />
<path d="M 0 2 H 0 Q 1.75 2 1.75 3.75 V 4.25 Q 1.75 6 0 6 H 0 Q -1.75 6 -1.75 4.25 V 3.75 Q -1.75 2 0 2 Z" fill="#4f7458" opacity="0.8" /></g>
<g transform="translate(42.2 26) rotate(-16)"><path d="M 0 -2 H 0 Q 2.75 -2 2.75 0.75 V 7.25 Q 2.75 10 0 10 H 0 Q -2.75 10 -2.75 7.25 V 0.75 Q -2.75 -2 0 -2 Z" fill="url(#orc-skin)" stroke="#121a13" stroke-width="1" />
<path d="M 0 0 H 0 Q 1.75 0 1.75 1.75 V 2.25 Q 1.75 4 0 4 H 0 Q -1.75 4 -1.75 2.25 V 1.75 Q -1.75 0 0 0 Z" fill="#4f7458" opacity="0.8" /></g>
<g transform="translate(49.2 27) rotate(20)"><path d="M -1 -5 L 1 -5 L 0 12 Z" fill="#8b9892" stroke="#121a13" stroke-width="0.8" />
<path d="M -8 -3 Q -5 -9 1 -8 Q 2 -1 -2 2 Z" fill="url(#orc-metal)" stroke="#121a13" stroke-width="0.8" /></g>
    </g>
  </g>
<g transform="translate(256,0)">
    <g>
      <ellipse cx="32" cy="55" rx="12" ry="4" fill="rgba(0,0,0,0.18)" />
      <ellipse cx="32" cy="53" rx="12" ry="3" fill="rgba(0,0,0,0.2)" opacity="0.45" />
<path d="M 24 26 C 16 31, 16 42, 24 50 C 29 43, 28 33, 24 26 Z" fill="#253d2e" opacity="0.95" />
<path d="M 30.200000000000003 35.5 H 31 Q 34 35.5 34 38.5 V 43.5 Q 34 46.5 31 46.5 H 30.200000000000003 Q 27.200000000000003 46.5 27.200000000000003 43.5 V 38.5 Q 27.200000000000003 35.5 30.200000000000003 35.5 Z" fill="url(#orc-pants)" stroke="#121a13" stroke-width="1" />
<path d="M 29.700000000000003 37.5 H 31.5 Q 33 37.5 33 39 V 39 Q 33 40.5 31.5 40.5 H 29.700000000000003 Q 28.200000000000003 40.5 28.200000000000003 39 V 39 Q 28.200000000000003 37.5 29.700000000000003 37.5 Z" fill="#d9a24d" opacity="0.12" />
<path d="M 30.1 47 H 31.1 Q 33.1 47 33.1 49 V 49 Q 33.1 51 31.1 51 H 30.1 Q 28.1 51 28.1 49 V 49 Q 28.1 47 30.1 47 Z" fill="#1b241a" stroke="#121a13" stroke-width="1" />
<path d="M 34 37 H 34.8 Q 37.8 37 37.8 40 V 45 Q 37.8 48 34.8 48 H 34 Q 31 48 31 45 V 40 Q 31 37 34 37 Z" fill="url(#orc-pants)" stroke="#121a13" stroke-width="1" />
<path d="M 33.5 39 H 35.3 Q 36.8 39 36.8 40.5 V 40.5 Q 36.8 42 35.3 42 H 33.5 Q 32 42 32 40.5 V 40.5 Q 32 39 33.5 39 Z" fill="#d9a24d" opacity="0.12" />
<path d="M 33.9 47 H 34.9 Q 36.9 47 36.9 49 V 49 Q 36.9 51 34.9 51 H 33.9 Q 31.9 51 31.9 49 V 49 Q 31.9 47 33.9 47 Z" fill="#1b241a" stroke="#121a13" stroke-width="1" />
<path d="M 29 26 H 35 Q 41 26 41 32 V 37 Q 41 43 35 43 H 29 Q 23 43 23 37 V 32 Q 23 26 29 26 Z" fill="url(#orc-shirt)" stroke="#121a13" stroke-width="1.2" stroke-linejoin="round" />
<path d="M 27.5 30 H 36.5 Q 39 30 39 32.5 V 32.5 Q 39 35 36.5 35 H 27.5 Q 25 35 25 32.5 V 32.5 Q 25 30 27.5 30 Z" fill="#d9a24d" opacity="0.75" />
<ellipse cx="33" cy="13" rx="8.5" ry="7.7" fill="url(#orc-skin)" stroke="#121a13" stroke-width="1.2" />
<path d="M 26 10 Q 33 3 40 10 Q 39 16 33 17 Q 27 16 26 10 Z" fill="url(#orc-hair)" stroke="#121a13" stroke-width="1" />
<path d="M 30.4 17.2 Q 29.4 21.2 31.4 23.2" fill="none" stroke="#f2e7c2" stroke-width="1.2" stroke-linecap="round" />
<path d="M 35.6 17.2 Q 34.6 21.2 36.6 23.2" fill="none" stroke="#f2e7c2" stroke-width="1.2" stroke-linecap="round" />
<circle cx="30.4" cy="12.2" r="0.9" fill="#17131f" />
<circle cx="35.8" cy="12.2" r="0.9" fill="#17131f" />
<path d="M 31 15.6 Q 33 16.6 35 15.6" fill="none" stroke="#121a13" stroke-width="1" stroke-linecap="round" />
<path d="M 28 17 Q 33 20 38 17 L 37 20 Q 33 22 29 20 Z" fill="#d9a24d" opacity="0.08" />
<g transform="translate(23 27) rotate(10)"><path d="M 0 0 H 0 Q 2.75 0 2.75 2.75 V 9.25 Q 2.75 12 0 12 H 0 Q -2.75 12 -2.75 9.25 V 2.75 Q -2.75 0 0 0 Z" fill="url(#orc-skin)" stroke="#121a13" stroke-width="1" />
<path d="M 0 2 H 0 Q 1.75 2 1.75 3.75 V 4.25 Q 1.75 6 0 6 H 0 Q -1.75 6 -1.75 4.25 V 3.75 Q -1.75 2 0 2 Z" fill="#4f7458" opacity="0.8" /></g>
<g transform="translate(41 27) rotate(-16)"><path d="M 0 -2 H 0 Q 2.75 -2 2.75 0.75 V 7.25 Q 2.75 10 0 10 H 0 Q -2.75 10 -2.75 7.25 V 0.75 Q -2.75 -2 0 -2 Z" fill="url(#orc-skin)" stroke="#121a13" stroke-width="1" />
<path d="M 0 0 H 0 Q 1.75 0 1.75 1.75 V 2.25 Q 1.75 4 0 4 H 0 Q -1.75 4 -1.75 2.25 V 1.75 Q -1.75 0 0 0 Z" fill="#4f7458" opacity="0.8" /></g>
<g transform="translate(48 28.2) rotate(20)"><path d="M -1 -5 L 1 -5 L 0 12 Z" fill="#8b9892" stroke="#121a13" stroke-width="0.8" />
<path d="M -8 -3 Q -5 -9 1 -8 Q 2 -1 -2 2 Z" fill="url(#orc-metal)" stroke="#121a13" stroke-width="0.8" /></g>
    </g>
  </g>
<g transform="translate(320,0)">
    <g>
      <ellipse cx="32" cy="55" rx="12" ry="4" fill="rgba(0,0,0,0.18)" />
      <ellipse cx="32" cy="52" rx="12" ry="3" fill="rgba(0,0,0,0.2)" opacity="0.45" />
<path d="M 24 26 C 16 31, 16 42, 24 50 C 29 43, 28 33, 24 26 Z" fill="#253d2e" opacity="0.95" />
<path d="M 30.200000000000003 34.5 H 31 Q 34 34.5 34 37.5 V 42.5 Q 34 45.5 31 45.5 H 30.200000000000003 Q 27.200000000000003 45.5 27.200000000000003 42.5 V 37.5 Q 27.200000000000003 34.5 30.200000000000003 34.5 Z" fill="url(#orc-pants)" stroke="#121a13" stroke-width="1" />
<path d="M 29.700000000000003 36.5 H 31.5 Q 33 36.5 33 38 V 38 Q 33 39.5 31.5 39.5 H 29.700000000000003 Q 28.200000000000003 39.5 28.200000000000003 38 V 38 Q 28.200000000000003 36.5 29.700000000000003 36.5 Z" fill="#d9a24d" opacity="0.12" />
<path d="M 30.1 46 H 31.1 Q 33.1 46 33.1 48 V 48 Q 33.1 50 31.1 50 H 30.1 Q 28.1 50 28.1 48 V 48 Q 28.1 46 30.1 46 Z" fill="#1b241a" stroke="#121a13" stroke-width="1" />
<path d="M 34 36 H 34.8 Q 37.8 36 37.8 39 V 44 Q 37.8 47 34.8 47 H 34 Q 31 47 31 44 V 39 Q 31 36 34 36 Z" fill="url(#orc-pants)" stroke="#121a13" stroke-width="1" />
<path d="M 33.5 38 H 35.3 Q 36.8 38 36.8 39.5 V 39.5 Q 36.8 41 35.3 41 H 33.5 Q 32 41 32 39.5 V 39.5 Q 32 38 33.5 38 Z" fill="#d9a24d" opacity="0.12" />
<path d="M 33.9 46 H 34.9 Q 36.9 46 36.9 48 V 48 Q 36.9 50 34.9 50 H 33.9 Q 31.9 50 31.9 48 V 48 Q 31.9 46 33.9 46 Z" fill="#1b241a" stroke="#121a13" stroke-width="1" />
<path d="M 29 25 H 35 Q 41 25 41 31 V 36 Q 41 42 35 42 H 29 Q 23 42 23 36 V 31 Q 23 25 29 25 Z" fill="url(#orc-shirt)" stroke="#121a13" stroke-width="1.2" stroke-linejoin="round" />
<path d="M 27.5 29 H 36.5 Q 39 29 39 31.5 V 31.5 Q 39 34 36.5 34 H 27.5 Q 25 34 25 31.5 V 31.5 Q 25 29 27.5 29 Z" fill="#d9a24d" opacity="0.75" />
<ellipse cx="33" cy="12" rx="8.5" ry="7.7" fill="url(#orc-skin)" stroke="#121a13" stroke-width="1.2" />
<path d="M 26 9 Q 33 2 40 9 Q 39 15 33 16 Q 27 15 26 9 Z" fill="url(#orc-hair)" stroke="#121a13" stroke-width="1" />
<path d="M 30.4 16.2 Q 29.4 20.2 31.4 22.2" fill="none" stroke="#f2e7c2" stroke-width="1.2" stroke-linecap="round" />
<path d="M 35.6 16.2 Q 34.6 20.2 36.6 22.2" fill="none" stroke="#f2e7c2" stroke-width="1.2" stroke-linecap="round" />
<circle cx="30.4" cy="11.2" r="0.9" fill="#17131f" />
<circle cx="35.8" cy="11.2" r="0.9" fill="#17131f" />
<path d="M 31 14.6 Q 33 15.6 35 14.6" fill="none" stroke="#121a13" stroke-width="1" stroke-linecap="round" />
<path d="M 28 16 Q 33 19 38 16 L 37 19 Q 33 21 29 19 Z" fill="#d9a24d" opacity="0.08" />
<g transform="translate(23.8 26) rotate(10)"><path d="M 0 0 H 0 Q 2.75 0 2.75 2.75 V 9.25 Q 2.75 12 0 12 H 0 Q -2.75 12 -2.75 9.25 V 2.75 Q -2.75 0 0 0 Z" fill="url(#orc-skin)" stroke="#121a13" stroke-width="1" />
<path d="M 0 2 H 0 Q 1.75 2 1.75 3.75 V 4.25 Q 1.75 6 0 6 H 0 Q -1.75 6 -1.75 4.25 V 3.75 Q -1.75 2 0 2 Z" fill="#4f7458" opacity="0.8" /></g>
<g transform="translate(39.8 26) rotate(-16)"><path d="M 0 -2 H 0 Q 2.75 -2 2.75 0.75 V 7.25 Q 2.75 10 0 10 H 0 Q -2.75 10 -2.75 7.25 V 0.75 Q -2.75 -2 0 -2 Z" fill="url(#orc-skin)" stroke="#121a13" stroke-width="1" />
<path d="M 0 0 H 0 Q 1.75 0 1.75 1.75 V 2.25 Q 1.75 4 0 4 H 0 Q -1.75 4 -1.75 2.25 V 1.75 Q -1.75 0 0 0 Z" fill="#4f7458" opacity="0.8" /></g>
<g transform="translate(46.8 27) rotate(20)"><path d="M -1 -5 L 1 -5 L 0 12 Z" fill="#8b9892" stroke="#121a13" stroke-width="0.8" />
<path d="M -8 -3 Q -5 -9 1 -8 Q 2 -1 -2 2 Z" fill="url(#orc-metal)" stroke="#121a13" stroke-width="0.8" /></g>
    </g>
  </g>
</svg>
