<?xml version="1.0" encoding="UTF-8"?>
<svg xmlns="http://www.w3.org/2000/svg" viewBox="0 0 384 64" width="384" height="64" shape-rendering="geometricPrecision">
  
    <defs>
      <linearGradient id="elf-shirt" x1="0%" y1="0%" x2="100%" y2="100%">
        <stop offset="0%" stop-color="#7dd8c0" />
        <stop offset="100%" stop-color="#4e9d8f" />
      </linearGradient>
      <linearGradient id="elf-skin" x1="0%" y1="0%" x2="100%" y2="100%">
        <stop offset="0%" stop-color="#d8f0c9" />
        <stop offset="100%" stop-color="#c6deb7" />
      </linearGradient>
      <linearGradient id="elf-hair" x1="0%" y1="0%" x2="100%" y2="100%">
        <stop offset="0%" stop-color="#5f8f64" />
        <stop offset="100%" stop-color="#345338" />
      </linearGradient>
      <linearGradient id="elf-pants" x1="0%" y1="0%" x2="100%" y2="100%">
        <stop offset="0%" stop-color="#324b47" />
        <stop offset="100%" stop-color="#223b37" />
      </linearGradient>
      <linearGradient id="elf-metal" x1="0%" y1="0%" x2="100%" y2="100%">
        <stop offset="0%" stop-color="#e7fff8" />
        <stop offset="100%" stop-color="#8cc0bb" />
      </linearGradient>
      <filter id="elf-shadow" x="-50%" y="-50%" width="200%" height="200%">
        <feGaussianBlur stdDeviation="1.2" />
      </filter>
    </defs>
  
  <rect width="100%" height="100%" fill="transparent" />
  <g transform="translate(0,0)">
    <g transform="translate(64,0) scale(-1,1)">
      <ellipse cx="32" cy="55" rx="12" ry="4" fill="rgba(0,0,0,0.18)" />
      <ellipse cx="32" cy="52" rx="12" ry="3" fill="rgba(0,0,0,0.2)" opacity="0.45" />
<path d="M 40 26 C 48 31, 48 42, 40 50 C 35 43, 36 33, 40 26 Z" fill="#295f60" opacity="0.95" />
<path d="M 28.9 34.5 H 29.1 Q 32.1 34.5 32.1 37.5 V 42.5 Q 32.1 45.5 29.1 45.5 H 28.9 Q 25.9 45.5 25.9 42.5 V 37.5 Q 25.9 34.5 28.9 34.5 Z" fill="url(#elf-pants)" stroke="#17211f" stroke-width="1" />
<path d="M 28.4 36.5 H 29.599999999999998 Q 31.099999999999998 36.5 31.099999999999998 38 V 38 Q 31.099999999999998 39.5 29.599999999999998 39.5 H 28.4 Q 26.9 39.5 26.9 38 V 38 Q 26.9 36.5 28.4 36.5 Z" fill="#d9e08f" opacity="0.12" />
<path d="M 28.5 46 H 29.5 Q 31.5 46 31.5 48 V 48 Q 31.5 50 29.5 50 H 28.5 Q 26.5 50 26.5 48 V 48 Q 26.5 46 28.5 46 Z" fill="#1d2d2a" stroke="#17211f" stroke-width="1" />
<path d="M 35.9 36 H 36.1 Q 39.1 36 39.1 39 V 44 Q 39.1 47 36.1 47 H 35.9 Q 32.9 47 32.9 44 V 39 Q 32.9 36 35.9 36 Z" fill="url(#elf-pants)" stroke="#17211f" stroke-width="1" />
<path d="M 35.4 38 H 36.6 Q 38.1 38 38.1 39.5 V 39.5 Q 38.1 41 36.6 41 H 35.4 Q 33.9 41 33.9 39.5 V 39.5 Q 33.9 38 35.4 38 Z" fill="#d9e08f" opacity="0.12" />
<path d="M 35.5 46 H 36.5 Q 38.5 46 38.5 48 V 48 Q 38.5 50 36.5 50 H 35.5 Q 33.5 50 33.5 48 V 48 Q 33.5 46 35.5 46 Z" fill="#1d2d2a" stroke="#17211f" stroke-width="1" />
<path d="M 30 25 H 34 Q 40 25 40 31 V 36 Q 40 42 34 42 H 30 Q 24 42 24 36 V 31 Q 24 25 30 25 Z" fill="url(#elf-shirt)" stroke="#17211f" stroke-width="1.2" stroke-linejoin="round" />
<path d="M 28.5 29 H 35.5 Q 38 29 38 31.5 V 31.5 Q 38 34 35.5 34 H 28.5 Q 26 34 26 31.5 V 31.5 Q 26 29 28.5 29 Z" fill="#d9e08f" opacity="0.75" />
<ellipse cx="31" cy="12" rx="7.3" ry="7.7" fill="url(#elf-skin)" stroke="#17211f" stroke-width="1.2" />
<path d="M 23 8 Q 31 1 39 8 Q 38 16 31 17 Q 24 16 23 8 Z" fill="url(#elf-hair)" stroke="#17211f" stroke-width="1" />
<path d="M 23.6 10.8 Q 20.6 7.800000000000001 18.6 11.8 Q 21.6 13.8 23.6 10.8 Z" fill="#d9cfaf" stroke="rgba(0,0,0,0.18)" stroke-width="0.8" />
<path d="M 38.4 10.8 Q 41.4 7.800000000000001 43.4 11.8 Q 40.4 13.8 38.4 10.8 Z" fill="#d9cfaf" stroke="rgba(0,0,0,0.18)" stroke-width="0.8" />
<circle cx="28.4" cy="11.2" r="0.9" fill="#17131f" />
<circle cx="33.8" cy="11.2" r="0.9" fill="#17131f" />
<path d="M 29 14.6 Q 31 16.1 33 14.6" fill="none" stroke="#17211f" stroke-width="1" stroke-linecap="round" />
<path d="M 26 16 Q 31 19 36 16 L 35 19 Q 31 21 27 19 Z" fill="#d9e08f" opacity="0.08" />
<g transform="translate(23 26) rotate(-10)"><path d="M 0 0 H 0 Q 2.75 0 2.75 2.75 V 7.25 Q 2.75 10 0 10 H 0 Q -2.75 10 -2.75 7.25 V 2.75 Q -2.75 0 0 0 Z" fill="url(#elf-skin)" stroke="#17211f" stroke-width="1" />
<path d="M 0 2 H 0 Q 1.75 2 1.75 3.75 V 4.25 Q 1.75 6 0 6 H 0 Q -1.75 6 -1.75 4.25 V 3.75 Q -1.75 2 0 2 Z" fill="#7dd8c0" opacity="0.8" /></g>
<g transform="translate(41 26) rotate(12)"><path d="M 0 -2 H 0 Q 2.75 -2 2.75 0.75 V 5.25 Q 2.75 8 0 8 H 0 Q -2.75 8 -2.75 5.25 V 0.75 Q -2.75 -2 0 -2 Z" fill="url(#elf-skin)" stroke="#17211f" stroke-width="1" />
<path d="M 0 0 H 0 Q 1.75 0 1.75 1.75 V 2.25 Q 1.75 4 0 4 H 0 Q -1.75 4 -1.75 2.25 V 1.75 Q -1.75 0 0 0 Z" fill="#7dd8c0" opacity="0.8" /></g>
<g transform="translate(34 27) rotate(10)"><rect x="-1" y="-6" width="2" height="15" rx="1" fill="#8cc0bb" stroke="#17211f" stroke-width="0.8" />
<rect x="-1.5" y="-7" width="3" height="2" rx="1" fill="#d9e08f" stroke="#17211f" stroke-width="0.8" />
<path d="M -1 -4 L 1 -4 L 0 10 Z" fill="#e7fff8" opacity="0.75" /></g>
    </g>
  </g>
<g transform="translate(64,0)">
    <g transform="translate(64,0) scale(-1,1)">
      <ellipse cx="32" cy="55" rx="12" ry="4" fill="rgba(0,0,0,0.18)" />
      <ellipse cx="32" cy="52" rx="12" ry="3" fill="rgba(0,0,0,0.2)" opacity="0.45" />
<path d="M 40 26 C 48 31, 48 42, 40 50 C 35 43, 36 33, 40 26 Z" fill="#295f60" opacity="0.95" />
<path d="M 30.5 34.5 H 30.700000000000003 Q 33.7 34.5 33.7 37.5 V 42.5 Q 33.7 45.5 30.700000000000003 45.5 H 30.5 Q 27.5 45.5 27.5 42.5 V 37.5 Q 27.5 34.5 30.5 34.5 Z" fill="url(#elf-pants)" stroke="#17211f" stroke-width="1" />
<path d="M 30 36.5 H 31.200000000000003 Q 32.7 36.5 32.7 38 V 38 Q 32.7 39.5 31.200000000000003 39.5 H 30 Q 28.5 39.5 28.5 38 V 38 Q 28.5 36.5 30 36.5 Z" fill="#d9e08f" opacity="0.12" />
<path d="M 30.1 46 H 31.1 Q 33.1 46 33.1 48 V 48 Q 33.1 50 31.1 50 H 30.1 Q 28.1 50 28.1 48 V 48 Q 28.1 46 30.1 46 Z" fill="#1d2d2a" stroke="#17211f" stroke-width="1" />
<path d="M 35.9 36 H 36.1 Q 39.1 36 39.1 39 V 44 Q 39.1 47 36.1 47 H 35.9 Q 32.9 47 32.9 44 V 39 Q 32.9 36 35.9 36 Z" fill="url(#elf-pants)" stroke="#17211f" stroke-width="1" />
<path d="M 35.4 38 H 36.6 Q 38.1 38 38.1 39.5 V 39.5 Q 38.1 41 36.6 41 H 35.4 Q 33.9 41 33.9 39.5 V 39.5 Q 33.9 38 35.4 38 Z" fill="#d9e08f" opacity="0.12" />
<path d="M 35.5 46 H 36.5 Q 38.5 46 38.5 48 V 48 Q 38.5 50 36.5 50 H 35.5 Q 33.5 50 33.5 48 V 48 Q 33.5 46 35.5 46 Z" fill="#1d2d2a" stroke="#17211f" stroke-width="1" />
<path d="M 30 25 H 34 Q 40 25 40 31 V 36 Q 40 42 34 42 H 30 Q 24 42 24 36 V 31 Q 24 25 30 25 Z" fill="url(#elf-shirt)" stroke="#17211f" stroke-width="1.2" stroke-linejoin="round" />
<path d="M 28.5 29 H 35.5 Q 38 29 38 31.5 V 31.5 Q 38 34 35.5 34 H 28.5 Q 26 34 26 31.5 V 31.5 Q 26 29 28.5 29 Z" fill="#d9e08f" opacity="0.75" />
<ellipse cx="31" cy="12" rx="7.3" ry="7.7" fill="url(#elf-skin)" stroke="#17211f" stroke-width="1.2" />
<path d="M 23 8 Q 31 1 39 8 Q 38 16 31 17 Q 24 16 23 8 Z" fill="url(#elf-hair)" stroke="#17211f" stroke-width="1" />
<path d="M 23.6 10.8 Q 20.6 7.800000000000001 18.6 11.8 Q 21.6 13.8 23.6 10.8 Z" fill="#d9cfaf" stroke="rgba(0,0,0,0.18)" stroke-width="0.8" />
<path d="M 38.4 10.8 Q 41.4 7.800000000000001 43.4 11.8 Q 40.4 13.8 38.4 10.8 Z" fill="#d9cfaf" stroke="rgba(0,0,0,0.18)" stroke-width="0.8" />
<circle cx="28.4" cy="11.2" r="0.9" fill="#17131f" />
<circle cx="33.8" cy="11.2" r="0.9" fill="#17131f" />
<path d="M 29 14.6 Q 31 16.1 33 14.6" fill="none" stroke="#17211f" stroke-width="1" stroke-linecap="round" />
<path d="M 26 16 Q 31 19 36 16 L 35 19 Q 31 21 27 19 Z" fill="#d9e08f" opacity="0.08" />
<g transform="translate(22.2 26) rotate(-10)"><path d="M 0 0 H 0 Q 2.75 0 2.75 2.75 V 7.25 Q 2.75 10 0 10 H 0 Q -2.75 10 -2.75 7.25 V 2.75 Q -2.75 0 0 0 Z" fill="url(#elf-skin)" stroke="#17211f" stroke-width="1" />
<path d="M 0 2 H 0 Q 1.75 2 1.75 3.75 V 4.25 Q 1.75 6 0 6 H 0 Q -1.75 6 -1.75 4.25 V 3.75 Q -1.75 2 0 2 Z" fill="#7dd8c0" opacity="0.8" /></g>
<g transform="translate(42.2 26) rotate(12)"><path d="M 0 -2 H 0 Q 2.75 -2 2.75 0.75 V 5.25 Q 2.75 8 0 8 H 0 Q -2.75 8 -2.75 5.25 V 0.75 Q -2.75 -2 0 -2 Z" fill="url(#elf-skin)" stroke="#17211f" stroke-width="1" />
<path d="M 0 0 H 0 Q 1.75 0 1.75 1.75 V 2.25 Q 1.75 4 0 4 H 0 Q -1.75 4 -1.75 2.25 V 1.75 Q -1.75 0 0 0 Z" fill="#7dd8c0" opacity="0.8" /></g>
<g transform="translate(35.2 27) rotate(10)"><rect x="-1" y="-6" width="2" height="15" rx="1" fill="#8cc0bb" stroke="#17211f" stroke-width="0.8" />
<rect x="-1.5" y="-7" width="3" height="2" rx="1" fill="#d9e08f" stroke="#17211f" stroke-width="0.8" />
<path d="M -1 -4 L 1 -4 L 0 10 Z" fill="#e7fff8" opacity="0.75" /></g>
    </g>
  </g>
<g transform="translate(128,0)">
    <g transform="translate(64,0) scale(-1,1)">
      <ellipse cx="32" cy="55" rx="12" ry="4" fill="rgba(0,0,0,0.18)" />
      <ellipse cx="32" cy="51" rx="12" ry="3" fill="rgba(0,0,0,0.2)" opacity="0.45" />
<path d="M 40 26 C 48 31, 48 42, 40 50 C 35 43, 36 33, 40 26 Z" fill="#295f60" opacity="0.95" />
<path d="M 30.5 33.5 H 30.700000000000003 Q 33.7 33.5 33.7 36.5 V 41.5 Q 33.7 44.5 30.700000000000003 44.5 H 30.5 Q 27.5 44.5 27.5 41.5 V 36.5 Q 27.5 33.5 30.5 33.5 Z" fill="url(#elf-pants)" stroke="#17211f" stroke-width="1" />
<path d="M 30 35.5 H 31.200000000000003 Q 32.7 35.5 32.7 37 V 37 Q 32.7 38.5 31.200000000000003 38.5 H 30 Q 28.5 38.5 28.5 37 V 37 Q 28.5 35.5 30 35.5 Z" fill="#d9e08f" opacity="0.12" />
<path d="M 30.1 45 H 31.1 Q 33.1 45 33.1 47 V 47 Q 33.1 49 31.1 49 H 30.1 Q 28.1 49 28.1 47 V 47 Q 28.1 45 30.1 45 Z" fill="#1d2d2a" stroke="#17211f" stroke-width="1" />
<path d="M 34.3 35 H 34.5 Q 37.5 35 37.5 38 V 43 Q 37.5 46 34.5 46 H 34.3 Q 31.299999999999997 46 31.299999999999997 43 V 38 Q 31.299999999999997 35 34.3 35 Z" fill="url(#elf-pants)" stroke="#17211f" stroke-width="1" />
<path d="M 33.8 37 H 35 Q 36.5 37 36.5 38.5 V 38.5 Q 36.5 40 35 40 H 33.8 Q 32.3 40 32.3 38.5 V 38.5 Q 32.3 37 33.8 37 Z" fill="#d9e08f" opacity="0.12" />
<path d="M 33.9 45 H 34.9 Q 36.9 45 36.9 47 V 47 Q 36.9 49 34.9 49 H 33.9 Q 31.9 49 31.9 47 V 47 Q 31.9 45 33.9 45 Z" fill="#1d2d2a" stroke="#17211f" stroke-width="1" />
<path d="M 30 24 H 34 Q 40 24 40 30 V 35 Q 40 41 34 41 H 30 Q 24 41 24 35 V 30 Q 24 24 30 24 Z" fill="url(#elf-shirt)" stroke="#17211f" stroke-width="1.2" stroke-linejoin="round" />
<path d="M 28.5 28 H 35.5 Q 38 28 38 30.5 V 30.5 Q 38 33 35.5 33 H 28.5 Q 26 33 26 30.5 V 30.5 Q 26 28 28.5 28 Z" fill="#d9e08f" opacity="0.75" />
<ellipse cx="31" cy="11" rx="7.3" ry="7.7" fill="url(#elf-skin)" stroke="#17211f" stroke-width="1.2" />
<path d="M 23 7 Q 31 0 39 7 Q 38 15 31 16 Q 24 15 23 7 Z" fill="url(#elf-hair)" stroke="#17211f" stroke-width="1" />
<path d="M 23.6 9.8 Q 20.6 6.800000000000001 18.6 10.8 Q 21.6 12.8 23.6 9.8 Z" fill="#d9cfaf" stroke="rgba(0,0,0,0.18)" stroke-width="0.8" />
<path d="M 38.4 9.8 Q 41.4 6.800000000000001 43.4 10.8 Q 40.4 12.8 38.4 9.8 Z" fill="#d9cfaf" stroke="rgba(0,0,0,0.18)" stroke-width="0.8" />
<circle cx="28.4" cy="10.2" r="0.9" fill="#17131f" />
<circle cx="33.8" cy="10.2" r="0.9" fill="#17131f" />
<path d="M 29 13.6 Q 31 15.1 33 13.6" fill="none" stroke="#17211f" stroke-width="1" stroke-linecap="round" />
<path d="M 26 15 Q 31 18 36 15 L 35 18 Q 31 20 27 18 Z" fill="#d9e08f" opacity="0.08" />
<g transform="translate(21.4 25) rotate(-10)"><path d="M 0 0 H 0 Q 2.75 0 2.75 2.75 V 7.25 Q 2.75 10 0 10 H 0 Q -2.75 10 -2.75 7.25 V 2.75 Q -2.75 0 0 0 Z" fill="url(#elf-skin)" stroke="#17211f" stroke-width="1" />
<path d="M 0 2 H 0 Q 1.75 2 1.75 3.75 V 4.25 Q 1.75 6 0 6 H 0 Q -1.75 6 -1.75 4.25 V 3.75 Q -1.75 2 0 2 Z" fill="#7dd8c0" opacity="0.8" /></g>
<g transform="translate(43.4 25) rotate(12)"><path d="M 0 -2 H 0 Q 2.75 -2 2.75 0.75 V 5.25 Q 2.75 8 0 8 H 0 Q -2.75 8 -2.75 5.25 V 0.75 Q -2.75 -2 0 -2 Z" fill="url(#elf-skin)" stroke="#17211f" stroke-width="1" />
<path d="M 0 0 H 0 Q 1.75 0 1.75 1.75 V 2.25 Q 1.75 4 0 4 H 0 Q -1.75 4 -1.75 2.25 V 1.75 Q -1.75 0 0 0 Z" fill="#7dd8c0" opacity="0.8" /></g>
<g transform="translate(36.4 25.8) rotate(10)"><rect x="-1" y="-6" width="2" height="15" rx="1" fill="#8cc0bb" stroke="#17211f" stroke-width="0.8" />
<rect x="-1.5" y="-7" width="3" height="2" rx="1" fill="#d9e08f" stroke="#17211f" stroke-width="0.8" />
<path d="M -1 -4 L 1 -4 L 0 10 Z" fill="#e7fff8" opacity="0.75" /></g>
    </g>
  </g>
<g transform="translate(192,0)">
    <g transform="translate(64,0) scale(-1,1)">
      <ellipse cx="32" cy="55" rx="12" ry="4" fill="rgba(0,0,0,0.18)" />
      <ellipse cx="32" cy="52" rx="12" ry="3" fill="rgba(0,0,0,0.2)" opacity="0.45" />
<path d="M 40 26 C 48 31, 48 42, 40 50 C 35 43, 36 33, 40 26 Z" fill="#295f60" opacity="0.95" />
<path d="M 28.9 34.5 H 29.1 Q 32.1 34.5 32.1 37.5 V 42.5 Q 32.1 45.5 29.1 45.5 H 28.9 Q 25.9 45.5 25.9 42.5 V 37.5 Q 25.9 34.5 28.9 34.5 Z" fill="url(#elf-pants)" stroke="#17211f" stroke-width="1" />
<path d="M 28.4 36.5 H 29.599999999999998 Q 31.099999999999998 36.5 31.099999999999998 38 V 38 Q 31.099999999999998 39.5 29.599999999999998 39.5 H 28.4 Q 26.9 39.5 26.9 38 V 38 Q 26.9 36.5 28.4 36.5 Z" fill="#d9e08f" opacity="0.12" />
<path d="M 28.5 46 H 29.5 Q 31.5 46 31.5 48 V 48 Q 31.5 50 29.5 50 H 28.5 Q 26.5 50 26.5 48 V 48 Q 26.5 46 28.5 46 Z" fill="#1d2d2a" stroke="#17211f" stroke-width="1" />
<path d="M 35.9 36 H 36.1 Q 39.1 36 39.1 39 V 44 Q 39.1 47 36.1 47 H 35.9 Q 32.9 47 32.9 44 V 39 Q 32.9 36 35.9 36 Z" fill="url(#elf-pants)" stroke="#17211f" stroke-width="1" />
<path d="M 35.4 38 H 36.6 Q 38.1 38 38.1 39.5 V 39.5 Q 38.1 41 36.6 41 H 35.4 Q 33.9 41 33.9 39.5 V 39.5 Q 33.9 38 35.4 38 Z" fill="#d9e08f" opacity="0.12" />
<path d="M 35.5 46 H 36.5 Q 38.5 46 38.5 48 V 48 Q 38.5 50 36.5 50 H 35.5 Q 33.5 50 33.5 48 V 48 Q 33.5 46 35.5 46 Z" fill="#1d2d2a" stroke="#17211f" stroke-width="1" />
<path d="M 30 25 H 34 Q 40 25 40 31 V 36 Q 40 42 34 42 H 30 Q 24 42 24 36 V 31 Q 24 25 30 25 Z" fill="url(#elf-shirt)" stroke="#17211f" stroke-width="1.2" stroke-linejoin="round" />
<path d="M 28.5 29 H 35.5 Q 38 29 38 31.5 V 31.5 Q 38 34 35.5 34 H 28.5 Q 26 34 26 31.5 V 31.5 Q 26 29 28.5 29 Z" fill="#d9e08f" opacity="0.75" />
<ellipse cx="31" cy="12" rx="7.3" ry="7.7" fill="url(#elf-skin)" stroke="#17211f" stroke-width="1.2" />
<path d="M 23 8 Q 31 1 39 8 Q 38 16 31 17 Q 24 16 23 8 Z" fill="url(#elf-hair)" stroke="#17211f" stroke-width="1" />
<path d="M 23.6 10.8 Q 20.6 7.800000000000001 18.6 11.8 Q 21.6 13.8 23.6 10.8 Z" fill="#d9cfaf" stroke="rgba(0,0,0,0.18)" stroke-width="0.8" />
<path d="M 38.4 10.8 Q 41.4 7.800000000000001 43.4 11.8 Q 40.4 13.8 38.4 10.8 Z" fill="#d9cfaf" stroke="rgba(0,0,0,0.18)" stroke-width="0.8" />
<circle cx="28.4" cy="11.2" r="0.9" fill="#17131f" />
<circle cx="33.8" cy="11.2" r="0.9" fill="#17131f" />
<path d="M 29 14.6 Q 31 16.1 33 14.6" fill="none" stroke="#17211f" stroke-width="1" stroke-linecap="round" />
<path d="M 26 16 Q 31 19 36 16 L 35 19 Q 31 21 27 19 Z" fill="#d9e08f" opacity="0.08" />
<g transform="translate(21.4 26) rotate(-10)"><path d="M 0 0 H 0 Q 2.75 0 2.75 2.75 V 7.25 Q 2.75 10 0 10 H 0 Q -2.75 10 -2.75 7.25 V 2.75 Q -2.75 0 0 0 Z" fill="url(#elf-skin)" stroke="#17211f" stroke-width="1" />
<path d="M 0 2 H 0 Q 1.75 2 1.75 3.75 V 4.25 Q 1.75 6 0 6 H 0 Q -1.75 6 -1.75 4.25 V 3.75 Q -1.75 2 0 2 Z" fill="#7dd8c0" opacity="0.8" /></g>
<g transform="translate(43.4 26) rotate(12)"><path d="M 0 -2 H 0 Q 2.75 -2 2.75 0.75 V 5.25 Q 2.75 8 0 8 H 0 Q -2.75 8 -2.75 5.25 V 0.75 Q -2.75 -2 0 -2 Z" fill="url(#elf-skin)" stroke="#17211f" stroke-width="1" />
<path d="M 0 0 H 0 Q 1.75 0 1.75 1.75 V 2.25 Q 1.75 4 0 4 H 0 Q -1.75 4 -1.75 2.25 V 1.75 Q -1.75 0 0 0 Z" fill="#7dd8c0" opacity="0.8" /></g>
<g transform="translate(36.4 27) rotate(10)"><rect x="-1" y="-6" width="2" height="15" rx="1" fill="#8cc0bb" stroke="#17211f" stroke-width="0.8" />
<rect x="-1.5" y="-7" width="3" height="2" rx="1" fill="#d9e08f" stroke="#17211f" stroke-width="0.8" />
<path d="M -1 -4 L 1 -4 L 0 10 Z" fill="#e7fff8" opacity="0.75" /></g>
<path d="M 24 30 Q 12 22 13 10" fill="none" stroke="#e7fff8" stroke-width="2.5" stroke-linecap="round" opacity="0.9" />
    </g>
  </g>
<g transform="translate(256,0)">
    <g transform="translate(64,0) scale(-1,1)">
      <ellipse cx="32" cy="55" rx="12" ry="4" fill="rgba(0,0,0,0.18)" />
      <ellipse cx="32" cy="52" rx="12" ry="3" fill="rgba(0,0,0,0.2)" opacity="0.45" />
<path d="M 40 26 C 48 31, 48 42, 40 50 C 35 43, 36 33, 40 26 Z" fill="#295f60" opacity="0.95" />
<path d="M 27.299999999999997 34.5 H 27.499999999999996 Q 30.499999999999996 34.5 30.499999999999996 37.5 V 42.5 Q 30.499999999999996 45.5 27.499999999999996 45.5 H 27.299999999999997 Q 24.299999999999997 45.5 24.299999999999997 42.5 V 37.5 Q 24.299999999999997 34.5 27.299999999999997 34.5 Z" fill="url(#elf-pants)" stroke="#17211f" stroke-width="1" />
<path d="M 26.799999999999997 36.5 H 27.999999999999996 Q 29.499999999999996 36.5 29.499999999999996 38 V 38 Q 29.499999999999996 39.5 27.999999999999996 39.5 H 26.799999999999997 Q 25.299999999999997 39.5 25.299999999999997 38 V 38 Q 25.299999999999997 36.5 26.799999999999997 36.5 Z" fill="#d9e08f" opacity="0.12" />
<path d="M 26.9 46 H 27.9 Q 29.9 46 29.9 48 V 48 Q 29.9 50 27.9 50 H 26.9 Q 24.9 50 24.9 48 V 48 Q 24.9 46 26.9 46 Z" fill="#1d2d2a" stroke="#17211f" stroke-width="1" />
<path d="M 37.5 36 H 37.7 Q 40.7 36 40.7 39 V 44 Q 40.7 47 37.7 47 H 37.5 Q 34.5 47 34.5 44 V 39 Q 34.5 36 37.5 36 Z" fill="url(#elf-pants)" stroke="#17211f" stroke-width="1" />
<path d="M 37 38 H 38.2 Q 39.7 38 39.7 39.5 V 39.5 Q 39.7 41 38.2 41 H 37 Q 35.5 41 35.5 39.5 V 39.5 Q 35.5 38 37 38 Z" fill="#d9e08f" opacity="0.12" />
<path d="M 37.1 46 H 38.1 Q 40.1 46 40.1 48 V 48 Q 40.1 50 38.1 50 H 37.1 Q 35.1 50 35.1 48 V 48 Q 35.1 46 37.1 46 Z" fill="#1d2d2a" stroke="#17211f" stroke-width="1" />
<path d="M 30 25 H 34 Q 40 25 40 31 V 36 Q 40 42 34 42 H 30 Q 24 42 24 36 V 31 Q 24 25 30 25 Z" fill="url(#elf-shirt)" stroke="#17211f" stroke-width="1.2" stroke-linejoin="round" />
<path d="M 28.5 29 H 35.5 Q 38 29 38 31.5 V 31.5 Q 38 34 35.5 34 H 28.5 Q 26 34 26 31.5 V 31.5 Q 26 29 28.5 29 Z" fill="#d9e08f" opacity="0.75" />
<ellipse cx="31" cy="12" rx="7.3" ry="7.7" fill="url(#elf-skin)" stroke="#17211f" stroke-width="1.2" />
<path d="M 23 8 Q 31 1 39 8 Q 38 16 31 17 Q 24 16 23 8 Z" fill="url(#elf-hair)" stroke="#17211f" stroke-width="1" />
<path d="M 23.6 10.8 Q 20.6 7.800000000000001 18.6 11.8 Q 21.6 13.8 23.6 10.8 Z" fill="#d9cfaf" stroke="rgba(0,0,0,0.18)" stroke-width="0.8" />
<path d="M 38.4 10.8 Q 41.4 7.800000000000001 43.4 11.8 Q 40.4 13.8 38.4 10.8 Z" fill="#d9cfaf" stroke="rgba(0,0,0,0.18)" stroke-width="0.8" />
<circle cx="28.4" cy="11.2" r="0.9" fill="#17131f" />
<circle cx="33.8" cy="11.2" r="0.9" fill="#17131f" />
<path d="M 29 14.6 Q 31 16.1 33 14.6" fill="none" stroke="#17211f" stroke-width="1" stroke-linecap="round" />
<path d="M 26 16 Q 31 19 36 16 L 35 19 Q 31 21 27 19 Z" fill="#d9e08f" opacity="0.08" />
<g transform="translate(22.2 26) rotate(-10)"><path d="M 0 0 H 0 Q 2.75 0 2.75 2.75 V 7.25 Q 2.75 10 0 10 H 0 Q -2.75 10 -2.75 7.25 V 2.75 Q -2.75 0 0 0 Z" fill="url(#elf-skin)" stroke="#17211f" stroke-width="1" />
<path d="M 0 2 H 0 Q 1.75 2 1.75 3.75 V 4.25 Q 1.75 6 0 6 H 0 Q -1.75 6 -1.75 4.25 V 3.75 Q -1.75 2 0 2 Z" fill="#7dd8c0" opacity="0.8" /></g>
<g transform="translate(42.2 26) rotate(12)"><path d="M 0 -2 H 0 Q 2.75 -2 2.75 0.75 V 5.25 Q 2.75 8 0 8 H 0 Q -2.75 8 -2.75 5.25 V 0.75 Q -2.75 -2 0 -2 Z" fill="url(#elf-skin)" stroke="#17211f" stroke-width="1" />
<path d="M 0 0 H 0 Q 1.75 0 1.75 1.75 V 2.25 Q 1.75 4 0 4 H 0 Q -1.75 4 -1.75 2.25 V 1.75 Q -1.75 0 0 0 Z" fill="#7dd8c0" opacity="0.8" /></g>
<g transform="translate(35.2 27) rotate(10)"><rect x="-1" y="-6" width="2" height="15" rx="1" fill="#8cc0bb" stroke="#17211f" stroke-width="0.8" />
<rect x="-1.5" y="-7" width="3" height="2" rx="1" fill="#d9e08f" stroke="#17211f" stroke-width="0.8" />
<path d="M -1 -4 L 1 -4 L 0 10 Z" fill="#e7fff8" opacity="0.75" /></g>
    </g>
  </g>
<g transform="translate(320,0)">
    <g transform="translate(64,0) scale(-1,1)">
      <ellipse cx="32" cy="55" rx="12" ry="4" fill="rgba(0,0,0,0.18)" />
      <ellipse cx="32" cy="52" rx="12" ry="3" fill="rgba(0,0,0,0.2)" opacity="0.45" />
<path d="M 40 26 C 48 31, 48 42, 40 50 C 35 43, 36 33, 40 26 Z" fill="#295f60" opacity="0.95" />
<path d="M 28.9 34.5 H 29.1 Q 32.1 34.5 32.1 37.5 V 42.5 Q 32.1 45.5 29.1 45.5 H 28.9 Q 25.9 45.5 25.9 42.5 V 37.5 Q 25.9 34.5 28.9 34.5 Z" fill="url(#elf-pants)" stroke="#17211f" stroke-width="1" />
<path d="M 28.4 36.5 H 29.599999999999998 Q 31.099999999999998 36.5 31.099999999999998 38 V 38 Q 31.099999999999998 39.5 29.599999999999998 39.5 H 28.4 Q 26.9 39.5 26.9 38 V 38 Q 26.9 36.5 28.4 36.5 Z" fill="#d9e08f" opacity="0.12" />
<path d="M 28.5 46 H 29.5 Q 31.5 46 31.5 48 V 48 Q 31.5 50 29.5 50 H 28.5 Q 26.5 50 26.5 48 V 48 Q 26.5 46 28.5 46 Z" fill="#1d2d2a" stroke="#17211f" stroke-width="1" />
<path d="M 35.9 36 H 36.1 Q 39.1 36 39.1 39 V 44 Q 39.1 47 36.1 47 H 35.9 Q 32.9 47 32.9 44 V 39 Q 32.9 36 35.9 36 Z" fill="url(#elf-pants)" stroke="#17211f" stroke-width="1" />
<path d="M 35.4 38 H 36.6 Q 38.1 38 38.1 39.5 V 39.5 Q 38.1 41 36.6 41 H 35.4 Q 33.9 41 33.9 39.5 V 39.5 Q 33.9 38 35.4 38 Z" fill="#d9e08f" opacity="0.12" />
<path d="M 35.5 46 H 36.5 Q 38.5 46 38.5 48 V 48 Q 38.5 50 36.5 50 H 35.5 Q 33.5 50 33.5 48 V 48 Q 33.5 46 35.5 46 Z" fill="#1d2d2a" stroke="#17211f" stroke-width="1" />
<path d="M 30 25 H 34 Q 40 25 40 31 V 36 Q 40 42 34 42 H 30 Q 24 42 24 36 V 31 Q 24 25 30 25 Z" fill="url(#elf-shirt)" stroke="#17211f" stroke-width="1.2" stroke-linejoin="round" />
<path d="M 28.5 29 H 35.5 Q 38 29 38 31.5 V 31.5 Q 38 34 35.5 34 H 28.5 Q 26 34 26 31.5 V 31.5 Q 26 29 28.5 29 Z" fill="#d9e08f" opacity="0.75" />
<ellipse cx="31" cy="12" rx="7.3" ry="7.7" fill="url(#elf-skin)" stroke="#17211f" stroke-width="1.2" />
<path d="M 23 8 Q 31 1 39 8 Q 38 16 31 17 Q 24 16 23 8 Z" fill="url(#elf-hair)" stroke="#17211f" stroke-width="1" />
<path d="M 23.6 10.8 Q 20.6 7.800000000000001 18.6 11.8 Q 21.6 13.8 23.6 10.8 Z" fill="#d9cfaf" stroke="rgba(0,0,0,0.18)" stroke-width="0.8" />
<path d="M 38.4 10.8 Q 41.4 7.800000000000001 43.4 11.8 Q 40.4 13.8 38.4 10.8 Z" fill="#d9cfaf" stroke="rgba(0,0,0,0.18)" stroke-width="0.8" />
<circle cx="28.4" cy="11.2" r="0.9" fill="#17131f" />
<circle cx="33.8" cy="11.2" r="0.9" fill="#17131f" />
<path d="M 29 14.6 Q 31 16.1 33 14.6" fill="none" stroke="#17211f" stroke-width="1" stroke-linecap="round" />
<path d="M 26 16 Q 31 19 36 16 L 35 19 Q 31 21 27 19 Z" fill="#d9e08f" opacity="0.08" />
<g transform="translate(23 26) rotate(-10)"><path d="M 0 0 H 0 Q 2.75 0 2.75 2.75 V 7.25 Q 2.75 10 0 10 H 0 Q -2.75 10 -2.75 7.25 V 2.75 Q -2.75 0 0 0 Z" fill="url(#elf-skin)" stroke="#17211f" stroke-width="1" />
<path d="M 0 2 H 0 Q 1.75 2 1.75 3.75 V 4.25 Q 1.75 6 0 6 H 0 Q -1.75 6 -1.75 4.25 V 3.75 Q -1.75 2 0 2 Z" fill="#7dd8c0" opacity="0.8" /></g>
<g transform="translate(41 26) rotate(12)"><path d="M 0 -2 H 0 Q 2.75 -2 2.75 0.75 V 5.25 Q 2.75 8 0 8 H 0 Q -2.75 8 -2.75 5.25 V 0.75 Q -2.75 -2 0 -2 Z" fill="url(#elf-skin)" stroke="#17211f" stroke-width="1" />
<path d="M 0 0 H 0 Q 1.75 0 1.75 1.75 V 2.25 Q 1.75 4 0 4 H 0 Q -1.75 4 -1.75 2.25 V 1.75 Q -1.75 0 0 0 Z" fill="#7dd8c0" opacity="0.8" /></g>
<g transform="translate(34 27) rotate(10)"><rect x="-1" y="-6" width="2" height="15" rx="1" fill="#8cc0bb" stroke="#17211f" stroke-width="0.8" />
<rect x="-1.5" y="-7" width="3" height="2" rx="1" fill="#d9e08f" stroke="#17211f" stroke-width="0.8" />
<path d="M -1 -4 L 1 -4 L 0 10 Z" fill="#e7fff8" opacity="0.75" /></g>
    </g>
  </g>
</svg>
