<?xml version="1.0" encoding="UTF-8"?>
<svg xmlns="http://www.w3.org/2000/svg" viewBox="0 0 256 64" width="256" height="64" shape-rendering="geometricPrecision">
  
    <defs>
      <linearGradient id="human-shirt" x1="0%" y1="0%" x2="100%" y2="100%">
        <stop offset="0%" stop-color="#d7d0a9" />
        <stop offset="100%" stop-color="#a89b74" />
      </linearGradient>
      <linearGradient id="human-skin" x1="0%" y1="0%" x2="100%" y2="100%">
        <stop offset="0%" stop-color="#efc796" />
        <stop offset="100%" stop-color="#ddb584" />
      </linearGradient>
      <linearGradient id="human-hair" x1="0%" y1="0%" x2="100%" y2="100%">
        <stop offset="0%" stop-color="#7d5332" />
        <stop offset="100%" stop-color="#563621" />
      </linearGradient>
      <linearGradient id="human-pants" x1="0%" y1="0%" x2="100%" y2="100%">
        <stop offset="0%" stop-color="#564538" />
        <stop offset="100%" stop-color="#463528" />
      </linearGradient>
      <linearGradient id="human-metal" x1="0%" y1="0%" x2="100%" y2="100%">
        <stop offset="0%" stop-color="#d7dee7" />
        <stop offset="100%" stop-color="#7d8793" />
      </linearGradient>
      <filter id="human-shadow" x="-50%" y="-50%" width="200%" height="200%">
        <feGaussianBlur stdDeviation="1.2" />
      </filter>
    </defs>
  
  <rect width="100%" height="100%" fill="transparent" />
  <g transform="translate(0,0)">
    <g transform="translate(64,0) scale(-1,1)">
      <ellipse cx="32" cy="55" rx="12" ry="4" fill="rgba(0,0,0,0.18)" />
      <ellipse cx="32" cy="52" rx="12" ry="3" fill="rgba(0,0,0,0.2)" opacity="0.45" />
<path d="M 40 26 C 48 31, 48 42, 40 50 C 35 43, 36 33, 40 26 Z" fill="#42566f" opacity="0.95" />
<path d="M 28.9 34.5 H 29.1 Q 32.1 34.5 32.1 37.5 V 42.5 Q 32.1 45.5 29.1 45.5 H 28.9 Q 25.9 45.5 25.9 42.5 V 37.5 Q 25.9 34.5 28.9 34.5 Z" fill="url(#human-pants)" stroke="#1f1a25" stroke-width="1" />
<path d="M 28.4 36.5 H 29.599999999999998 Q 31.099999999999998 36.5 31.099999999999998 38 V 38 Q 31.099999999999998 39.5 29.599999999999998 39.5 H 28.4 Q 26.9 39.5 26.9 38 V 38 Q 26.9 36.5 28.4 36.5 Z" fill="#caa14e" opacity="0.12" />
<path d="M 28.5 46 H 29.5 Q 31.5 46 31.5 48 V 48 Q 31.5 50 29.5 50 H 28.5 Q 26.5 50 26.5 48 V 48 Q 26.5 46 28.5 46 Z" fill="#2f241d" stroke="#1f1a25" stroke-width="1" />
<path d="M 35.9 36 H 36.1 Q 39.1 36 39.1 39 V 44 Q 39.1 47 36.1 47 H 35.9 Q 32.9 47 32.9 44 V 39 Q 32.9 36 35.9 36 Z" fill="url(#human-pants)" stroke="#1f1a25" stroke-width="1" />
<path d="M 35.4 38 H 36.6 Q 38.1 38 38.1 39.5 V 39.5 Q 38.1 41 36.6 41 H 35.4 Q 33.9 41 33.9 39.5 V 39.5 Q 33.9 38 35.4 38 Z" fill="#caa14e" opacity="0.12" />
<path d="M 35.5 46 H 36.5 Q 38.5 46 38.5 48 V 48 Q 38.5 50 36.5 50 H 35.5 Q 33.5 50 33.5 48 V 48 Q 33.5 46 35.5 46 Z" fill="#2f241d" stroke="#1f1a25" stroke-width="1" />
<path d="M 30 25 H 34 Q 40 25 40 31 V 36 Q 40 42 34 42 H 30 Q 24 42 24 36 V 31 Q 24 25 30 25 Z" fill="url(#human-shirt)" stroke="#1f1a25" stroke-width="1.2" stroke-linejoin="round" />
<path d="M 28.5 29 H 35.5 Q 38 29 38 31.5 V 31.5 Q 38 34 35.5 34 H 28.5 Q 26 34 26 31.5 V 31.5 Q 26 29 28.5 29 Z" fill="#caa14e" opacity="0.75" />
<ellipse cx="31" cy="12" rx="7.3" ry="7.7" fill="url(#human-skin)" stroke="#1f1a25" stroke-width="1.2" />
<path d="M 24 9 Q 31 2 38 9 Q 37 15 31 16 Q 25 15 24 9 Z" fill="url(#human-hair)" stroke="#1f1a25" stroke-width="1" />
<circle cx="28.4" cy="11.2" r="0.9" fill="#17131f" />
<circle cx="33.8" cy="11.2" r="0.9" fill="#17131f" />
<path d="M 29 14.6 Q 31 16.1 33 14.6" fill="none" stroke="#1f1a25" stroke-width="1" stroke-linecap="round" />
<path d="M 26 16 Q 31 19 36 16 L 35 19 Q 31 21 27 19 Z" fill="#caa14e" opacity="0.08" />
<g transform="translate(23 26) rotate(-10)"><path d="M 0 0 H 0 Q 2.75 0 2.75 2.75 V 7.25 Q 2.75 10 0 10 H 0 Q -2.75 10 -2.75 7.25 V 2.75 Q -2.75 0 0 0 Z" fill="url(#human-skin)" stroke="#1f1a25" stroke-width="1" />
<path d="M 0 2 H 0 Q 1.75 2 1.75 3.75 V 4.25 Q 1.75 6 0 6 H 0 Q -1.75 6 -1.75 4.25 V 3.75 Q -1.75 2 0 2 Z" fill="#d7d0a9" opacity="0.8" /></g>
<g transform="translate(41 26) rotate(12)"><path d="M 0 -2 H 0 Q 2.75 -2 2.75 0.75 V 5.25 Q 2.75 8 0 8 H 0 Q -2.75 8 -2.75 5.25 V 0.75 Q -2.75 -2 0 -2 Z" fill="url(#human-skin)" stroke="#1f1a25" stroke-width="1" />
<path d="M 0 0 H 0 Q 1.75 0 1.75 1.75 V 2.25 Q 1.75 4 0 4 H 0 Q -1.75 4 -1.75 2.25 V 1.75 Q -1.75 0 0 0 Z" fill="#d7d0a9" opacity="0.8" /></g>
<g transform="translate(34 27) rotate(10)"><rect x="-1" y="-6" width="2" height="15" rx="1" fill="#7d8793" stroke="#1f1a25" stroke-width="0.8" />
<rect x="-1.5" y="-7" width="3" height="2" rx="1" fill="#caa14e" stroke="#1f1a25" stroke-width="0.8" />
<path d="M -1 -4 L 1 -4 L 0 10 Z" fill="#d7dee7" opacity="0.75" /></g>
    </g>
  </g>
<g transform="translate(64,0)">
    <g transform="translate(64,0) scale(-1,1)">
      <ellipse cx="32" cy="55" rx="12" ry="4" fill="rgba(0,0,0,0.18)" />
      <ellipse cx="32" cy="53" rx="12" ry="3" fill="rgba(0,0,0,0.2)" opacity="0.45" />
<path d="M 38.8 26 C 46.8 31, 46.8 42, 38.8 50 C 33.8 43, 34.8 33, 38.8 26 Z" fill="#42566f" opacity="0.95" />
<path d="M 28.9 35.5 H 29.1 Q 32.1 35.5 32.1 38.5 V 43.5 Q 32.1 46.5 29.1 46.5 H 28.9 Q 25.9 46.5 25.9 43.5 V 38.5 Q 25.9 35.5 28.9 35.5 Z" fill="url(#human-pants)" stroke="#1f1a25" stroke-width="1" />
<path d="M 28.4 37.5 H 29.599999999999998 Q 31.099999999999998 37.5 31.099999999999998 39 V 39 Q 31.099999999999998 40.5 29.599999999999998 40.5 H 28.4 Q 26.9 40.5 26.9 39 V 39 Q 26.9 37.5 28.4 37.5 Z" fill="#caa14e" opacity="0.12" />
<path d="M 28.5 47 H 29.5 Q 31.5 47 31.5 49 V 49 Q 31.5 51 29.5 51 H 28.5 Q 26.5 51 26.5 49 V 49 Q 26.5 47 28.5 47 Z" fill="#2f241d" stroke="#1f1a25" stroke-width="1" />
<path d="M 35.9 37 H 36.1 Q 39.1 37 39.1 40 V 45 Q 39.1 48 36.1 48 H 35.9 Q 32.9 48 32.9 45 V 40 Q 32.9 37 35.9 37 Z" fill="url(#human-pants)" stroke="#1f1a25" stroke-width="1" />
<path d="M 35.4 39 H 36.6 Q 38.1 39 38.1 40.5 V 40.5 Q 38.1 42 36.6 42 H 35.4 Q 33.9 42 33.9 40.5 V 40.5 Q 33.9 39 35.4 39 Z" fill="#caa14e" opacity="0.12" />
<path d="M 35.5 47 H 36.5 Q 38.5 47 38.5 49 V 49 Q 38.5 51 36.5 51 H 35.5 Q 33.5 51 33.5 49 V 49 Q 33.5 47 35.5 47 Z" fill="#2f241d" stroke="#1f1a25" stroke-width="1" />
<path d="M 30 26 H 34 Q 40 26 40 32 V 37 Q 40 43 34 43 H 30 Q 24 43 24 37 V 32 Q 24 26 30 26 Z" fill="url(#human-shirt)" stroke="#1f1a25" stroke-width="1.2" stroke-linejoin="round" />
<path d="M 28.5 30 H 35.5 Q 38 30 38 32.5 V 32.5 Q 38 35 35.5 35 H 28.5 Q 26 35 26 32.5 V 32.5 Q 26 30 28.5 30 Z" fill="#caa14e" opacity="0.75" />
<ellipse cx="31" cy="13" rx="7.3" ry="7.7" fill="url(#human-skin)" stroke="#1f1a25" stroke-width="1.2" />
<path d="M 24 10 Q 31 3 38 10 Q 37 16 31 17 Q 25 16 24 10 Z" fill="url(#human-hair)" stroke="#1f1a25" stroke-width="1" />
<circle cx="28.4" cy="12.2" r="0.9" fill="#17131f" />
<circle cx="33.8" cy="12.2" r="0.9" fill="#17131f" />
<path d="M 29 15.6 Q 31 17.1 33 15.6" fill="none" stroke="#1f1a25" stroke-width="1" stroke-linecap="round" />
<path d="M 26 17 Q 31 20 36 17 L 35 20 Q 31 22 27 20 Z" fill="#caa14e" opacity="0.08" />
<g transform="translate(23 27) rotate(-10)"><path d="M 0 0 H 0 Q 2.75 0 2.75 2.75 V 7.25 Q 2.75 10 0 10 H 0 Q -2.75 10 -2.75 7.25 V 2.75 Q -2.75 0 0 0 Z" fill="url(#human-skin)" stroke="#1f1a25" stroke-width="1" />
<path d="M 0 2 H 0 Q 1.75 2 1.75 3.75 V 4.25 Q 1.75 6 0 6 H 0 Q -1.75 6 -1.75 4.25 V 3.75 Q -1.75 2 0 2 Z" fill="#d7d0a9" opacity="0.8" /></g>
<g transform="translate(41 27) rotate(12)"><path d="M 0 -2 H 0 Q 2.75 -2 2.75 0.75 V 5.25 Q 2.75 8 0 8 H 0 Q -2.75 8 -2.75 5.25 V 0.75 Q -2.75 -2 0 -2 Z" fill="url(#human-skin)" stroke="#1f1a25" stroke-width="1" />
<path d="M 0 0 H 0 Q 1.75 0 1.75 1.75 V 2.25 Q 1.75 4 0 4 H 0 Q -1.75 4 -1.75 2.25 V 1.75 Q -1.75 0 0 0 Z" fill="#d7d0a9" opacity="0.8" /></g>
<g transform="translate(34 28.2) rotate(10)"><rect x="-1" y="-6" width="2" height="15" rx="1" fill="#7d8793" stroke="#1f1a25" stroke-width="0.8" />
<rect x="-1.5" y="-7" width="3" height="2" rx="1" fill="#caa14e" stroke="#1f1a25" stroke-width="0.8" />
<path d="M -1 -4 L 1 -4 L 0 10 Z" fill="#d7dee7" opacity="0.75" /></g>
    </g>
  </g>
<g transform="translate(128,0)">
    <g transform="translate(64,0) scale(-1,1)">
      <ellipse cx="32" cy="55" rx="12" ry="4" fill="rgba(0,0,0,0.18)" />
      <ellipse cx="32" cy="52" rx="12" ry="3" fill="rgba(0,0,0,0.2)" opacity="0.45" />
<path d="M 41.2 26 C 49.2 31, 49.2 42, 41.2 50 C 36.2 43, 37.2 33, 41.2 26 Z" fill="#42566f" opacity="0.95" />
<path d="M 28.9 34.5 H 29.1 Q 32.1 34.5 32.1 37.5 V 42.5 Q 32.1 45.5 29.1 45.5 H 28.9 Q 25.9 45.5 25.9 42.5 V 37.5 Q 25.9 34.5 28.9 34.5 Z" fill="url(#human-pants)" stroke="#1f1a25" stroke-width="1" />
<path d="M 28.4 36.5 H 29.599999999999998 Q 31.099999999999998 36.5 31.099999999999998 38 V 38 Q 31.099999999999998 39.5 29.599999999999998 39.5 H 28.4 Q 26.9 39.5 26.9 38 V 38 Q 26.9 36.5 28.4 36.5 Z" fill="#caa14e" opacity="0.12" />
<path d="M 28.5 46 H 29.5 Q 31.5 46 31.5 48 V 48 Q 31.5 50 29.5 50 H 28.5 Q 26.5 50 26.5 48 V 48 Q 26.5 46 28.5 46 Z" fill="#2f241d" stroke="#1f1a25" stroke-width="1" />
<path d="M 35.9 36 H 36.1 Q 39.1 36 39.1 39 V 44 Q 39.1 47 36.1 47 H 35.9 Q 32.9 47 32.9 44 V 39 Q 32.9 36 35.9 36 Z" fill="url(#human-pants)" stroke="#1f1a25" stroke-width="1" />
<path d="M 35.4 38 H 36.6 Q 38.1 38 38.1 39.5 V 39.5 Q 38.1 41 36.6 41 H 35.4 Q 33.9 41 33.9 39.5 V 39.5 Q 33.9 38 35.4 38 Z" fill="#caa14e" opacity="0.12" />
<path d="M 35.5 46 H 36.5 Q 38.5 46 38.5 48 V 48 Q 38.5 50 36.5 50 H 35.5 Q 33.5 50 33.5 48 V 48 Q 33.5 46 35.5 46 Z" fill="#2f241d" stroke="#1f1a25" stroke-width="1" />
<path d="M 30 25 H 34 Q 40 25 40 31 V 36 Q 40 42 34 42 H 30 Q 24 42 24 36 V 31 Q 24 25 30 25 Z" fill="url(#human-shirt)" stroke="#1f1a25" stroke-width="1.2" stroke-linejoin="round" />
<path d="M 28.5 29 H 35.5 Q 38 29 38 31.5 V 31.5 Q 38 34 35.5 34 H 28.5 Q 26 34 26 31.5 V 31.5 Q 26 29 28.5 29 Z" fill="#caa14e" opacity="0.75" />
<ellipse cx="31" cy="12" rx="7.3" ry="7.7" fill="url(#human-skin)" stroke="#1f1a25" stroke-width="1.2" />
<path d="M 24 9 Q 31 2 38 9 Q 37 15 31 16 Q 25 15 24 9 Z" fill="url(#human-hair)" stroke="#1f1a25" stroke-width="1" />
<circle cx="28.4" cy="11.2" r="0.9" fill="#17131f" />
<circle cx="33.8" cy="11.2" r="0.9" fill="#17131f" />
<path d="M 29 14.6 Q 31 16.1 33 14.6" fill="none" stroke="#1f1a25" stroke-width="1" stroke-linecap="round" />
<path d="M 26 16 Q 31 19 36 16 L 35 19 Q 31 21 27 19 Z" fill="#caa14e" opacity="0.08" />
<g transform="translate(23 26) rotate(-10)"><path d="M 0 0 H 0 Q 2.75 0 2.75 2.75 V 7.25 Q 2.75 10 0 10 H 0 Q -2.75 10 -2.75 7.25 V 2.75 Q -2.75 0 0 0 Z" fill="url(#human-skin)" stroke="#1f1a25" stroke-width="1" />
<path d="M 0 2 H 0 Q 1.75 2 1.75 3.75 V 4.25 Q 1.75 6 0 6 H 0 Q -1.75 6 -1.75 4.25 V 3.75 Q -1.75 2 0 2 Z" fill="#d7d0a9" opacity="0.8" /></g>
<g transform="translate(41 26) rotate(12)"><path d="M 0 -2 H 0 Q 2.75 -2 2.75 0.75 V 5.25 Q 2.75 8 0 8 H 0 Q -2.75 8 -2.75 5.25 V 0.75 Q -2.75 -2 0 -2 Z" fill="url(#human-skin)" stroke="#1f1a25" stroke-width="1" />
<path d="M 0 0 H 0 Q 1.75 0 1.75 1.75 V 2.25 Q 1.75 4 0 4 H 0 Q -1.75 4 -1.75 2.25 V 1.75 Q -1.75 0 0 0 Z" fill="#d7d0a9" opacity="0.8" /></g>
<g transform="translate(34 27) rotate(10)"><rect x="-1" y="-6" width="2" height="15" rx="1" fill="#7d8793" stroke="#1f1a25" stroke-width="0.8" />
<rect x="-1.5" y="-7" width="3" height="2" rx="1" fill="#caa14e" stroke="#1f1a25" stroke-width="0.8" />
<path d="M -1 -4 L 1 -4 L 0 10 Z" fill="#d7dee7" opacity="0.75" /></g>
    </g>
  </g>
<g transform="translate(192,0)">
    <g transform="translate(64,0) scale(-1,1)">
      <ellipse cx="32" cy="55" rx="12" ry="4" fill="rgba(0,0,0,0.18)" />
      <ellipse cx="32" cy="51" rx="12" ry="3" fill="rgba(0,0,0,0.2)" opacity="0.45" />
<path d="M 40 26 C 48 31, 48 42, 40 50 C 35 43, 36 33, 40 26 Z" fill="#42566f" opacity="0.95" />
<path d="M 28.9 33.5 H 29.1 Q 32.1 33.5 32.1 36.5 V 41.5 Q 32.1 44.5 29.1 44.5 H 28.9 Q 25.9 44.5 25.9 41.5 V 36.5 Q 25.9 33.5 28.9 33.5 Z" fill="url(#human-pants)" stroke="#1f1a25" stroke-width="1" />
<path d="M 28.4 35.5 H 29.599999999999998 Q 31.099999999999998 35.5 31.099999999999998 37 V 37 Q 31.099999999999998 38.5 29.599999999999998 38.5 H 28.4 Q 26.9 38.5 26.9 37 V 37 Q 26.9 35.5 28.4 35.5 Z" fill="#caa14e" opacity="0.12" />
<path d="M 28.5 45 H 29.5 Q 31.5 45 31.5 47 V 47 Q 31.5 49 29.5 49 H 28.5 Q 26.5 49 26.5 47 V 47 Q 26.5 45 28.5 45 Z" fill="#2f241d" stroke="#1f1a25" stroke-width="1" />
<path d="M 35.9 35 H 36.1 Q 39.1 35 39.1 38 V 43 Q 39.1 46 36.1 46 H 35.9 Q 32.9 46 32.9 43 V 38 Q 32.9 35 35.9 35 Z" fill="url(#human-pants)" stroke="#1f1a25" stroke-width="1" />
<path d="M 35.4 37 H 36.6 Q 38.1 37 38.1 38.5 V 38.5 Q 38.1 40 36.6 40 H 35.4 Q 33.9 40 33.9 38.5 V 38.5 Q 33.9 37 35.4 37 Z" fill="#caa14e" opacity="0.12" />
<path d="M 35.5 45 H 36.5 Q 38.5 45 38.5 47 V 47 Q 38.5 49 36.5 49 H 35.5 Q 33.5 49 33.5 47 V 47 Q 33.5 45 35.5 45 Z" fill="#2f241d" stroke="#1f1a25" stroke-width="1" />
<path d="M 30 24 H 34 Q 40 24 40 30 V 35 Q 40 41 34 41 H 30 Q 24 41 24 35 V 30 Q 24 24 30 24 Z" fill="url(#human-shirt)" stroke="#1f1a25" stroke-width="1.2" stroke-linejoin="round" />
<path d="M 28.5 28 H 35.5 Q 38 28 38 30.5 V 30.5 Q 38 33 35.5 33 H 28.5 Q 26 33 26 30.5 V 30.5 Q 26 28 28.5 28 Z" fill="#caa14e" opacity="0.75" />
<ellipse cx="31" cy="11" rx="7.3" ry="7.7" fill="url(#human-skin)" stroke="#1f1a25" stroke-width="1.2" />
<path d="M 24 8 Q 31 1 38 8 Q 37 14 31 15 Q 25 14 24 8 Z" fill="url(#human-hair)" stroke="#1f1a25" stroke-width="1" />
<circle cx="28.4" cy="10.2" r="0.9" fill="#17131f" />
<circle cx="33.8" cy="10.2" r="0.9" fill="#17131f" />
<path d="M 29 13.6 Q 31 15.1 33 13.6" fill="none" stroke="#1f1a25" stroke-width="1" stroke-linecap="round" />
<path d="M 26 15 Q 31 18 36 15 L 35 18 Q 31 20 27 18 Z" fill="#caa14e" opacity="0.08" />
<g transform="translate(23 25) rotate(-10)"><path d="M 0 0 H 0 Q 2.75 0 2.75 2.75 V 7.25 Q 2.75 10 0 10 H 0 Q -2.75 10 -2.75 7.25 V 2.75 Q -2.75 0 0 0 Z" fill="url(#human-skin)" stroke="#1f1a25" stroke-width="1" />
<path d="M 0 2 H 0 Q 1.75 2 1.75 3.75 V 4.25 Q 1.75 6 0 6 H 0 Q -1.75 6 -1.75 4.25 V 3.75 Q -1.75 2 0 2 Z" fill="#d7d0a9" opacity="0.8" /></g>
<g transform="translate(41 25) rotate(12)"><path d="M 0 -2 H 0 Q 2.75 -2 2.75 0.75 V 5.25 Q 2.75 8 0 8 H 0 Q -2.75 8 -2.75 5.25 V 0.75 Q -2.75 -2 0 -2 Z" fill="url(#human-skin)" stroke="#1f1a25" stroke-width="1" />
<path d="M 0 0 H 0 Q 1.75 0 1.75 1.75 V 2.25 Q 1.75 4 0 4 H 0 Q -1.75 4 -1.75 2.25 V 1.75 Q -1.75 0 0 0 Z" fill="#d7d0a9" opacity="0.8" /></g>
<g transform="translate(34 25.8) rotate(10)"><rect x="-1" y="-6" width="2" height="15" rx="1" fill="#7d8793" stroke="#1f1a25" stroke-width="0.8" />
<rect x="-1.5" y="-7" width="3" height="2" rx="1" fill="#caa14e" stroke="#1f1a25" stroke-width="0.8" />
<path d="M -1 -4 L 1 -4 L 0 10 Z" fill="#d7dee7" opacity="0.75" /></g>
    </g>
  </g>
</svg>
