<?xml version="1.0" encoding="UTF-8"?>
<svg xmlns="http://www.w3.org/2000/svg" viewBox="0 0 384 64" width="384" height="64" shape-rendering="geometricPrecision">
  
    <defs>
      <linearGradient id="shade-shirt" x1="0%" y1="0%" x2="100%" y2="100%">
        <stop offset="0%" stop-color="#7d5ad0" />
        <stop offset="100%" stop-color="#52398f" />
      </linearGradient>
      <linearGradient id="shade-skin" x1="0%" y1="0%" x2="100%" y2="100%">
        <stop offset="0%" stop-color="#c9a2ff" />
        <stop offset="100%" stop-color="#b790ed" />
      </linearGradient>
      <linearGradient id="shade-hair" x1="0%" y1="0%" x2="100%" y2="100%">
        <stop offset="0%" stop-color="#3a285c" />
        <stop offset="100%" stop-color="#24163b" />
      </linearGradient>
      <linearGradient id="shade-pants" x1="0%" y1="0%" x2="100%" y2="100%">
        <stop offset="0%" stop-color="#241d3d" />
        <stop offset="100%" stop-color="#140d2d" />
      </linearGradient>
      <linearGradient id="shade-metal" x1="0%" y1="0%" x2="100%" y2="100%">
        <stop offset="0%" stop-color="#d6caff" />
        <stop offset="100%" stop-color="#8b7bd7" />
      </linearGradient>
      <filter id="shade-shadow" x="-50%" y="-50%" width="200%" height="200%">
        <feGaussianBlur stdDeviation="1.2" />
      </filter>
    </defs>
  
  <rect width="100%" height="100%" fill="transparent" />
  <g transform="translate(0,0)">
    <g>
      <ellipse cx="32" cy="55" rx="12" ry="4" fill="rgba(0,0,0,0.18)" />
      <ellipse cx="32" cy="52" rx="12" ry="3" fill="rgba(0,0,0,0.2)" opacity="0.45" />
<path d="M 24 26 C 16 31, 16 42, 24 50 C 29 43, 28 33, 24 26 Z" fill="#16142a" opacity="0.95" />
<path d="M 28.9 34.5 H 29.1 Q 32.1 34.5 32.1 37.5 V 42.5 Q 32.1 45.5 29.1 45.5 H 28.9 Q 25.9 45.5 25.9 42.5 V 37.5 Q 25.9 34.5 28.9 34.5 Z" fill="url(#shade-pants)" stroke="#0e0d16" stroke-width="1" />
<path d="M 28.4 36.5 H 29.599999999999998 Q 31.099999999999998 36.5 31.099999999999998 38 V 38 Q 31.099999999999998 39.5 29.599999999999998 39.5 H 28.4 Q 26.9 39.5 26.9 38 V 38 Q 26.9 36.5 28.4 36.5 Z" fill="#8fe4d3" opacity="0.12" />
<path d="M 28.5 46 H 29.5 Q 31.5 46 31.5 48 V 48 Q 31.5 50 29.5 50 H 28.5 Q 26.5 50 26.5 48 V 48 Q 26.5 46 28.5 46 Z" fill="#17131f" stroke="#0e0d16" stroke-width="1" />
<path d="M 35.9 36 H 36.1 Q 39.1 36 39.1 39 V 44 Q 39.1 47 36.1 47 H 35.9 Q 32.9 47 32.9 44 V 39 Q 32.9 36 35.9 36 Z" fill="url(#shade-pants)" stroke="#0e0d16" stroke-width="1" />
<path d="M 35.4 38 H 36.6 Q 38.1 38 38.1 39.5 V 39.5 Q 38.1 41 36.6 41 H 35.4 Q 33.9 41 33.9 39.5 V 39.5 Q 33.9 38 35.4 38 Z" fill="#8fe4d3" opacity="0.12" />
<path d="M 35.5 46 H 36.5 Q 38.5 46 38.5 48 V 48 Q 38.5 50 36.5 50 H 35.5 Q 33.5 50 33.5 48 V 48 Q 33.5 46 35.5 46 Z" fill="#17131f" stroke="#0e0d16" stroke-width="1" />
<path d="M 30 25 H 34 Q 40 25 40 31 V 36 Q 40 42 34 42 H 30 Q 24 42 24 36 V 31 Q 24 25 30 25 Z" fill="url(#shade-shirt)" stroke="#0e0d16" stroke-width="1.2" stroke-linejoin="round" />
<path d="M 28.5 29 H 35.5 Q 38 29 38 31.5 V 31.5 Q 38 34 35.5 34 H 28.5 Q 26 34 26 31.5 V 31.5 Q 26 29 28.5 29 Z" fill="#8fe4d3" opacity="0.75" />
<ellipse cx="33" cy="12" rx="7.3" ry="7.7" fill="url(#shade-skin)" stroke="#0e0d16" stroke-width="1.2" />
<path d="M 24 8 Q 33 0 42 8 Q 43 18 39 22 Q 33 19 27 22 Q 23 18 24 8 Z" fill="#16142a" stroke="#0e0d16" stroke-width="1" />
<circle cx="30.4" cy="11.2" r="0.9" fill="#17131f" />
<circle cx="35.8" cy="11.2" r="0.9" fill="#17131f" />
<path d="M 31.5 14.6 Q 33 15.2 34.5 14.6" fill="none" stroke="#0e0d16" stroke-width="1" stroke-linecap="round" />
<path d="M 28 16 Q 33 19 38 16 L 37 19 Q 33 21 29 19 Z" fill="#8fe4d3" opacity="0.08" />
<g transform="translate(23 26) rotate(10)"><path d="M 0 0 H 0 Q 2.75 0 2.75 2.75 V 7.25 Q 2.75 10 0 10 H 0 Q -2.75 10 -2.75 7.25 V 2.75 Q -2.75 0 0 0 Z" fill="url(#shade-skin)" stroke="#0e0d16" stroke-width="1" />
<path d="M 0 2 H 0 Q 1.75 2 1.75 3.75 V 4.25 Q 1.75 6 0 6 H 0 Q -1.75 6 -1.75 4.25 V 3.75 Q -1.75 2 0 2 Z" fill="#7d5ad0" opacity="0.8" /></g>
<g transform="translate(41 26) rotate(-12)"><path d="M 0 -2 H 0 Q 2.75 -2 2.75 0.75 V 5.25 Q 2.75 8 0 8 H 0 Q -2.75 8 -2.75 5.25 V 0.75 Q -2.75 -2 0 -2 Z" fill="url(#shade-skin)" stroke="#0e0d16" stroke-width="1" />
<path d="M 0 0 H 0 Q 1.75 0 1.75 1.75 V 2.25 Q 1.75 4 0 4 H 0 Q -1.75 4 -1.75 2.25 V 1.75 Q -1.75 0 0 0 Z" fill="#7d5ad0" opacity="0.8" /></g>
<g transform="translate(48 27) rotate(-18)"><rect x="-1" y="-3" width="2" height="10" rx="1" fill="#8b7bd7" stroke="#0e0d16" stroke-width="0.8" />
<rect x="-5" y="-1" width="7" height="2" rx="1" fill="#8fe4d3" stroke="#0e0d16" stroke-width="0.8" /></g>
    </g>
  </g>
<g transform="translate(64,0)">
    <g>
      <ellipse cx="32" cy="55" rx="12" ry="4" fill="rgba(0,0,0,0.18)" />
      <ellipse cx="32" cy="52" rx="12" ry="3" fill="rgba(0,0,0,0.2)" opacity="0.45" />
<path d="M 24 26 C 16 31, 16 42, 24 50 C 29 43, 28 33, 24 26 Z" fill="#16142a" opacity="0.95" />
<path d="M 27.299999999999997 34.5 H 27.499999999999996 Q 30.499999999999996 34.5 30.499999999999996 37.5 V 42.5 Q 30.499999999999996 45.5 27.499999999999996 45.5 H 27.299999999999997 Q 24.299999999999997 45.5 24.299999999999997 42.5 V 37.5 Q 24.299999999999997 34.5 27.299999999999997 34.5 Z" fill="url(#shade-pants)" stroke="#0e0d16" stroke-width="1" />
<path d="M 26.799999999999997 36.5 H 27.999999999999996 Q 29.499999999999996 36.5 29.499999999999996 38 V 38 Q 29.499999999999996 39.5 27.999999999999996 39.5 H 26.799999999999997 Q 25.299999999999997 39.5 25.299999999999997 38 V 38 Q 25.299999999999997 36.5 26.799999999999997 36.5 Z" fill="#8fe4d3" opacity="0.12" />
<path d="M 26.9 46 H 27.9 Q 29.9 46 29.9 48 V 48 Q 29.9 50 27.9 50 H 26.9 Q 24.9 50 24.9 48 V 48 Q 24.9 46 26.9 46 Z" fill="#17131f" stroke="#0e0d16" stroke-width="1" />
<path d="M 37.5 36 H 37.7 Q 40.7 36 40.7 39 V 44 Q 40.7 47 37.7 47 H 37.5 Q 34.5 47 34.5 44 V 39 Q 34.5 36 37.5 36 Z" fill="url(#shade-pants)" stroke="#0e0d16" stroke-width="1" />
<path d="M 37 38 H 38.2 Q 39.7 38 39.7 39.5 V 39.5 Q 39.7 41 38.2 41 H 37 Q 35.5 41 35.5 39.5 V 39.5 Q 35.5 38 37 38 Z" fill="#8fe4d3" opacity="0.12" />
<path d="M 37.1 46 H 38.1 Q 40.1 46 40.1 48 V 48 Q 40.1 50 38.1 50 H 37.1 Q 35.1 50 35.1 48 V 48 Q 35.1 46 37.1 46 Z" fill="#17131f" stroke="#0e0d16" stroke-width="1" />
<path d="M 30 25 H 34 Q 40 25 40 31 V 36 Q 40 42 34 42 H 30 Q 24 42 24 36 V 31 Q 24 25 30 25 Z" fill="url(#shade-shirt)" stroke="#0e0d16" stroke-width="1.2" stroke-linejoin="round" />
<path d="M 28.5 29 H 35.5 Q 38 29 38 31.5 V 31.5 Q 38 34 35.5 34 H 28.5 Q 26 34 26 31.5 V 31.5 Q 26 29 28.5 29 Z" fill="#8fe4d3" opacity="0.75" />
<ellipse cx="33" cy="12" rx="7.3" ry="7.7" fill="url(#shade-skin)" stroke="#0e0d16" stroke-width="1.2" />
<path d="M 24 8 Q 33 0 42 8 Q 43 18 39 22 Q 33 19 27 22 Q 23 18 24 8 Z" fill="#16142a" stroke="#0e0d16" stroke-width="1" />
<circle cx="30.4" cy="11.2" r="0.9" fill="#17131f" />
<circle cx="35.8" cy="11.2" r="0.9" fill="#17131f" />
<path d="M 31.5 14.6 Q 33 15.2 34.5 14.6" fill="none" stroke="#0e0d16" stroke-width="1" stroke-linecap="round" />
<path d="M 28 16 Q 33 19 38 16 L 37 19 Q 33 21 29 19 Z" fill="#8fe4d3" opacity="0.08" />
<g transform="translate(23.8 26) rotate(10)"><path d="M 0 0 H 0 Q 2.75 0 2.75 2.75 V 7.25 Q 2.75 10 0 10 H 0 Q -2.75 10 -2.75 7.25 V 2.75 Q -2.75 0 0 0 Z" fill="url(#shade-skin)" stroke="#0e0d16" stroke-width="1" />
<path d="M 0 2 H 0 Q 1.75 2 1.75 3.75 V 4.25 Q 1.75 6 0 6 H 0 Q -1.75 6 -1.75 4.25 V 3.75 Q -1.75 2 0 2 Z" fill="#7d5ad0" opacity="0.8" /></g>
<g transform="translate(39.8 26) rotate(-12)"><path d="M 0 -2 H 0 Q 2.75 -2 2.75 0.75 V 5.25 Q 2.75 8 0 8 H 0 Q -2.75 8 -2.75 5.25 V 0.75 Q -2.75 -2 0 -2 Z" fill="url(#shade-skin)" stroke="#0e0d16" stroke-width="1" />
<path d="M 0 0 H 0 Q 1.75 0 1.75 1.75 V 2.25 Q 1.75 4 0 4 H 0 Q -1.75 4 -1.75 2.25 V 1.75 Q -1.75 0 0 0 Z" fill="#7d5ad0" opacity="0.8" /></g>
<g transform="translate(46.8 27) rotate(-18)"><rect x="-1" y="-3" width="2" height="10" rx="1" fill="#8b7bd7" stroke="#0e0d16" stroke-width="0.8" />
<rect x="-5" y="-1" width="7" height="2" rx="1" fill="#8fe4d3" stroke="#0e0d16" stroke-width="0.8" /></g>
    </g>
  </g>
<g transform="translate(128,0)">
    <g>
      <ellipse cx="32" cy="55" rx="12" ry="4" fill="rgba(0,0,0,0.18)" />
      <ellipse cx="32" cy="51" rx="12" ry="3" fill="rgba(0,0,0,0.2)" opacity="0.45" />
<path d="M 24 26 C 16 31, 16 42, 24 50 C 29 43, 28 33, 24 26 Z" fill="#16142a" opacity="0.95" />
<path d="M 27.299999999999997 33.5 H 27.499999999999996 Q 30.499999999999996 33.5 30.499999999999996 36.5 V 41.5 Q 30.499999999999996 44.5 27.499999999999996 44.5 H 27.299999999999997 Q 24.299999999999997 44.5 24.299999999999997 41.5 V 36.5 Q 24.299999999999997 33.5 27.299999999999997 33.5 Z" fill="url(#shade-pants)" stroke="#0e0d16" stroke-width="1" />
<path d="M 26.799999999999997 35.5 H 27.999999999999996 Q 29.499999999999996 35.5 29.499999999999996 37 V 37 Q 29.499999999999996 38.5 27.999999999999996 38.5 H 26.799999999999997 Q 25.299999999999997 38.5 25.299999999999997 37 V 37 Q 25.299999999999997 35.5 26.799999999999997 35.5 Z" fill="#8fe4d3" opacity="0.12" />
<path d="M 26.9 45 H 27.9 Q 29.9 45 29.9 47 V 47 Q 29.9 49 27.9 49 H 26.9 Q 24.9 49 24.9 47 V 47 Q 24.9 45 26.9 45 Z" fill="#17131f" stroke="#0e0d16" stroke-width="1" />
<path d="M 37.5 35 H 37.7 Q 40.7 35 40.7 38 V 43 Q 40.7 46 37.7 46 H 37.5 Q 34.5 46 34.5 43 V 38 Q 34.5 35 37.5 35 Z" fill="url(#shade-pants)" stroke="#0e0d16" stroke-width="1" />
<path d="M 37 37 H 38.2 Q 39.7 37 39.7 38.5 V 38.5 Q 39.7 40 38.2 40 H 37 Q 35.5 40 35.5 38.5 V 38.5 Q 35.5 37 37 37 Z" fill="#8fe4d3" opacity="0.12" />
<path d="M 37.1 45 H 38.1 Q 40.1 45 40.1 47 V 47 Q 40.1 49 38.1 49 H 37.1 Q 35.1 49 35.1 47 V 47 Q 35.1 45 37.1 45 Z" fill="#17131f" stroke="#0e0d16" stroke-width="1" />
<path d="M 30 24 H 34 Q 40 24 40 30 V 35 Q 40 41 34 41 H 30 Q 24 41 24 35 V 30 Q 24 24 30 24 Z" fill="url(#shade-shirt)" stroke="#0e0d16" stroke-width="1.2" stroke-linejoin="round" />
<path d="M 28.5 28 H 35.5 Q 38 28 38 30.5 V 30.5 Q 38 33 35.5 33 H 28.5 Q 26 33 26 30.5 V 30.5 Q 26 28 28.5 28 Z" fill="#8fe4d3" opacity="0.75" />
<ellipse cx="33" cy="11" rx="7.3" ry="7.7" fill="url(#shade-skin)" stroke="#0e0d16" stroke-width="1.2" />
<path d="M 24 7 Q 33 -1 42 7 Q 43 17 39 21 Q 33 18 27 21 Q 23 17 24 7 Z" fill="#16142a" stroke="#0e0d16" stroke-width="1" />
<circle cx="30.4" cy="10.2" r="0.9" fill="#17131f" />
<circle cx="35.8" cy="10.2" r="0.9" fill="#17131f" />
<path d="M 31.5 13.6 Q 33 14.2 34.5 13.6" fill="none" stroke="#0e0d16" stroke-width="1" stroke-linecap="round" />
<path d="M 28 15 Q 33 18 38 15 L 37 18 Q 33 20 29 18 Z" fill="#8fe4d3" opacity="0.08" />
<g transform="translate(23 25) rotate(10)"><path d="M 0 0 H 0 Q 2.75 0 2.75 2.75 V 7.25 Q 2.75 10 0 10 H 0 Q -2.75 10 -2.75 7.25 V 2.75 Q -2.75 0 0 0 Z" fill="url(#shade-skin)" stroke="#0e0d16" stroke-width="1" />
<path d="M 0 2 H 0 Q 1.75 2 1.75 3.75 V 4.25 Q 1.75 6 0 6 H 0 Q -1.75 6 -1.75 4.25 V 3.75 Q -1.75 2 0 2 Z" fill="#7d5ad0" opacity="0.8" /></g>
<g transform="translate(41 25) rotate(-12)"><path d="M 0 -2 H 0 Q 2.75 -2 2.75 0.75 V 5.25 Q 2.75 8 0 8 H 0 Q -2.75 8 -2.75 5.25 V 0.75 Q -2.75 -2 0 -2 Z" fill="url(#shade-skin)" stroke="#0e0d16" stroke-width="1" />
<path d="M 0 0 H 0 Q 1.75 0 1.75 1.75 V 2.25 Q 1.75 4 0 4 H 0 Q -1.75 4 -1.75 2.25 V 1.75 Q -1.75 0 0 0 Z" fill="#7d5ad0" opacity="0.8" /></g>
<g transform="translate(48 25.8) rotate(-18)"><rect x="-1" y="-3" width="2" height="10" rx="1" fill="#8b7bd7" stroke="#0e0d16" stroke-width="0.8" />
<rect x="-5" y="-1" width="7" height="2" rx="1" fill="#8fe4d3" stroke="#0e0d16" stroke-width="0.8" /></g>
    </g>
  </g>
<g transform="translate(192,0)">
    <g>
      <ellipse cx="32" cy="55" rx="12" ry="4" fill="rgba(0,0,0,0.18)" />
      <ellipse cx="32" cy="52" rx="12" ry="3" fill="rgba(0,0,0,0.2)" opacity="0.45" />
<path d="M 24 26 C 16 31, 16 42, 24 50 C 29 43, 28 33, 24 26 Z" fill="#16142a" opacity="0.95" />
<path d="M 28.9 34.5 H 29.1 Q 32.1 34.5 32.1 37.5 V 42.5 Q 32.1 45.5 29.1 45.5 H 28.9 Q 25.9 45.5 25.9 42.5 V 37.5 Q 25.9 34.5 28.9 34.5 Z" fill="url(#shade-pants)" stroke="#0e0d16" stroke-width="1" />
<path d="M 28.4 36.5 H 29.599999999999998 Q 31.099999999999998 36.5 31.099999999999998 38 V 38 Q 31.099999999999998 39.5 29.599999999999998 39.5 H 28.4 Q 26.9 39.5 26.9 38 V 38 Q 26.9 36.5 28.4 36.5 Z" fill="#8fe4d3" opacity="0.12" />
<path d="M 28.5 46 H 29.5 Q 31.5 46 31.5 48 V 48 Q 31.5 50 29.5 50 H 28.5 Q 26.5 50 26.5 48 V 48 Q 26.5 46 28.5 46 Z" fill="#17131f" stroke="#0e0d16" stroke-width="1" />
<path d="M 35.9 36 H 36.1 Q 39.1 36 39.1 39 V 44 Q 39.1 47 36.1 47 H 35.9 Q 32.9 47 32.9 44 V 39 Q 32.9 36 35.9 36 Z" fill="url(#shade-pants)" stroke="#0e0d16" stroke-width="1" />
<path d="M 35.4 38 H 36.6 Q 38.1 38 38.1 39.5 V 39.5 Q 38.1 41 36.6 41 H 35.4 Q 33.9 41 33.9 39.5 V 39.5 Q 33.9 38 35.4 38 Z" fill="#8fe4d3" opacity="0.12" />
<path d="M 35.5 46 H 36.5 Q 38.5 46 38.5 48 V 48 Q 38.5 50 36.5 50 H 35.5 Q 33.5 50 33.5 48 V 48 Q 33.5 46 35.5 46 Z" fill="#17131f" stroke="#0e0d16" stroke-width="1" />
<path d="M 30 25 H 34 Q 40 25 40 31 V 36 Q 40 42 34 42 H 30 Q 24 42 24 36 V 31 Q 24 25 30 25 Z" fill="url(#shade-shirt)" stroke="#0e0d16" stroke-width="1.2" stroke-linejoin="round" />
<path d="M 28.5 29 H 35.5 Q 38 29 38 31.5 V 31.5 Q 38 34 35.5 34 H 28.5 Q 26 34 26 31.5 V 31.5 Q 26 29 28.5 29 Z" fill="#8fe4d3" opacity="0.75" />
<ellipse cx="33" cy="12" rx="7.3" ry="7.7" fill="url(#shade-skin)" stroke="#0e0d16" stroke-width="1.2" />
<path d="M 24 8 Q 33 0 42 8 Q 43 18 39 22 Q 33 19 27 22 Q 23 18 24 8 Z" fill="#16142a" stroke="#0e0d16" stroke-width="1" />
<circle cx="30.4" cy="11.2" r="0.9" fill="#17131f" />
<circle cx="35.8" cy="11.2" r="0.9" fill="#17131f" />
<path d="M 31.5 14.6 Q 33 15.2 34.5 14.6" fill="none" stroke="#0e0d16" stroke-width="1" stroke-linecap="round" />
<path d="M 28 16 Q 33 19 38 16 L 37 19 Q 33 21 29 19 Z" fill="#8fe4d3" opacity="0.08" />
<g transform="translate(22.2 26) rotate(10)"><path d="M 0 0 H 0 Q 2.75 0 2.75 2.75 V 7.25 Q 2.75 10 0 10 H 0 Q -2.75 10 -2.75 7.25 V 2.75 Q -2.75 0 0 0 Z" fill="url(#shade-skin)" stroke="#0e0d16" stroke-width="1" />
<path d="M 0 2 H 0 Q 1.75 2 1.75 3.75 V 4.25 Q 1.75 6 0 6 H 0 Q -1.75 6 -1.75 4.25 V 3.75 Q -1.75 2 0 2 Z" fill="#7d5ad0" opacity="0.8" /></g>
<g transform="translate(42.2 26) rotate(-12)"><path d="M 0 -2 H 0 Q 2.75 -2 2.75 0.75 V 5.25 Q 2.75 8 0 8 H 0 Q -2.75 8 -2.75 5.25 V 0.75 Q -2.75 -2 0 -2 Z" fill="url(#shade-skin)" stroke="#0e0d16" stroke-width="1" />
<path d="M 0 0 H 0 Q 1.75 0 1.75 1.75 V 2.25 Q 1.75 4 0 4 H 0 Q -1.75 4 -1.75 2.25 V 1.75 Q -1.75 0 0 0 Z" fill="#7d5ad0" opacity="0.8" /></g>
<g transform="translate(49.2 27) rotate(-18)"><rect x="-1" y="-3" width="2" height="10" rx="1" fill="#8b7bd7" stroke="#0e0d16" stroke-width="0.8" />
<rect x="-5" y="-1" width="7" height="2" rx="1" fill="#8fe4d3" stroke="#0e0d16" stroke-width="0.8" /></g>
    </g>
  </g>
<g transform="translate(256,0)">
    <g>
      <ellipse cx="32" cy="55" rx="12" ry="4" fill="rgba(0,0,0,0.18)" />
      <ellipse cx="32" cy="53" rx="12" ry="3" fill="rgba(0,0,0,0.2)" opacity="0.45" />
<path d="M 24 26 C 16 31, 16 42, 24 50 C 29 43, 28 33, 24 26 Z" fill="#16142a" opacity="0.95" />
<path d="M 30.5 35.5 H 30.700000000000003 Q 33.7 35.5 33.7 38.5 V 43.5 Q 33.7 46.5 30.700000000000003 46.5 H 30.5 Q 27.5 46.5 27.5 43.5 V 38.5 Q 27.5 35.5 30.5 35.5 Z" fill="url(#shade-pants)" stroke="#0e0d16" stroke-width="1" />
<path d="M 30 37.5 H 31.200000000000003 Q 32.7 37.5 32.7 39 V 39 Q 32.7 40.5 31.200000000000003 40.5 H 30 Q 28.5 40.5 28.5 39 V 39 Q 28.5 37.5 30 37.5 Z" fill="#8fe4d3" opacity="0.12" />
<path d="M 30.1 47 H 31.1 Q 33.1 47 33.1 49 V 49 Q 33.1 51 31.1 51 H 30.1 Q 28.1 51 28.1 49 V 49 Q 28.1 47 30.1 47 Z" fill="#17131f" stroke="#0e0d16" stroke-width="1" />
<path d="M 34.3 37 H 34.5 Q 37.5 37 37.5 40 V 45 Q 37.5 48 34.5 48 H 34.3 Q 31.299999999999997 48 31.299999999999997 45 V 40 Q 31.299999999999997 37 34.3 37 Z" fill="url(#shade-pants)" stroke="#0e0d16" stroke-width="1" />
<path d="M 33.8 39 H 35 Q 36.5 39 36.5 40.5 V 40.5 Q 36.5 42 35 42 H 33.8 Q 32.3 42 32.3 40.5 V 40.5 Q 32.3 39 33.8 39 Z" fill="#8fe4d3" opacity="0.12" />
<path d="M 33.9 47 H 34.9 Q 36.9 47 36.9 49 V 49 Q 36.9 51 34.9 51 H 33.9 Q 31.9 51 31.9 49 V 49 Q 31.9 47 33.9 47 Z" fill="#17131f" stroke="#0e0d16" stroke-width="1" />
<path d="M 30 26 H 34 Q 40 26 40 32 V 37 Q 40 43 34 43 H 30 Q 24 43 24 37 V 32 Q 24 26 30 26 Z" fill="url(#shade-shirt)" stroke="#0e0d16" stroke-width="1.2" stroke-linejoin="round" />
<path d="M 28.5 30 H 35.5 Q 38 30 38 32.5 V 32.5 Q 38 35 35.5 35 H 28.5 Q 26 35 26 32.5 V 32.5 Q 26 30 28.5 30 Z" fill="#8fe4d3" opacity="0.75" />
<ellipse cx="33" cy="13" rx="7.3" ry="7.7" fill="url(#shade-skin)" stroke="#0e0d16" stroke-width="1.2" />
<path d="M 24 9 Q 33 1 42 9 Q 43 19 39 23 Q 33 20 27 23 Q 23 19 24 9 Z" fill="#16142a" stroke="#0e0d16" stroke-width="1" />
<circle cx="30.4" cy="12.2" r="0.9" fill="#17131f" />
<circle cx="35.8" cy="12.2" r="0.9" fill="#17131f" />
<path d="M 31.5 15.6 Q 33 16.2 34.5 15.6" fill="none" stroke="#0e0d16" stroke-width="1" stroke-linecap="round" />
<path d="M 28 17 Q 33 20 38 17 L 37 20 Q 33 22 29 20 Z" fill="#8fe4d3" opacity="0.08" />
<g transform="translate(23 27) rotate(10)"><path d="M 0 0 H 0 Q 2.75 0 2.75 2.75 V 7.25 Q 2.75 10 0 10 H 0 Q -2.75 10 -2.75 7.25 V 2.75 Q -2.75 0 0 0 Z" fill="url(#shade-skin)" stroke="#0e0d16" stroke-width="1" />
<path d="M 0 2 H 0 Q 1.75 2 1.75 3.75 V 4.25 Q 1.75 6 0 6 H 0 Q -1.75 6 -1.75 4.25 V 3.75 Q -1.75 2 0 2 Z" fill="#7d5ad0" opacity="0.8" /></g>
<g transform="translate(41 27) rotate(-12)"><path d="M 0 -2 H 0 Q 2.75 -2 2.75 0.75 V 5.25 Q 2.75 8 0 8 H 0 Q -2.75 8 -2.75 5.25 V 0.75 Q -2.75 -2 0 -2 Z" fill="url(#shade-skin)" stroke="#0e0d16" stroke-width="1" />
<path d="M 0 0 H 0 Q 1.75 0 1.75 1.75 V 2.25 Q 1.75 4 0 4 H 0 Q -1.75 4 -1.75 2.25 V 1.75 Q -1.75 0 0 0 Z" fill="#7d5ad0" opacity="0.8" /></g>
<g transform="translate(48 28.2) rotate(-18)"><rect x="-1" y="-3" width="2" height="10" rx="1" fill="#8b7bd7" stroke="#0e0d16" stroke-width="0.8" />
<rect x="-5" y="-1" width="7" height="2" rx="1" fill="#8fe4d3" stroke="#0e0d16" stroke-width="0.8" /></g>
    </g>
  </g>
<g transform="translate(320,0)">
    <g>
      <ellipse cx="32" cy="55" rx="12" ry="4" fill="rgba(0,0,0,0.18)" />
      <ellipse cx="32" cy="52" rx="12" ry="3" fill="rgba(0,0,0,0.2)" opacity="0.45" />
<path d="M 24 26 C 16 31, 16 42, 24 50 C 29 43, 28 33, 24 26 Z" fill="#16142a" opacity="0.95" />
<path d="M 30.5 34.5 H 30.700000000000003 Q 33.7 34.5 33.7 37.5 V 42.5 Q 33.7 45.5 30.700000000000003 45.5 H 30.5 Q 27.5 45.5 27.5 42.5 V 37.5 Q 27.5 34.5 30.5 34.5 Z" fill="url(#shade-pants)" stroke="#0e0d16" stroke-width="1" />
<path d="M 30 36.5 H 31.200000000000003 Q 32.7 36.5 32.7 38 V 38 Q 32.7 39.5 31.200000000000003 39.5 H 30 Q 28.5 39.5 28.5 38 V 38 Q 28.5 36.5 30 36.5 Z" fill="#8fe4d3" opacity="0.12" />
<path d="M 30.1 46 H 31.1 Q 33.1 46 33.1 48 V 48 Q 33.1 50 31.1 50 H 30.1 Q 28.1 50 28.1 48 V 48 Q 28.1 46 30.1 46 Z" fill="#17131f" stroke="#0e0d16" stroke-width="1" />
<path d="M 34.3 36 H 34.5 Q 37.5 36 37.5 39 V 44 Q 37.5 47 34.5 47 H 34.3 Q 31.299999999999997 47 31.299999999999997 44 V 39 Q 31.299999999999997 36 34.3 36 Z" fill="url(#shade-pants)" stroke="#0e0d16" stroke-width="1" />
<path d="M 33.8 38 H 35 Q 36.5 38 36.5 39.5 V 39.5 Q 36.5 41 35 41 H 33.8 Q 32.3 41 32.3 39.5 V 39.5 Q 32.3 38 33.8 38 Z" fill="#8fe4d3" opacity="0.12" />
<path d="M 33.9 46 H 34.9 Q 36.9 46 36.9 48 V 48 Q 36.9 50 34.9 50 H 33.9 Q 31.9 50 31.9 48 V 48 Q 31.9 46 33.9 46 Z" fill="#17131f" stroke="#0e0d16" stroke-width="1" />
<path d="M 30 25 H 34 Q 40 25 40 31 V 36 Q 40 42 34 42 H 30 Q 24 42 24 36 V 31 Q 24 25 30 25 Z" fill="url(#shade-shirt)" stroke="#0e0d16" stroke-width="1.2" stroke-linejoin="round" />
<path d="M 28.5 29 H 35.5 Q 38 29 38 31.5 V 31.5 Q 38 34 35.5 34 H 28.5 Q 26 34 26 31.5 V 31.5 Q 26 29 28.5 29 Z" fill="#8fe4d3" opacity="0.75" />
<ellipse cx="33" cy="12" rx="7.3" ry="7.7" fill="url(#shade-skin)" stroke="#0e0d16" stroke-width="1.2" />
<path d="M 24 8 Q 33 0 42 8 Q 43 18 39 22 Q 33 19 27 22 Q 23 18 24 8 Z" fill="#16142a" stroke="#0e0d16" stroke-width="1" />
<circle cx="30.4" cy="11.2" r="0.9" fill="#17131f" />
<circle cx="35.8" cy="11.2" r="0.9" fill="#17131f" />
<path d="M 31.5 14.6 Q 33 15.2 34.5 14.6" fill="none" stroke="#0e0d16" stroke-width="1" stroke-linecap="round" />
<path d="M 28 16 Q 33 19 38 16 L 37 19 Q 33 21 29 19 Z" fill="#8fe4d3" opacity="0.08" />
<g transform="translate(23.8 26) rotate(10)"><path d="M 0 0 H 0 Q 2.75 0 2.75 2.75 V 7.25 Q 2.75 10 0 10 H 0 Q -2.75 10 -2.75 7.25 V 2.75 Q -2.75 0 0 0 Z" fill="url(#shade-skin)" stroke="#0e0d16" stroke-width="1" />
<path d="M 0 2 H 0 Q 1.75 2 1.75 3.75 V 4.25 Q 1.75 6 0 6 H 0 Q -1.75 6 -1.75 4.25 V 3.75 Q -1.75 2 0 2 Z" fill="#7d5ad0" opacity="0.8" /></g>
<g transform="translate(39.8 26) rotate(-12)"><path d="M 0 -2 H 0 Q 2.75 -2 2.75 0.75 V 5.25 Q 2.75 8 0 8 H 0 Q -2.75 8 -2.75 5.25 V 0.75 Q -2.75 -2 0 -2 Z" fill="url(#shade-skin)" stroke="#0e0d16" stroke-width="1" />
<path d="M 0 0 H 0 Q 1.75 0 1.75 1.75 V 2.25 Q 1.75 4 0 4 H 0 Q -1.75 4 -1.75 2.25 V 1.75 Q -1.75 0 0 0 Z" fill="#7d5ad0" opacity="0.8" /></g>
<g transform="translate(46.8 27) rotate(-18)"><rect x="-1" y="-3" width="2" height="10" rx="1" fill="#8b7bd7" stroke="#0e0d16" stroke-width="0.8" />
<rect x="-5" y="-1" width="7" height="2" rx="1" fill="#8fe4d3" stroke="#0e0d16" stroke-width="0.8" /></g>
    </g>
  </g>
</svg>
